<svg width="28" height="21" viewBox="0 0 28 21" fill="none" xmlns="http://www.w3.org/2000/svg">
<rect x="-0.75" y="0.75" width="26.5" height="17.4" rx="3.25" transform="matrix(-1 0 0 1 26.5 2.1001)" stroke="white" stroke-width="1.5"/>
<path d="M11.7739 9.26949C11.4056 10.07 11.2002 10.9609 11.2002 11.8999C11.2002 15.3792 14.0208 18.1999 17.5002 18.1999C20.9796 18.1999 23.8002 15.3792 23.8002 11.8999C23.8002 8.42046 20.9796 5.59985 17.5002 5.59985C16.3938 5.59985 15.354 5.88507 14.4503 6.38598" stroke="white" stroke-width="1.5" stroke-linecap="round"/>
<circle cx="17.4998" cy="11.9" r="3.45" stroke="white" stroke-width="1.5"/>
<path d="M18.2 11.9C18.2 11.5134 17.8866 11.2 17.5 11.2" stroke="white" stroke-width="1.5" stroke-linecap="round"/>
<line x1="4.25" y1="6.94995" x2="7.65" y2="6.94995" stroke="white" stroke-width="1.5" stroke-linecap="round"/>
<circle cx="12.9502" cy="7.65744" r="0.525" transform="rotate(-135 12.9502 7.65744)" fill="white"/>
<path d="M6.9502 1.75V2.05H4.9502V1.75C4.9502 1.19772 5.39791 0.75 5.9502 0.75C6.50248 0.75 6.9502 1.19772 6.9502 1.75Z" stroke="white" stroke-width="1.4"/>
<path d="M13.9004 0.75H21.1004C21.7907 0.75 22.3504 1.30964 22.3504 2V2.05H12.6504V2C12.6504 1.30964 13.21 0.75 13.9004 0.75Z" stroke="white" stroke-width="1.4"/>
</svg>
