<svg width="28" height="21" viewBox="0 0 28 21" fill="none" xmlns="http://www.w3.org/2000/svg">
<rect x="-0.75" y="0.75" width="26.5" height="17.4" rx="3.25" transform="matrix(-1 0 0 1 26.5 2.1001)" stroke="#7D94DF" stroke-width="1.5"/>
<path d="M12.4552 9.58323C12.6284 9.20693 12.4637 8.76153 12.0874 8.5884C11.7111 8.41526 11.2657 8.57995 11.0926 8.95625L12.4552 9.58323ZM14.0867 5.73026C13.7244 5.93108 13.5935 6.38755 13.7944 6.74983C13.9952 7.11211 14.4516 7.243 14.8139 7.04219L14.0867 5.73026ZM23.0502 11.9001C23.0502 14.9653 20.5654 17.4501 17.5002 17.4501V18.9501C21.3938 18.9501 24.5502 15.7937 24.5502 11.9001H23.0502ZM17.5002 17.4501C14.435 17.4501 11.9502 14.9653 11.9502 11.9001H10.4502C10.4502 15.7937 13.6066 18.9501 17.5002 18.9501V17.4501ZM17.5002 6.3501C20.5654 6.3501 23.0502 8.83492 23.0502 11.9001H24.5502C24.5502 8.00649 21.3938 4.8501 17.5002 4.8501V6.3501ZM11.9502 11.9001C11.9502 11.0716 12.1313 10.2874 12.4552 9.58323L11.0926 8.95625C10.6799 9.85307 10.4502 10.8508 10.4502 11.9001H11.9502ZM14.8139 7.04219C15.6092 6.60137 16.5242 6.3501 17.5002 6.3501V4.8501C16.2634 4.8501 15.0988 5.16925 14.0867 5.73026L14.8139 7.04219Z" fill="#7D94DF"/>
<circle cx="17.4998" cy="11.9002" r="3.45" stroke="#7D94DF" stroke-width="1.5"/>
<path d="M17.5 10.4502C17.0858 10.4502 16.75 10.786 16.75 11.2002C16.75 11.6144 17.0858 11.9502 17.5 11.9502V10.4502ZM17.45 11.9002C17.45 12.3144 17.7858 12.6502 18.2 12.6502C18.6142 12.6502 18.95 12.3144 18.95 11.9002H17.45ZM17.5 11.9502C17.4724 11.9502 17.45 11.9278 17.45 11.9002H18.95C18.95 11.0994 18.3008 10.4502 17.5 10.4502V11.9502Z" fill="#7D94DF"/>
<line x1="4.25" y1="6.9502" x2="7.65" y2="6.9502" stroke="#7D94DF" stroke-width="1.5" stroke-linecap="round"/>
<circle cx="12.9502" cy="7.65744" r="0.525" transform="rotate(-135 12.9502 7.65744)" fill="#7D94DF"/>
<path d="M4.9502 1.75C4.9502 1.19772 5.39791 0.75 5.9502 0.75C6.50248 0.75 6.9502 1.19772 6.9502 1.75V2.05H4.9502V1.75Z" stroke="#7D94DF" stroke-width="1.4"/>
<path d="M12.6504 2C12.6504 1.30964 13.21 0.75 13.9004 0.75H21.1004C21.7907 0.75 22.3504 1.30964 22.3504 2V2.05H12.6504V2Z" stroke="#7D94DF" stroke-width="1.4"/>
</svg>
