<svg width="28" height="21" viewBox="0 0 28 21" fill="none" xmlns="http://www.w3.org/2000/svg">
<rect x="-0.75" y="0.75" width="26.5" height="17.4" rx="3.25" transform="matrix(-1 0 0 1 26.5 2.1001)" stroke="#7D94DF" stroke-width="1.5"/>
<path d="M12.4552 9.58298C12.6284 9.20669 12.4637 8.76129 12.0874 8.58815C11.7111 8.41502 11.2657 8.57971 11.0926 8.956L12.4552 9.58298ZM14.0867 5.73002C13.7244 5.93083 13.5935 6.38731 13.7944 6.74959C13.9952 7.11187 14.4516 7.24276 14.8139 7.04195L14.0867 5.73002ZM23.0502 11.8999C23.0502 14.965 20.5654 17.4499 17.5002 17.4499V18.9499C21.3938 18.9499 24.5502 15.7935 24.5502 11.8999H23.0502ZM17.5002 17.4499C14.435 17.4499 11.9502 14.965 11.9502 11.8999H10.4502C10.4502 15.7935 13.6066 18.9499 17.5002 18.9499V17.4499ZM17.5002 6.34985C20.5654 6.34985 23.0502 8.83467 23.0502 11.8999H24.5502C24.5502 8.00625 21.3938 4.84985 17.5002 4.84985V6.34985ZM11.9502 11.8999C11.9502 11.0713 12.1313 10.2872 12.4552 9.58298L11.0926 8.956C10.6799 9.85282 10.4502 10.8505 10.4502 11.8999H11.9502ZM14.8139 7.04195C15.6092 6.60113 16.5242 6.34985 17.5002 6.34985V4.84985C16.2634 4.84985 15.0988 5.169 14.0867 5.73002L14.8139 7.04195Z" fill="#7D94DF"/>
<circle cx="17.4998" cy="11.9" r="3.45" stroke="#7D94DF" stroke-width="1.5"/>
<path d="M17.5 10.45C17.0858 10.45 16.75 10.7857 16.75 11.2C16.75 11.6142 17.0858 11.95 17.5 11.95V10.45ZM17.45 11.9C17.45 12.3142 17.7858 12.65 18.2 12.65C18.6142 12.65 18.95 12.3142 18.95 11.9H17.45ZM17.5 11.95C17.4724 11.95 17.45 11.9276 17.45 11.9H18.95C18.95 11.0991 18.3008 10.45 17.5 10.45V11.95Z" fill="#7D94DF"/>
<line x1="4.25" y1="6.94995" x2="7.65" y2="6.94995" stroke="#7D94DF" stroke-width="1.5" stroke-linecap="round"/>
<circle cx="12.9502" cy="7.65744" r="0.525" transform="rotate(-135 12.9502 7.65744)" fill="#7D94DF"/>
<path d="M6.9502 1.75V2.05H4.9502V1.75C4.9502 1.19772 5.39791 0.75 5.9502 0.75C6.50248 0.75 6.9502 1.19772 6.9502 1.75Z" stroke="#7D94DF" stroke-width="1.4"/>
<path d="M13.9004 0.75H21.1004C21.7907 0.75 22.3504 1.30964 22.3504 2V2.05H12.6504V2C12.6504 1.30964 13.21 0.75 13.9004 0.75Z" stroke="#7D94DF" stroke-width="1.4"/>
</svg>
