<svg width="26" height="30" viewBox="0 0 26 30" fill="none" xmlns="http://www.w3.org/2000/svg">
<path d="M24.789 27.1737V27.9237H25.539V27.1737H24.789ZM12.0928 27.1737H11.3428V27.9237H12.0928V27.1737ZM24.039 20.4782C24.039 20.8924 24.3748 21.2282 24.789 21.2282C25.2032 21.2282 25.539 20.8924 25.539 20.4782H24.039ZM25.539 22.6086C25.539 22.1943 25.2032 21.8586 24.789 21.8586C24.3748 21.8586 24.039 22.1943 24.039 22.6086H25.539ZM13.0928 19.4021H23.789V17.9021H13.0928V19.4021ZM24.789 26.4237H12.0928V27.9237H24.789V26.4237ZM12.8428 27.1737V19.6521H11.3428V27.1737H12.8428ZM24.039 19.6521V20.4782H25.539V19.6521H24.039ZM24.039 22.6086V27.1737H25.539V22.6086H24.039ZM23.789 19.4021C23.9271 19.4021 24.039 19.514 24.039 19.6521H25.539C25.539 18.6856 24.7555 17.9021 23.789 17.9021V19.4021ZM13.0928 17.9021C12.1263 17.9021 11.3428 18.6856 11.3428 19.6521H12.8428C12.8428 19.514 12.9547 19.4021 13.0928 19.4021V17.9021Z" fill="white"/>
<path d="M12.9999 29.7494C13.4141 29.7494 13.7499 29.4136 13.7499 28.9994C13.7499 28.5852 13.4141 28.2494 12.9999 28.2494V29.7494ZM14.8137 28.2494C14.3995 28.2494 14.0637 28.5852 14.0637 28.9994C14.0637 29.4136 14.3995 29.7494 14.8137 29.7494V28.2494ZM11.1923 27.9233H23.8763V26.4233H11.1923V27.9233ZM12.9999 28.2494H11.1923V29.7494H12.9999V28.2494ZM23.8763 28.2494H14.8137V29.7494H23.8763V28.2494ZM9.5293 28.0864C9.5293 29.0048 10.2739 29.7494 11.1923 29.7494V28.2494C11.1023 28.2494 11.0293 28.1764 11.0293 28.0864H9.5293ZM24.0393 28.0864C24.0393 28.1764 23.9663 28.2494 23.8763 28.2494V29.7494C24.7947 29.7494 25.5393 29.0048 25.5393 28.0864H24.0393ZM23.8763 27.9233C23.9663 27.9233 24.0393 27.9963 24.0393 28.0864H25.5393C25.5393 27.1679 24.7947 26.4233 23.8763 26.4233V27.9233ZM11.1923 26.4233C10.2739 26.4233 9.5293 27.1679 9.5293 28.0864H11.0293C11.0293 27.9963 11.1023 27.9233 11.1923 27.9233V26.4233Z" fill="white"/>
<path d="M11.1869 7.69568L11.2937 8.43804L11.1869 7.69568ZM6.34961 8.91292L5.6596 8.61901C5.62 8.71198 5.59959 8.81199 5.59961 8.91304L6.34961 8.91292ZM16.6281 7.39134H17.3781C17.3781 7.108 17.2184 6.84884 16.9653 6.72144L16.6281 7.39134ZM14.5121 5.86963L15.1374 5.45555C14.9277 5.13879 14.5142 5.0289 14.1748 5.19972L14.5121 5.86963ZM15.8781 12.5652C15.8781 12.6395 15.8093 12.9017 15.5266 13.3329C15.2658 13.7306 14.8847 14.1785 14.4274 14.599C13.4807 15.4691 12.3734 16.074 11.4888 16.074V17.574C12.9415 17.574 14.4038 16.6581 15.4425 15.7032C15.9778 15.2111 16.4433 14.6704 16.781 14.1554C17.0966 13.674 17.3781 13.0996 17.3781 12.5652H15.8781ZM11.4888 16.074C10.5549 16.074 9.43561 15.5723 8.52617 14.8057C8.08011 14.4297 7.7131 14.0129 7.46245 13.6065C7.20786 13.1936 7.0998 12.8355 7.0998 12.5632H5.5998C5.5998 13.2049 5.84194 13.8364 6.1857 14.3938C6.53339 14.9576 7.01287 15.4919 7.55939 15.9526C8.6351 16.8593 10.0852 17.574 11.4888 17.574V16.074ZM7.0998 12.5632C7.0998 11.4101 7.1002 12.5649 7.09961 8.9128L5.59961 8.91304C5.6002 12.5651 5.5998 11.4095 5.5998 12.5632H7.0998ZM7.03962 9.20684C7.21933 8.78495 7.40813 8.60693 7.56461 8.51695C7.73306 8.42008 7.96014 8.36956 8.31504 8.36959C8.69171 8.36961 9.07487 8.42039 9.60698 8.46242C10.1073 8.50193 10.6825 8.52599 11.2937 8.43804L11.08 6.95333C10.6333 7.01762 10.1883 7.00365 9.72507 6.96707C9.29362 6.933 8.76986 6.86961 8.31513 6.86959C7.83864 6.86956 7.30985 6.93311 6.81684 7.21663C6.31186 7.50702 5.93363 7.97569 5.6596 8.61901L7.03962 9.20684ZM15.8781 7.39134C15.8781 7.39431 15.8781 7.39729 15.8781 7.40026C15.8781 7.40324 15.8781 7.40621 15.8781 7.40919C15.8781 7.41217 15.8781 7.41515 15.8781 7.41813C15.8781 7.42111 15.8781 7.4241 15.8781 7.42708C15.8781 7.43006 15.8781 7.43305 15.8781 7.43604C15.8781 7.43902 15.8781 7.44201 15.8781 7.445C15.8781 7.44799 15.8781 7.45098 15.8781 7.45398C15.8781 7.45697 15.8781 7.45996 15.8781 7.46296C15.8781 7.46596 15.8781 7.46895 15.8781 7.47195C15.8781 7.47495 15.8781 7.47795 15.8781 7.48095C15.8781 7.48396 15.8781 7.48696 15.8781 7.48996C15.8781 7.49297 15.8781 7.49598 15.8781 7.49898C15.8781 7.50199 15.8781 7.505 15.8781 7.50801C15.8781 7.51102 15.8781 7.51403 15.8781 7.51705C15.8781 7.52006 15.8781 7.52308 15.8781 7.52609C15.8781 7.52911 15.8781 7.53213 15.8781 7.53515C15.8781 7.53817 15.8781 7.54119 15.8781 7.54421C15.8781 7.54723 15.8781 7.55025 15.8781 7.55328C15.8781 7.5563 15.8781 7.55933 15.8781 7.56236C15.8781 7.56539 15.8781 7.56842 15.8781 7.57145C15.8781 7.57448 15.8781 7.57751 15.8781 7.58054C15.8781 7.58358 15.8781 7.58661 15.8781 7.58965C15.8781 7.59269 15.8781 7.59572 15.8781 7.59876C15.8781 7.6018 15.8781 7.60484 15.8781 7.60788C15.8781 7.61093 15.8781 7.61397 15.8781 7.61702C15.8781 7.62006 15.8781 7.62311 15.8781 7.62615C15.8781 7.6292 15.8781 7.63225 15.8781 7.6353C15.8781 7.63835 15.8781 7.6414 15.8781 7.64446C15.8781 7.64751 15.8781 7.65057 15.8781 7.65362C15.8781 7.65668 15.8781 7.65974 15.8781 7.66279C15.8781 7.66585 15.8781 7.66891 15.8781 7.67198C15.8781 7.67504 15.8781 7.6781 15.8781 7.68116C15.8781 7.68423 15.8781 7.68729 15.8781 7.69036C15.8781 7.69343 15.8781 7.6965 15.8781 7.69957C15.8781 7.70264 15.8781 7.70571 15.8781 7.70878C15.8781 7.71185 15.8781 7.71493 15.8781 7.718C15.8781 7.72108 15.8781 7.72415 15.8781 7.72723C15.8781 7.73031 15.8781 7.73339 15.8781 7.73647C15.8781 7.73955 15.8781 7.74263 15.8781 7.74572C15.8781 7.7488 15.8781 7.75189 15.8781 7.75497C15.8781 7.75806 15.8781 7.76114 15.8781 7.76423C15.8781 7.76732 15.8781 7.77041 15.8781 7.7735C15.8781 7.7766 15.8781 7.77969 15.8781 7.78278C15.8781 7.78588 15.8781 7.78897 15.8781 7.79207C15.8781 7.79516 15.8781 7.79826 15.8781 7.80136C15.8781 7.80446 15.8781 7.80756 15.8781 7.81066C15.8781 7.81377 15.8781 7.81687 15.8781 7.81997C15.8781 7.82308 15.8781 7.82618 15.8781 7.82929C15.8781 7.8324 15.8781 7.83551 15.8781 7.83862C15.8781 7.84173 15.8781 7.84484 15.8781 7.84795C15.8781 7.85106 15.8781 7.85418 15.8781 7.85729C15.8781 7.86041 15.8781 7.86352 15.8781 7.86664C15.8781 7.86976 15.8781 7.87288 15.8781 7.876C15.8781 7.87912 15.8781 7.88224 15.8781 7.88536C15.8781 7.88848 15.8781 7.89161 15.8781 7.89473C15.8781 7.89786 15.8781 7.90099 15.8781 7.90411C15.8781 7.90724 15.8781 7.91037 15.8781 7.9135C15.8781 7.91663 15.8781 7.91976 15.8781 7.9229C15.8781 7.92603 15.8781 7.92916 15.8781 7.9323C15.8781 7.93543 15.8781 7.93857 15.8781 7.94171C15.8781 7.94485 15.8781 7.94798 15.8781 7.95113C15.8781 7.95427 15.8781 7.95741 15.8781 7.96055C15.8781 7.96369 15.8781 7.96684 15.8781 7.96998C15.8781 7.97313 15.8781 7.97627 15.8781 7.97942C15.8781 7.98257 15.8781 7.98572 15.8781 7.98887C15.8781 7.99202 15.8781 7.99517 15.8781 7.99832C15.8781 8.00148 15.8781 8.00463 15.8781 8.00779C15.8781 8.01094 15.8781 8.0141 15.8781 8.01726C15.8781 8.02041 15.8781 8.02357 15.8781 8.02673C15.8781 8.02989 15.8781 8.03305 15.8781 8.03622C15.8781 8.03938 15.8781 8.04254 15.8781 8.04571C15.8781 8.04887 15.8781 8.05204 15.8781 8.05521C15.8781 8.05837 15.8781 8.06154 15.8781 8.06471C15.8781 8.06788 15.8781 8.07105 15.8781 8.07422C15.8781 8.0774 15.8781 8.08057 15.8781 8.08374C15.8781 8.08692 15.8781 8.09009 15.8781 8.09327C15.8781 8.09645 15.8781 8.09963 15.8781 8.1028C15.8781 8.10598 15.8781 8.10916 15.8781 8.11235C15.8781 8.11553 15.8781 8.11871 15.8781 8.12189C15.8781 8.12508 15.8781 8.12826 15.8781 8.13145C15.8781 8.13464 15.8781 8.13782 15.8781 8.14101C15.8781 8.1442 15.8781 8.14739 15.8781 8.15058C15.8781 8.15377 15.8781 8.15696 15.8781 8.16016C15.8781 8.16335 15.8781 8.16654 15.8781 8.16974C15.8781 8.17294 15.8781 8.17613 15.8781 8.17933C15.8781 8.18253 15.8781 8.18573 15.8781 8.18893C15.8781 8.19213 15.8781 8.19533 15.8781 8.19853C15.8781 8.20173 15.8781 8.20494 15.8781 8.20814C15.8781 8.21135 15.8781 8.21455 15.8781 8.21776C15.8781 8.22096 15.8781 8.22417 15.8781 8.22738C15.8781 8.23059 15.8781 8.2338 15.8781 8.23701C15.8781 8.24022 15.8781 8.24344 15.8781 8.24665C15.8781 8.24986 15.8781 8.25308 15.8781 8.25629C15.8781 8.25951 15.8781 8.26273 15.8781 8.26595C15.8781 8.26916 15.8781 8.27238 15.8781 8.2756C15.8781 8.27882 15.8781 8.28204 15.8781 8.28527C15.8781 8.28849 15.8781 8.29171 15.8781 8.29494C15.8781 8.29816 15.8781 8.30139 15.8781 8.30461C15.8781 8.30784 15.8781 8.31107 15.8781 8.3143C15.8781 8.31753 15.8781 8.32076 15.8781 8.32399C15.8781 8.32722 15.8781 8.33045 15.8781 8.33368C15.8781 8.33692 15.8781 8.34015 15.8781 8.34339C15.8781 8.34662 15.8781 8.34986 15.8781 8.3531C15.8781 8.35634 15.8781 8.35957 15.8781 8.36281C15.8781 8.36605 15.8781 8.36929 15.8781 8.37254C15.8781 8.37578 15.8781 8.37902 15.8781 8.38226C15.8781 8.38551 15.8781 8.38875 15.8781 8.392C15.8781 8.39525 15.8781 8.39849 15.8781 8.40174C15.8781 8.40499 15.8781 8.40824 15.8781 8.41149C15.8781 8.41474 15.8781 8.41799 15.8781 8.42124C15.8781 8.42449 15.8781 8.42775 15.8781 8.431C15.8781 8.43426 15.8781 8.43751 15.8781 8.44077C15.8781 8.44402 15.8781 8.44728 15.8781 8.45054C15.8781 8.4538 15.8781 8.45706 15.8781 8.46032C15.8781 8.46358 15.8781 8.46684 15.8781 8.4701C15.8781 8.47337 15.8781 8.47663 15.8781 8.47989C15.8781 8.48316 15.8781 8.48642 15.8781 8.48969C15.8781 8.49296 15.8781 8.49623 15.8781 8.49949C15.8781 8.50276 15.8781 8.50603 15.8781 8.5093C15.8781 8.51257 15.8781 8.51584 15.8781 8.51912C15.8781 8.52239 15.8781 8.52566 15.8781 8.52894C15.8781 8.53221 15.8781 8.53549 15.8781 8.53876C15.8781 8.54204 15.8781 8.54532 15.8781 8.5486C15.8781 8.55188 15.8781 8.55516 15.8781 8.55844C15.8781 8.56172 15.8781 8.565 15.8781 8.56828C15.8781 8.57156 15.8781 8.57485 15.8781 8.57813C15.8781 8.58141 15.8781 8.5847 15.8781 8.58799C15.8781 8.59127 15.8781 8.59456 15.8781 8.59785C15.8781 8.60114 15.8781 8.60443 15.8781 8.60772C15.8781 8.61101 15.8781 8.6143 15.8781 8.61759C15.8781 8.62088 15.8781 8.62417 15.8781 8.62747C15.8781 8.63076 15.8781 8.63406 15.8781 8.63735C15.8781 8.64065 15.8781 8.64394 15.8781 8.64724C15.8781 8.65054 15.8781 8.65384 15.8781 8.65714C15.8781 8.66044 15.8781 8.66374 15.8781 8.66704C15.8781 8.67034 15.8781 8.67364 15.8781 8.67695C15.8781 8.68025 15.8781 8.68355 15.8781 8.68686C15.8781 8.69016 15.8781 8.69347 15.8781 8.69678C15.8781 8.70008 15.8781 8.70339 15.8781 8.7067C15.8781 8.71001 15.8781 8.71332 15.8781 8.71663C15.8781 8.71994 15.8781 8.72325 15.8781 8.72656C15.8781 8.72988 15.8781 8.73319 15.8781 8.7365C15.8781 8.73982 15.8781 8.74313 15.8781 8.74645C15.8781 8.74976 15.8781 8.75308 15.8781 8.7564C15.8781 8.75972 15.8781 8.76304 15.8781 8.76636C15.8781 8.76968 15.8781 8.773 15.8781 8.77632C15.8781 8.77964 15.8781 8.78296 15.8781 8.78628C15.8781 8.78961 15.8781 8.79293 15.8781 8.79626C15.8781 8.79958 15.8781 8.80291 15.8781 8.80623C15.8781 8.80956 15.8781 8.81289 15.8781 8.81621C15.8781 8.81954 15.8781 8.82287 15.8781 8.8262C15.8781 8.82953 15.8781 8.83286 15.8781 8.83619C15.8781 8.83953 15.8781 8.84286 15.8781 8.84619C15.8781 8.84953 15.8781 8.85286 15.8781 8.85619C15.8781 8.85953 15.8781 8.86287 15.8781 8.8662C15.8781 8.86954 15.8781 8.87288 15.8781 8.87622C15.8781 8.87955 15.8781 8.88289 15.8781 8.88623C15.8781 8.88957 15.8781 8.89291 15.8781 8.89626C15.8781 8.8996 15.8781 8.90294 15.8781 8.90628C15.8781 8.90963 15.8781 8.91297 15.8781 8.91632C15.8781 8.91966 15.8781 8.92301 15.8781 8.92635C15.8781 8.9297 15.8781 8.93305 15.8781 8.9364C15.8781 8.93975 15.8781 8.94309 15.8781 8.94644C15.8781 8.94979 15.8781 8.95315 15.8781 8.9565C15.8781 8.95985 15.8781 8.9632 15.8781 8.96655C15.8781 8.96991 15.8781 8.97326 15.8781 8.97662C15.8781 8.97997 15.8781 8.98333 15.8781 8.98668C15.8781 8.99004 15.8781 8.9934 15.8781 8.99675C15.8781 9.00011 15.8781 9.00347 15.8781 9.00683C15.8781 9.01019 15.8781 9.01355 15.8781 9.01691C15.8781 9.02027 15.8781 9.02363 15.8781 9.027C15.8781 9.03036 15.8781 9.03372 15.8781 9.03709C15.8781 9.04045 15.8781 9.04382 15.8781 9.04718C15.8781 9.05055 15.8781 9.05391 15.8781 9.05728C15.8781 9.06065 15.8781 9.06402 15.8781 9.06739C15.8781 9.07075 15.8781 9.07412 15.8781 9.07749C15.8781 9.08086 15.8781 9.08424 15.8781 9.08761C15.8781 9.09098 15.8781 9.09435 15.8781 9.09772C15.8781 9.1011 15.8781 9.10447 15.8781 9.10785C15.8781 9.11122 15.8781 9.1146 15.8781 9.11797C15.8781 9.12135 15.8781 9.12473 15.8781 9.1281C15.8781 9.13148 15.8781 9.13486 15.8781 9.13824C15.8781 9.14162 15.8781 9.145 15.8781 9.14838C15.8781 9.15176 15.8781 9.15514 15.8781 9.15852C15.8781 9.1619 15.8781 9.16529 15.8781 9.16867C15.8781 9.17205 15.8781 9.17544 15.8781 9.17882C15.8781 9.18221 15.8781 9.18559 15.8781 9.18898C15.8781 9.19237 15.8781 9.19575 15.8781 9.19914C15.8781 9.20253 15.8781 9.20592 15.8781 9.2093C15.8781 9.21269 15.8781 9.21608 15.8781 9.21947C15.8781 9.22286 15.8781 9.22626 15.8781 9.22965C15.8781 9.23304 15.8781 9.23643 15.8781 9.23982C15.8781 9.24322 15.8781 9.24661 15.8781 9.25001C15.8781 9.2534 15.8781 9.2568 15.8781 9.26019C15.8781 9.26359 15.8781 9.26698 15.8781 9.27038C15.8781 9.27378 15.8781 9.27718 15.8781 9.28058C15.8781 9.28397 15.8781 9.28737 15.8781 9.29077C15.8781 9.29417 15.8781 9.29757 15.8781 9.30097C15.8781 9.30438 15.8781 9.30778 15.8781 9.31118C15.8781 9.31458 15.8781 9.31799 15.8781 9.32139C15.8781 9.32479 15.8781 9.3282 15.8781 9.3316C15.8781 9.33501 15.8781 9.33841 15.8781 9.34182C15.8781 9.34523 15.8781 9.34863 15.8781 9.35204C15.8781 9.35545 15.8781 9.35886 15.8781 9.36227C15.8781 9.36567 15.8781 9.36908 15.8781 9.37249C15.8781 9.3759 15.8781 9.37932 15.8781 9.38273C15.8781 9.38614 15.8781 9.38955 15.8781 9.39296C15.8781 9.39638 15.8781 9.39979 15.8781 9.4032C15.8781 9.40662 15.8781 9.41003 15.8781 9.41345C15.8781 9.41686 15.8781 9.42028 15.8781 9.42369C15.8781 9.42711 15.8781 9.43053 15.8781 9.43394C15.8781 9.43736 15.8781 9.44078 15.8781 9.4442C15.8781 9.44762 15.8781 9.45104 15.8781 9.45446C15.8781 9.45788 15.8781 9.4613 15.8781 9.46472C15.8781 9.46814 15.8781 9.47156 15.8781 9.47498C15.8781 9.4784 15.8781 9.48183 15.8781 9.48525C15.8781 9.48867 15.8781 9.4921 15.8781 9.49552C15.8781 9.49895 15.8781 9.50237 15.8781 9.5058C15.8781 9.50922 15.8781 9.51265 15.8781 9.51608C15.8781 9.5195 15.8781 9.52293 15.8781 9.52636C15.8781 9.52979 15.8781 9.53322 15.8781 9.53664C15.8781 9.54007 15.8781 9.5435 15.8781 9.54693C15.8781 9.55036 15.8781 9.55379 15.8781 9.55723C15.8781 9.56066 15.8781 9.56409 15.8781 9.56752C15.8781 9.57095 15.8781 9.57439 15.8781 9.57782C15.8781 9.58125 15.8781 9.58469 15.8781 9.58812C15.8781 9.59156 15.8781 9.59499 15.8781 9.59843C15.8781 9.60186 15.8781 9.6053 15.8781 9.60874C15.8781 9.61217 15.8781 9.61561 15.8781 9.61905C15.8781 9.62248 15.8781 9.62592 15.8781 9.62936C15.8781 9.6328 15.8781 9.63624 15.8781 9.63968C15.8781 9.64312 15.8781 9.64656 15.8781 9.65C15.8781 9.65344 15.8781 9.65688 15.8781 9.66032C15.8781 9.66377 15.8781 9.66721 15.8781 9.67065C15.8781 9.67409 15.8781 9.67754 15.8781 9.68098C15.8781 9.68443 15.8781 9.68787 15.8781 9.69131C15.8781 9.69476 15.8781 9.6982 15.8781 9.70165C15.8781 9.7051 15.8781 9.70854 15.8781 9.71199C15.8781 9.71544 15.8781 9.71888 15.8781 9.72233C15.8781 9.72578 15.8781 9.72923 15.8781 9.73268C15.8781 9.73612 15.8781 9.73957 15.8781 9.74302C15.8781 9.74647 15.8781 9.74992 15.8781 9.75337C15.8781 9.75682 15.8781 9.76027 15.8781 9.76373C15.8781 9.76718 15.8781 9.77063 15.8781 9.77408C15.8781 9.77753 15.8781 9.78099 15.8781 9.78444C15.8781 9.78789 15.8781 9.79135 15.8781 9.7948C15.8781 9.79826 15.8781 9.80171 15.8781 9.80517C15.8781 9.80862 15.8781 9.81208 15.8781 9.81553C15.8781 9.81899 15.8781 9.82244 15.8781 9.8259C15.8781 9.82936 15.8781 9.83282 15.8781 9.83627C15.8781 9.83973 15.8781 9.84319 15.8781 9.84665C15.8781 9.85011 15.8781 9.85357 15.8781 9.85702C15.8781 9.86048 15.8781 9.86394 15.8781 9.8674C15.8781 9.87086 15.8781 9.87433 15.8781 9.87779C15.8781 9.88125 15.8781 9.88471 15.8781 9.88817C15.8781 9.89163 15.8781 9.8951 15.8781 9.89856C15.8781 9.90202 15.8781 9.90548 15.8781 9.90895C15.8781 9.91241 15.8781 9.91587 15.8781 9.91934C15.8781 9.9228 15.8781 9.92627 15.8781 9.92973C15.8781 9.9332 15.8781 9.93666 15.8781 9.94013C15.8781 9.9436 15.8781 9.94706 15.8781 9.95053C15.8781 9.954 15.8781 9.95746 15.8781 9.96093C15.8781 9.9644 15.8781 9.96787 15.8781 9.97133C15.8781 9.9748 15.8781 9.97827 15.8781 9.98174C15.8781 9.98521 15.8781 9.98868 15.8781 9.99215C15.8781 9.99562 15.8781 9.99909 15.8781 10.0026C15.8781 10.006 15.8781 10.0095 15.8781 10.013C15.8781 10.0164 15.8781 10.0199 15.8781 10.0234C15.8781 10.0269 15.8781 10.0303 15.8781 10.0338C15.8781 10.0373 15.8781 10.0407 15.8781 10.0442C15.8781 10.0477 15.8781 10.0512 15.8781 10.0546C15.8781 10.0581 15.8781 10.0616 15.8781 10.0651C15.8781 10.0685 15.8781 10.072 15.8781 10.0755C15.8781 10.079 15.8781 10.0824 15.8781 10.0859C15.8781 10.0894 15.8781 10.0929 15.8781 10.0963C15.8781 10.0998 15.8781 10.1033 15.8781 10.1068C15.8781 10.1103 15.8781 10.1137 15.8781 10.1172C15.8781 10.1207 15.8781 10.1242 15.8781 10.1276C15.8781 10.1311 15.8781 10.1346 15.8781 10.1381C15.8781 10.1416 15.8781 10.145 15.8781 10.1485C15.8781 10.152 15.8781 10.1555 15.8781 10.159C15.8781 10.1624 15.8781 10.1659 15.8781 10.1694C15.8781 10.1729 15.8781 10.1764 15.8781 10.1798C15.8781 10.1833 15.8781 10.1868 15.8781 10.1903C15.8781 10.1938 15.8781 10.1973 15.8781 10.2007C15.8781 10.2042 15.8781 10.2077 15.8781 10.2112C15.8781 10.2147 15.8781 10.2181 15.8781 10.2216C15.8781 10.2251 15.8781 10.2286 15.8781 10.2321C15.8781 10.2356 15.8781 10.2391 15.8781 10.2425C15.8781 10.246 15.8781 10.2495 15.8781 10.253C15.8781 10.2565 15.8781 10.26 15.8781 10.2635C15.8781 10.2669 15.8781 10.2704 15.8781 10.2739C15.8781 10.2774 15.8781 10.2809 15.8781 10.2844C15.8781 10.2879 15.8781 10.2913 15.8781 10.2948C15.8781 10.2983 15.8781 10.3018 15.8781 10.3053C15.8781 10.3088 15.8781 10.3123 15.8781 10.3158C15.8781 10.3192 15.8781 10.3227 15.8781 10.3262C15.8781 10.3297 15.8781 10.3332 15.8781 10.3367C15.8781 10.3402 15.8781 10.3437 15.8781 10.3472C15.8781 10.3506 15.8781 10.3541 15.8781 10.3576C15.8781 10.3611 15.8781 10.3646 15.8781 10.3681C15.8781 10.3716 15.8781 10.3751 15.8781 10.3786C15.8781 10.3821 15.8781 10.3856 15.8781 10.389C15.8781 10.3925 15.8781 10.396 15.8781 10.3995C15.8781 10.403 15.8781 10.4065 15.8781 10.41C15.8781 10.4135 15.8781 10.417 15.8781 10.4205C15.8781 10.424 15.8781 10.4275 15.8781 10.4309C15.8781 10.4344 15.8781 10.4379 15.8781 10.4414C15.8781 10.4449 15.8781 10.4484 15.8781 10.4519C15.8781 10.4554 15.8781 10.4589 15.8781 10.4624C15.8781 10.4659 15.8781 10.4694 15.8781 10.4729C15.8781 10.4764 15.8781 10.4799 15.8781 10.4834C15.8781 10.4868 15.8781 10.4903 15.8781 10.4938C15.8781 10.4973 15.8781 10.5008 15.8781 10.5043C15.8781 10.5078 15.8781 10.5113 15.8781 10.5148C15.8781 10.5183 15.8781 10.5218 15.8781 10.5253C15.8781 10.5288 15.8781 10.5323 15.8781 10.5358C15.8781 10.5393 15.8781 10.5428 15.8781 10.5463C15.8781 10.5498 15.8781 10.5533 15.8781 10.5568C15.8781 10.5603 15.8781 10.5638 15.8781 10.5673C15.8781 10.5708 15.8781 10.5742 15.8781 10.5777C15.8781 10.5812 15.8781 10.5847 15.8781 10.5882C15.8781 10.5917 15.8781 10.5952 15.8781 10.5987C15.8781 10.6022 15.8781 10.6057 15.8781 10.6092C15.8781 10.6127 15.8781 10.6162 15.8781 10.6197C15.8781 10.6232 15.8781 10.6267 15.8781 10.6302C15.8781 10.6337 15.8781 10.6372 15.8781 10.6407C15.8781 10.6442 15.8781 10.6477 15.8781 10.6512C15.8781 10.6547 15.8781 10.6582 15.8781 10.6617C15.8781 10.6652 15.8781 10.6687 15.8781 10.6722C15.8781 10.6757 15.8781 10.6792 15.8781 10.6827C15.8781 10.6862 15.8781 10.6897 15.8781 10.6932C15.8781 10.6967 15.8781 10.7002 15.8781 10.7037C15.8781 10.7072 15.8781 10.7107 15.8781 10.7142C15.8781 10.7177 15.8781 10.7212 15.8781 10.7247C15.8781 10.7282 15.8781 10.7317 15.8781 10.7352C15.8781 10.7387 15.8781 10.7422 15.8781 10.7457C15.8781 10.7492 15.8781 10.7527 15.8781 10.7562C15.8781 10.7597 15.8781 10.7632 15.8781 10.7667C15.8781 10.7702 15.8781 10.7737 15.8781 10.7772C15.8781 10.7807 15.8781 10.7842 15.8781 10.7877C15.8781 10.7912 15.8781 10.7947 15.8781 10.7982C15.8781 10.8017 15.8781 10.8052 15.8781 10.8087C15.8781 10.8122 15.8781 10.8157 15.8781 10.8192C15.8781 10.8227 15.8781 10.8262 15.8781 10.8297C15.8781 10.8332 15.8781 10.8367 15.8781 10.8402C15.8781 10.8437 15.8781 10.8472 15.8781 10.8507C15.8781 10.8542 15.8781 10.8577 15.8781 10.8612C15.8781 10.8647 15.8781 10.8682 15.8781 10.8717C15.8781 10.8752 15.8781 10.8787 15.8781 10.8822C15.8781 10.8857 15.8781 10.8892 15.8781 10.8927C15.8781 10.8962 15.8781 10.8997 15.8781 10.9032C15.8781 10.9067 15.8781 10.9102 15.8781 10.9137C15.8781 10.9172 15.8781 10.9207 15.8781 10.9242C15.8781 10.9277 15.8781 10.9312 15.8781 10.9347C15.8781 10.9382 15.8781 10.9417 15.8781 10.9452C15.8781 10.9487 15.8781 10.9522 15.8781 10.9557C15.8781 10.9592 15.8781 10.9627 15.8781 10.9662C15.8781 10.9697 15.8781 10.9732 15.8781 10.9767C15.8781 10.9802 15.8781 10.9837 15.8781 10.9872C15.8781 10.9907 15.8781 10.9942 15.8781 10.9977C15.8781 11.0012 15.8781 11.0047 15.8781 11.0082C15.8781 11.0117 15.8781 11.0152 15.8781 11.0187C15.8781 11.0222 15.8781 11.0257 15.8781 11.0292C15.8781 11.0327 15.8781 11.0362 15.8781 11.0397C15.8781 11.0432 15.8781 11.0467 15.8781 11.0502C15.8781 11.0537 15.8781 11.0572 15.8781 11.0607C15.8781 11.0642 15.8781 11.0677 15.8781 11.0712C15.8781 11.0747 15.8781 11.0782 15.8781 11.0817C15.8781 11.0852 15.8781 11.0887 15.8781 11.0922C15.8781 11.0957 15.8781 11.0992 15.8781 11.1027C15.8781 11.1062 15.8781 11.1097 15.8781 11.1132C15.8781 11.1167 15.8781 11.1202 15.8781 11.1237C15.8781 11.1272 15.8781 11.1307 15.8781 11.1342C15.8781 11.1377 15.8781 11.1412 15.8781 11.1447C15.8781 11.1482 15.8781 11.1517 15.8781 11.1552C15.8781 11.1587 15.8781 11.1622 15.8781 11.1657C15.8781 11.1692 15.8781 11.1727 15.8781 11.1762C15.8781 11.1797 15.8781 11.1832 15.8781 11.1867C15.8781 11.1902 15.8781 11.1937 15.8781 11.1972C15.8781 11.2007 15.8781 11.2042 15.8781 11.2077C15.8781 11.2111 15.8781 11.2146 15.8781 11.2181C15.8781 11.2216 15.8781 11.2251 15.8781 11.2286C15.8781 11.2321 15.8781 11.2356 15.8781 11.2391C15.8781 11.2426 15.8781 11.2461 15.8781 11.2496C15.8781 11.2531 15.8781 11.2566 15.8781 11.2601C15.8781 11.2636 15.8781 11.2671 15.8781 11.2706C15.8781 11.2741 15.8781 11.2776 15.8781 11.2811C15.8781 11.2846 15.8781 11.288 15.8781 11.2915C15.8781 11.295 15.8781 11.2985 15.8781 11.302C15.8781 11.3055 15.8781 11.309 15.8781 11.3125C15.8781 11.316 15.8781 11.3195 15.8781 11.323C15.8781 11.3265 15.8781 11.33 15.8781 11.3335C15.8781 11.337 15.8781 11.3404 15.8781 11.3439C15.8781 11.3474 15.8781 11.3509 15.8781 11.3544C15.8781 11.3579 15.8781 11.3614 15.8781 11.3649C15.8781 11.3684 15.8781 11.3719 15.8781 11.3754C15.8781 11.3789 15.8781 11.3823 15.8781 11.3858C15.8781 11.3893 15.8781 11.3928 15.8781 11.3963C15.8781 11.3998 15.8781 11.4033 15.8781 11.4068C15.8781 11.4103 15.8781 11.4138 15.8781 11.4172C15.8781 11.4207 15.8781 11.4242 15.8781 11.4277C15.8781 11.4312 15.8781 11.4347 15.8781 11.4382C15.8781 11.4417 15.8781 11.4452 15.8781 11.4486C15.8781 11.4521 15.8781 11.4556 15.8781 11.4591C15.8781 11.4626 15.8781 11.4661 15.8781 11.4696C15.8781 11.4731 15.8781 11.4765 15.8781 11.48C15.8781 11.4835 15.8781 11.487 15.8781 11.4905C15.8781 11.494 15.8781 11.4975 15.8781 11.501C15.8781 11.5044 15.8781 11.5079 15.8781 11.5114C15.8781 11.5149 15.8781 11.5184 15.8781 11.5219C15.8781 11.5253 15.8781 11.5288 15.8781 11.5323C15.8781 11.5358 15.8781 11.5393 15.8781 11.5428C15.8781 11.5463 15.8781 11.5497 15.8781 11.5532C15.8781 11.5567 15.8781 11.5602 15.8781 11.5637C15.8781 11.5671 15.8781 11.5706 15.8781 11.5741C15.8781 11.5776 15.8781 11.5811 15.8781 11.5846C15.8781 11.588 15.8781 11.5915 15.8781 11.595C15.8781 11.5985 15.8781 11.602 15.8781 11.6054C15.8781 11.6089 15.8781 11.6124 15.8781 11.6159C15.8781 11.6194 15.8781 11.6228 15.8781 11.6263C15.8781 11.6298 15.8781 11.6333 15.8781 11.6368C15.8781 11.6402 15.8781 11.6437 15.8781 11.6472C15.8781 11.6507 15.8781 11.6541 15.8781 11.6576C15.8781 11.6611 15.8781 11.6646 15.8781 11.6681C15.8781 11.6715 15.8781 11.675 15.8781 11.6785C15.8781 11.682 15.8781 11.6854 15.8781 11.6889C15.8781 11.6924 15.8781 11.6959 15.8781 11.6993C15.8781 11.7028 15.8781 11.7063 15.8781 11.7098C15.8781 11.7132 15.8781 11.7167 15.8781 11.7202C15.8781 11.7236 15.8781 11.7271 15.8781 11.7306C15.8781 11.7341 15.8781 11.7375 15.8781 11.741C15.8781 11.7445 15.8781 11.7479 15.8781 11.7514C15.8781 11.7549 15.8781 11.7584 15.8781 11.7618C15.8781 11.7653 15.8781 11.7688 15.8781 11.7722C15.8781 11.7757 15.8781 11.7792 15.8781 11.7826C15.8781 11.7861 15.8781 11.7896 15.8781 11.7931C15.8781 11.7965 15.8781 11.8 15.8781 11.8035C15.8781 11.8069 15.8781 11.8104 15.8781 11.8139C15.8781 11.8173 15.8781 11.8208 15.8781 11.8243C15.8781 11.8277 15.8781 11.8312 15.8781 11.8346C15.8781 11.8381 15.8781 11.8416 15.8781 11.845C15.8781 11.8485 15.8781 11.852 15.8781 11.8554C15.8781 11.8589 15.8781 11.8624 15.8781 11.8658C15.8781 11.8693 15.8781 11.8727 15.8781 11.8762C15.8781 11.8797 15.8781 11.8831 15.8781 11.8866C15.8781 11.8901 15.8781 11.8935 15.8781 11.897C15.8781 11.9004 15.8781 11.9039 15.8781 11.9074C15.8781 11.9108 15.8781 11.9143 15.8781 11.9177C15.8781 11.9212 15.8781 11.9246 15.8781 11.9281C15.8781 11.9316 15.8781 11.935 15.8781 11.9385C15.8781 11.9419 15.8781 11.9454 15.8781 11.9488C15.8781 11.9523 15.8781 11.9558 15.8781 11.9592C15.8781 11.9627 15.8781 11.9661 15.8781 11.9696C15.8781 11.973 15.8781 11.9765 15.8781 11.9799C15.8781 11.9834 15.8781 11.9868 15.8781 11.9903C15.8781 11.9937 15.8781 11.9972 15.8781 12.0006C15.8781 12.0041 15.8781 12.0075 15.8781 12.011C15.8781 12.0144 15.8781 12.0179 15.8781 12.0213C15.8781 12.0248 15.8781 12.0282 15.8781 12.0317C15.8781 12.0351 15.8781 12.0386 15.8781 12.042C15.8781 12.0455 15.8781 12.0489 15.8781 12.0524C15.8781 12.0558 15.8781 12.0593 15.8781 12.0627C15.8781 12.0662 15.8781 12.0696 15.8781 12.073C15.8781 12.0765 15.8781 12.0799 15.8781 12.0834C15.8781 12.0868 15.8781 12.0903 15.8781 12.0937C15.8781 12.0972 15.8781 12.1006 15.8781 12.104C15.8781 12.1075 15.8781 12.1109 15.8781 12.1144C15.8781 12.1178 15.8781 12.1212 15.8781 12.1247C15.8781 12.1281 15.8781 12.1316 15.8781 12.135C15.8781 12.1384 15.8781 12.1419 15.8781 12.1453C15.8781 12.1487 15.8781 12.1522 15.8781 12.1556C15.8781 12.1591 15.8781 12.1625 15.8781 12.1659C15.8781 12.1694 15.8781 12.1728 15.8781 12.1762C15.8781 12.1797 15.8781 12.1831 15.8781 12.1865C15.8781 12.19 15.8781 12.1934 15.8781 12.1968C15.8781 12.2003 15.8781 12.2037 15.8781 12.2071C15.8781 12.2106 15.8781 12.214 15.8781 12.2174C15.8781 12.2208 15.8781 12.2243 15.8781 12.2277C15.8781 12.2311 15.8781 12.2346 15.8781 12.238C15.8781 12.2414 15.8781 12.2448 15.8781 12.2483C15.8781 12.2517 15.8781 12.2551 15.8781 12.2585C15.8781 12.262 15.8781 12.2654 15.8781 12.2688C15.8781 12.2722 15.8781 12.2757 15.8781 12.2791C15.8781 12.2825 15.8781 12.2859 15.8781 12.2894C15.8781 12.2928 15.8781 12.2962 15.8781 12.2996C15.8781 12.303 15.8781 12.3065 15.8781 12.3099C15.8781 12.3133 15.8781 12.3167 15.8781 12.3201C15.8781 12.3236 15.8781 12.327 15.8781 12.3304C15.8781 12.3338 15.8781 12.3372 15.8781 12.3406C15.8781 12.3441 15.8781 12.3475 15.8781 12.3509C15.8781 12.3543 15.8781 12.3577 15.8781 12.3611C15.8781 12.3645 15.8781 12.368 15.8781 12.3714C15.8781 12.3748 15.8781 12.3782 15.8781 12.3816C15.8781 12.385 15.8781 12.3884 15.8781 12.3918C15.8781 12.3952 15.8781 12.3987 15.8781 12.4021C15.8781 12.4055 15.8781 12.4089 15.8781 12.4123C15.8781 12.4157 15.8781 12.4191 15.8781 12.4225C15.8781 12.4259 15.8781 12.4293 15.8781 12.4327C15.8781 12.4361 15.8781 12.4395 15.8781 12.4429C15.8781 12.4463 15.8781 12.4497 15.8781 12.4531C15.8781 12.4565 15.8781 12.4599 15.8781 12.4633C15.8781 12.4667 15.8781 12.4701 15.8781 12.4735C15.8781 12.4769 15.8781 12.4803 15.8781 12.4837C15.8781 12.4871 15.8781 12.4905 15.8781 12.4939C15.8781 12.4973 15.8781 12.5007 15.8781 12.5041C15.8781 12.5075 15.8781 12.5109 15.8781 12.5143C15.8781 12.5177 15.8781 12.5211 15.8781 12.5245C15.8781 12.5279 15.8781 12.5313 15.8781 12.5347C15.8781 12.5381 15.8781 12.5414 15.8781 12.5448C15.8781 12.5482 15.8781 12.5516 15.8781 12.555C15.8781 12.5584 15.8781 12.5618 15.8781 12.5652H17.3781C17.3781 12.5618 17.3781 12.5584 17.3781 12.555C17.3781 12.5516 17.3781 12.5482 17.3781 12.5448C17.3781 12.5414 17.3781 12.5381 17.3781 12.5347C17.3781 12.5313 17.3781 12.5279 17.3781 12.5245C17.3781 12.5211 17.3781 12.5177 17.3781 12.5143C17.3781 12.5109 17.3781 12.5075 17.3781 12.5041C17.3781 12.5007 17.3781 12.4973 17.3781 12.4939C17.3781 12.4905 17.3781 12.4871 17.3781 12.4837C17.3781 12.4803 17.3781 12.4769 17.3781 12.4735C17.3781 12.4701 17.3781 12.4667 17.3781 12.4633C17.3781 12.4599 17.3781 12.4565 17.3781 12.4531C17.3781 12.4497 17.3781 12.4463 17.3781 12.4429C17.3781 12.4395 17.3781 12.4361 17.3781 12.4327C17.3781 12.4293 17.3781 12.4259 17.3781 12.4225C17.3781 12.4191 17.3781 12.4157 17.3781 12.4123C17.3781 12.4089 17.3781 12.4055 17.3781 12.4021C17.3781 12.3987 17.3781 12.3952 17.3781 12.3918C17.3781 12.3884 17.3781 12.385 17.3781 12.3816C17.3781 12.3782 17.3781 12.3748 17.3781 12.3714C17.3781 12.368 17.3781 12.3645 17.3781 12.3611C17.3781 12.3577 17.3781 12.3543 17.3781 12.3509C17.3781 12.3475 17.3781 12.3441 17.3781 12.3406C17.3781 12.3372 17.3781 12.3338 17.3781 12.3304C17.3781 12.327 17.3781 12.3236 17.3781 12.3201C17.3781 12.3167 17.3781 12.3133 17.3781 12.3099C17.3781 12.3065 17.3781 12.303 17.3781 12.2996C17.3781 12.2962 17.3781 12.2928 17.3781 12.2894C17.3781 12.2859 17.3781 12.2825 17.3781 12.2791C17.3781 12.2757 17.3781 12.2722 17.3781 12.2688C17.3781 12.2654 17.3781 12.262 17.3781 12.2585C17.3781 12.2551 17.3781 12.2517 17.3781 12.2483C17.3781 12.2448 17.3781 12.2414 17.3781 12.238C17.3781 12.2346 17.3781 12.2311 17.3781 12.2277C17.3781 12.2243 17.3781 12.2208 17.3781 12.2174C17.3781 12.214 17.3781 12.2106 17.3781 12.2071C17.3781 12.2037 17.3781 12.2003 17.3781 12.1968C17.3781 12.1934 17.3781 12.19 17.3781 12.1865C17.3781 12.1831 17.3781 12.1797 17.3781 12.1762C17.3781 12.1728 17.3781 12.1694 17.3781 12.1659C17.3781 12.1625 17.3781 12.1591 17.3781 12.1556C17.3781 12.1522 17.3781 12.1487 17.3781 12.1453C17.3781 12.1419 17.3781 12.1384 17.3781 12.135C17.3781 12.1316 17.3781 12.1281 17.3781 12.1247C17.3781 12.1212 17.3781 12.1178 17.3781 12.1144C17.3781 12.1109 17.3781 12.1075 17.3781 12.104C17.3781 12.1006 17.3781 12.0972 17.3781 12.0937C17.3781 12.0903 17.3781 12.0868 17.3781 12.0834C17.3781 12.0799 17.3781 12.0765 17.3781 12.073C17.3781 12.0696 17.3781 12.0662 17.3781 12.0627C17.3781 12.0593 17.3781 12.0558 17.3781 12.0524C17.3781 12.0489 17.3781 12.0455 17.3781 12.042C17.3781 12.0386 17.3781 12.0351 17.3781 12.0317C17.3781 12.0282 17.3781 12.0248 17.3781 12.0213C17.3781 12.0179 17.3781 12.0144 17.3781 12.011C17.3781 12.0075 17.3781 12.0041 17.3781 12.0006C17.3781 11.9972 17.3781 11.9937 17.3781 11.9903C17.3781 11.9868 17.3781 11.9834 17.3781 11.9799C17.3781 11.9765 17.3781 11.973 17.3781 11.9696C17.3781 11.9661 17.3781 11.9627 17.3781 11.9592C17.3781 11.9558 17.3781 11.9523 17.3781 11.9488C17.3781 11.9454 17.3781 11.9419 17.3781 11.9385C17.3781 11.935 17.3781 11.9316 17.3781 11.9281C17.3781 11.9246 17.3781 11.9212 17.3781 11.9177C17.3781 11.9143 17.3781 11.9108 17.3781 11.9074C17.3781 11.9039 17.3781 11.9004 17.3781 11.897C17.3781 11.8935 17.3781 11.8901 17.3781 11.8866C17.3781 11.8831 17.3781 11.8797 17.3781 11.8762C17.3781 11.8727 17.3781 11.8693 17.3781 11.8658C17.3781 11.8624 17.3781 11.8589 17.3781 11.8554C17.3781 11.852 17.3781 11.8485 17.3781 11.845C17.3781 11.8416 17.3781 11.8381 17.3781 11.8346C17.3781 11.8312 17.3781 11.8277 17.3781 11.8243C17.3781 11.8208 17.3781 11.8173 17.3781 11.8139C17.3781 11.8104 17.3781 11.8069 17.3781 11.8035C17.3781 11.8 17.3781 11.7965 17.3781 11.7931C17.3781 11.7896 17.3781 11.7861 17.3781 11.7826C17.3781 11.7792 17.3781 11.7757 17.3781 11.7722C17.3781 11.7688 17.3781 11.7653 17.3781 11.7618C17.3781 11.7584 17.3781 11.7549 17.3781 11.7514C17.3781 11.7479 17.3781 11.7445 17.3781 11.741C17.3781 11.7375 17.3781 11.7341 17.3781 11.7306C17.3781 11.7271 17.3781 11.7236 17.3781 11.7202C17.3781 11.7167 17.3781 11.7132 17.3781 11.7098C17.3781 11.7063 17.3781 11.7028 17.3781 11.6993C17.3781 11.6959 17.3781 11.6924 17.3781 11.6889C17.3781 11.6854 17.3781 11.682 17.3781 11.6785C17.3781 11.675 17.3781 11.6715 17.3781 11.6681C17.3781 11.6646 17.3781 11.6611 17.3781 11.6576C17.3781 11.6541 17.3781 11.6507 17.3781 11.6472C17.3781 11.6437 17.3781 11.6402 17.3781 11.6368C17.3781 11.6333 17.3781 11.6298 17.3781 11.6263C17.3781 11.6228 17.3781 11.6194 17.3781 11.6159C17.3781 11.6124 17.3781 11.6089 17.3781 11.6054C17.3781 11.602 17.3781 11.5985 17.3781 11.595C17.3781 11.5915 17.3781 11.588 17.3781 11.5846C17.3781 11.5811 17.3781 11.5776 17.3781 11.5741C17.3781 11.5706 17.3781 11.5671 17.3781 11.5637C17.3781 11.5602 17.3781 11.5567 17.3781 11.5532C17.3781 11.5497 17.3781 11.5463 17.3781 11.5428C17.3781 11.5393 17.3781 11.5358 17.3781 11.5323C17.3781 11.5288 17.3781 11.5253 17.3781 11.5219C17.3781 11.5184 17.3781 11.5149 17.3781 11.5114C17.3781 11.5079 17.3781 11.5044 17.3781 11.501C17.3781 11.4975 17.3781 11.494 17.3781 11.4905C17.3781 11.487 17.3781 11.4835 17.3781 11.48C17.3781 11.4765 17.3781 11.4731 17.3781 11.4696C17.3781 11.4661 17.3781 11.4626 17.3781 11.4591C17.3781 11.4556 17.3781 11.4521 17.3781 11.4486C17.3781 11.4452 17.3781 11.4417 17.3781 11.4382C17.3781 11.4347 17.3781 11.4312 17.3781 11.4277C17.3781 11.4242 17.3781 11.4207 17.3781 11.4172C17.3781 11.4138 17.3781 11.4103 17.3781 11.4068C17.3781 11.4033 17.3781 11.3998 17.3781 11.3963C17.3781 11.3928 17.3781 11.3893 17.3781 11.3858C17.3781 11.3823 17.3781 11.3789 17.3781 11.3754C17.3781 11.3719 17.3781 11.3684 17.3781 11.3649C17.3781 11.3614 17.3781 11.3579 17.3781 11.3544C17.3781 11.3509 17.3781 11.3474 17.3781 11.3439C17.3781 11.3404 17.3781 11.337 17.3781 11.3335C17.3781 11.33 17.3781 11.3265 17.3781 11.323C17.3781 11.3195 17.3781 11.316 17.3781 11.3125C17.3781 11.309 17.3781 11.3055 17.3781 11.302C17.3781 11.2985 17.3781 11.295 17.3781 11.2915C17.3781 11.288 17.3781 11.2846 17.3781 11.2811C17.3781 11.2776 17.3781 11.2741 17.3781 11.2706C17.3781 11.2671 17.3781 11.2636 17.3781 11.2601C17.3781 11.2566 17.3781 11.2531 17.3781 11.2496C17.3781 11.2461 17.3781 11.2426 17.3781 11.2391C17.3781 11.2356 17.3781 11.2321 17.3781 11.2286C17.3781 11.2251 17.3781 11.2216 17.3781 11.2181C17.3781 11.2146 17.3781 11.2111 17.3781 11.2077C17.3781 11.2042 17.3781 11.2007 17.3781 11.1972C17.3781 11.1937 17.3781 11.1902 17.3781 11.1867C17.3781 11.1832 17.3781 11.1797 17.3781 11.1762C17.3781 11.1727 17.3781 11.1692 17.3781 11.1657C17.3781 11.1622 17.3781 11.1587 17.3781 11.1552C17.3781 11.1517 17.3781 11.1482 17.3781 11.1447C17.3781 11.1412 17.3781 11.1377 17.3781 11.1342C17.3781 11.1307 17.3781 11.1272 17.3781 11.1237C17.3781 11.1202 17.3781 11.1167 17.3781 11.1132C17.3781 11.1097 17.3781 11.1062 17.3781 11.1027C17.3781 11.0992 17.3781 11.0957 17.3781 11.0922C17.3781 11.0887 17.3781 11.0852 17.3781 11.0817C17.3781 11.0782 17.3781 11.0747 17.3781 11.0712C17.3781 11.0677 17.3781 11.0642 17.3781 11.0607C17.3781 11.0572 17.3781 11.0537 17.3781 11.0502C17.3781 11.0467 17.3781 11.0432 17.3781 11.0397C17.3781 11.0362 17.3781 11.0327 17.3781 11.0292C17.3781 11.0257 17.3781 11.0222 17.3781 11.0187C17.3781 11.0152 17.3781 11.0117 17.3781 11.0082C17.3781 11.0047 17.3781 11.0012 17.3781 10.9977C17.3781 10.9942 17.3781 10.9907 17.3781 10.9872C17.3781 10.9837 17.3781 10.9802 17.3781 10.9767C17.3781 10.9732 17.3781 10.9697 17.3781 10.9662C17.3781 10.9627 17.3781 10.9592 17.3781 10.9557C17.3781 10.9522 17.3781 10.9487 17.3781 10.9452C17.3781 10.9417 17.3781 10.9382 17.3781 10.9347C17.3781 10.9312 17.3781 10.9277 17.3781 10.9242C17.3781 10.9207 17.3781 10.9172 17.3781 10.9137C17.3781 10.9102 17.3781 10.9067 17.3781 10.9032C17.3781 10.8997 17.3781 10.8962 17.3781 10.8927C17.3781 10.8892 17.3781 10.8857 17.3781 10.8822C17.3781 10.8787 17.3781 10.8752 17.3781 10.8717C17.3781 10.8682 17.3781 10.8647 17.3781 10.8612C17.3781 10.8577 17.3781 10.8542 17.3781 10.8507C17.3781 10.8472 17.3781 10.8437 17.3781 10.8402C17.3781 10.8367 17.3781 10.8332 17.3781 10.8297C17.3781 10.8262 17.3781 10.8227 17.3781 10.8192C17.3781 10.8157 17.3781 10.8122 17.3781 10.8087C17.3781 10.8052 17.3781 10.8017 17.3781 10.7982C17.3781 10.7947 17.3781 10.7912 17.3781 10.7877C17.3781 10.7842 17.3781 10.7807 17.3781 10.7772C17.3781 10.7737 17.3781 10.7702 17.3781 10.7667C17.3781 10.7632 17.3781 10.7597 17.3781 10.7562C17.3781 10.7527 17.3781 10.7492 17.3781 10.7457C17.3781 10.7422 17.3781 10.7387 17.3781 10.7352C17.3781 10.7317 17.3781 10.7282 17.3781 10.7247C17.3781 10.7212 17.3781 10.7177 17.3781 10.7142C17.3781 10.7107 17.3781 10.7072 17.3781 10.7037C17.3781 10.7002 17.3781 10.6967 17.3781 10.6932C17.3781 10.6897 17.3781 10.6862 17.3781 10.6827C17.3781 10.6792 17.3781 10.6757 17.3781 10.6722C17.3781 10.6687 17.3781 10.6652 17.3781 10.6617C17.3781 10.6582 17.3781 10.6547 17.3781 10.6512C17.3781 10.6477 17.3781 10.6442 17.3781 10.6407C17.3781 10.6372 17.3781 10.6337 17.3781 10.6302C17.3781 10.6267 17.3781 10.6232 17.3781 10.6197C17.3781 10.6162 17.3781 10.6127 17.3781 10.6092C17.3781 10.6057 17.3781 10.6022 17.3781 10.5987C17.3781 10.5952 17.3781 10.5917 17.3781 10.5882C17.3781 10.5847 17.3781 10.5812 17.3781 10.5777C17.3781 10.5742 17.3781 10.5708 17.3781 10.5673C17.3781 10.5638 17.3781 10.5603 17.3781 10.5568C17.3781 10.5533 17.3781 10.5498 17.3781 10.5463C17.3781 10.5428 17.3781 10.5393 17.3781 10.5358C17.3781 10.5323 17.3781 10.5288 17.3781 10.5253C17.3781 10.5218 17.3781 10.5183 17.3781 10.5148C17.3781 10.5113 17.3781 10.5078 17.3781 10.5043C17.3781 10.5008 17.3781 10.4973 17.3781 10.4938C17.3781 10.4903 17.3781 10.4868 17.3781 10.4834C17.3781 10.4799 17.3781 10.4764 17.3781 10.4729C17.3781 10.4694 17.3781 10.4659 17.3781 10.4624C17.3781 10.4589 17.3781 10.4554 17.3781 10.4519C17.3781 10.4484 17.3781 10.4449 17.3781 10.4414C17.3781 10.4379 17.3781 10.4344 17.3781 10.4309C17.3781 10.4275 17.3781 10.424 17.3781 10.4205C17.3781 10.417 17.3781 10.4135 17.3781 10.41C17.3781 10.4065 17.3781 10.403 17.3781 10.3995C17.3781 10.396 17.3781 10.3925 17.3781 10.389C17.3781 10.3856 17.3781 10.3821 17.3781 10.3786C17.3781 10.3751 17.3781 10.3716 17.3781 10.3681C17.3781 10.3646 17.3781 10.3611 17.3781 10.3576C17.3781 10.3541 17.3781 10.3506 17.3781 10.3472C17.3781 10.3437 17.3781 10.3402 17.3781 10.3367C17.3781 10.3332 17.3781 10.3297 17.3781 10.3262C17.3781 10.3227 17.3781 10.3192 17.3781 10.3158C17.3781 10.3123 17.3781 10.3088 17.3781 10.3053C17.3781 10.3018 17.3781 10.2983 17.3781 10.2948C17.3781 10.2913 17.3781 10.2879 17.3781 10.2844C17.3781 10.2809 17.3781 10.2774 17.3781 10.2739C17.3781 10.2704 17.3781 10.2669 17.3781 10.2635C17.3781 10.26 17.3781 10.2565 17.3781 10.253C17.3781 10.2495 17.3781 10.246 17.3781 10.2425C17.3781 10.2391 17.3781 10.2356 17.3781 10.2321C17.3781 10.2286 17.3781 10.2251 17.3781 10.2216C17.3781 10.2181 17.3781 10.2147 17.3781 10.2112C17.3781 10.2077 17.3781 10.2042 17.3781 10.2007C17.3781 10.1973 17.3781 10.1938 17.3781 10.1903C17.3781 10.1868 17.3781 10.1833 17.3781 10.1798C17.3781 10.1764 17.3781 10.1729 17.3781 10.1694C17.3781 10.1659 17.3781 10.1624 17.3781 10.159C17.3781 10.1555 17.3781 10.152 17.3781 10.1485C17.3781 10.145 17.3781 10.1416 17.3781 10.1381C17.3781 10.1346 17.3781 10.1311 17.3781 10.1276C17.3781 10.1242 17.3781 10.1207 17.3781 10.1172C17.3781 10.1137 17.3781 10.1103 17.3781 10.1068C17.3781 10.1033 17.3781 10.0998 17.3781 10.0963C17.3781 10.0929 17.3781 10.0894 17.3781 10.0859C17.3781 10.0824 17.3781 10.079 17.3781 10.0755C17.3781 10.072 17.3781 10.0685 17.3781 10.0651C17.3781 10.0616 17.3781 10.0581 17.3781 10.0546C17.3781 10.0512 17.3781 10.0477 17.3781 10.0442C17.3781 10.0407 17.3781 10.0373 17.3781 10.0338C17.3781 10.0303 17.3781 10.0269 17.3781 10.0234C17.3781 10.0199 17.3781 10.0164 17.3781 10.013C17.3781 10.0095 17.3781 10.006 17.3781 10.0026C17.3781 9.99909 17.3781 9.99562 17.3781 9.99215C17.3781 9.98868 17.3781 9.98521 17.3781 9.98174C17.3781 9.97827 17.3781 9.9748 17.3781 9.97133C17.3781 9.96787 17.3781 9.9644 17.3781 9.96093C17.3781 9.95746 17.3781 9.954 17.3781 9.95053C17.3781 9.94706 17.3781 9.9436 17.3781 9.94013C17.3781 9.93666 17.3781 9.9332 17.3781 9.92973C17.3781 9.92627 17.3781 9.9228 17.3781 9.91934C17.3781 9.91587 17.3781 9.91241 17.3781 9.90895C17.3781 9.90548 17.3781 9.90202 17.3781 9.89856C17.3781 9.8951 17.3781 9.89163 17.3781 9.88817C17.3781 9.88471 17.3781 9.88125 17.3781 9.87779C17.3781 9.87433 17.3781 9.87086 17.3781 9.8674C17.3781 9.86394 17.3781 9.86048 17.3781 9.85702C17.3781 9.85357 17.3781 9.85011 17.3781 9.84665C17.3781 9.84319 17.3781 9.83973 17.3781 9.83627C17.3781 9.83282 17.3781 9.82936 17.3781 9.8259C17.3781 9.82244 17.3781 9.81899 17.3781 9.81553C17.3781 9.81208 17.3781 9.80862 17.3781 9.80517C17.3781 9.80171 17.3781 9.79826 17.3781 9.7948C17.3781 9.79135 17.3781 9.78789 17.3781 9.78444C17.3781 9.78099 17.3781 9.77753 17.3781 9.77408C17.3781 9.77063 17.3781 9.76718 17.3781 9.76373C17.3781 9.76027 17.3781 9.75682 17.3781 9.75337C17.3781 9.74992 17.3781 9.74647 17.3781 9.74302C17.3781 9.73957 17.3781 9.73612 17.3781 9.73268C17.3781 9.72923 17.3781 9.72578 17.3781 9.72233C17.3781 9.71888 17.3781 9.71544 17.3781 9.71199C17.3781 9.70854 17.3781 9.7051 17.3781 9.70165C17.3781 9.6982 17.3781 9.69476 17.3781 9.69131C17.3781 9.68787 17.3781 9.68443 17.3781 9.68098C17.3781 9.67754 17.3781 9.67409 17.3781 9.67065C17.3781 9.66721 17.3781 9.66377 17.3781 9.66032C17.3781 9.65688 17.3781 9.65344 17.3781 9.65C17.3781 9.64656 17.3781 9.64312 17.3781 9.63968C17.3781 9.63624 17.3781 9.6328 17.3781 9.62936C17.3781 9.62592 17.3781 9.62248 17.3781 9.61905C17.3781 9.61561 17.3781 9.61217 17.3781 9.60874C17.3781 9.6053 17.3781 9.60186 17.3781 9.59843C17.3781 9.59499 17.3781 9.59156 17.3781 9.58812C17.3781 9.58469 17.3781 9.58125 17.3781 9.57782C17.3781 9.57439 17.3781 9.57095 17.3781 9.56752C17.3781 9.56409 17.3781 9.56066 17.3781 9.55723C17.3781 9.55379 17.3781 9.55036 17.3781 9.54693C17.3781 9.5435 17.3781 9.54007 17.3781 9.53664C17.3781 9.53322 17.3781 9.52979 17.3781 9.52636C17.3781 9.52293 17.3781 9.5195 17.3781 9.51608C17.3781 9.51265 17.3781 9.50922 17.3781 9.5058C17.3781 9.50237 17.3781 9.49895 17.3781 9.49552C17.3781 9.4921 17.3781 9.48867 17.3781 9.48525C17.3781 9.48183 17.3781 9.4784 17.3781 9.47498C17.3781 9.47156 17.3781 9.46814 17.3781 9.46472C17.3781 9.4613 17.3781 9.45788 17.3781 9.45446C17.3781 9.45104 17.3781 9.44762 17.3781 9.4442C17.3781 9.44078 17.3781 9.43736 17.3781 9.43394C17.3781 9.43053 17.3781 9.42711 17.3781 9.42369C17.3781 9.42028 17.3781 9.41686 17.3781 9.41345C17.3781 9.41003 17.3781 9.40662 17.3781 9.4032C17.3781 9.39979 17.3781 9.39638 17.3781 9.39296C17.3781 9.38955 17.3781 9.38614 17.3781 9.38273C17.3781 9.37932 17.3781 9.3759 17.3781 9.37249C17.3781 9.36908 17.3781 9.36567 17.3781 9.36227C17.3781 9.35886 17.3781 9.35545 17.3781 9.35204C17.3781 9.34863 17.3781 9.34523 17.3781 9.34182C17.3781 9.33841 17.3781 9.33501 17.3781 9.3316C17.3781 9.3282 17.3781 9.32479 17.3781 9.32139C17.3781 9.31799 17.3781 9.31458 17.3781 9.31118C17.3781 9.30778 17.3781 9.30438 17.3781 9.30097C17.3781 9.29757 17.3781 9.29417 17.3781 9.29077C17.3781 9.28737 17.3781 9.28397 17.3781 9.28058C17.3781 9.27718 17.3781 9.27378 17.3781 9.27038C17.3781 9.26698 17.3781 9.26359 17.3781 9.26019C17.3781 9.2568 17.3781 9.2534 17.3781 9.25001C17.3781 9.24661 17.3781 9.24322 17.3781 9.23982C17.3781 9.23643 17.3781 9.23304 17.3781 9.22965C17.3781 9.22626 17.3781 9.22286 17.3781 9.21947C17.3781 9.21608 17.3781 9.21269 17.3781 9.2093C17.3781 9.20592 17.3781 9.20253 17.3781 9.19914C17.3781 9.19575 17.3781 9.19237 17.3781 9.18898C17.3781 9.18559 17.3781 9.18221 17.3781 9.17882C17.3781 9.17544 17.3781 9.17205 17.3781 9.16867C17.3781 9.16529 17.3781 9.1619 17.3781 9.15852C17.3781 9.15514 17.3781 9.15176 17.3781 9.14838C17.3781 9.145 17.3781 9.14162 17.3781 9.13824C17.3781 9.13486 17.3781 9.13148 17.3781 9.1281C17.3781 9.12473 17.3781 9.12135 17.3781 9.11797C17.3781 9.1146 17.3781 9.11122 17.3781 9.10785C17.3781 9.10447 17.3781 9.1011 17.3781 9.09772C17.3781 9.09435 17.3781 9.09098 17.3781 9.08761C17.3781 9.08424 17.3781 9.08086 17.3781 9.07749C17.3781 9.07412 17.3781 9.07075 17.3781 9.06739C17.3781 9.06402 17.3781 9.06065 17.3781 9.05728C17.3781 9.05391 17.3781 9.05055 17.3781 9.04718C17.3781 9.04382 17.3781 9.04045 17.3781 9.03709C17.3781 9.03372 17.3781 9.03036 17.3781 9.027C17.3781 9.02363 17.3781 9.02027 17.3781 9.01691C17.3781 9.01355 17.3781 9.01019 17.3781 9.00683C17.3781 9.00347 17.3781 9.00011 17.3781 8.99675C17.3781 8.9934 17.3781 8.99004 17.3781 8.98668C17.3781 8.98333 17.3781 8.97997 17.3781 8.97662C17.3781 8.97326 17.3781 8.96991 17.3781 8.96655C17.3781 8.9632 17.3781 8.95985 17.3781 8.9565C17.3781 8.95315 17.3781 8.94979 17.3781 8.94644C17.3781 8.94309 17.3781 8.93975 17.3781 8.9364C17.3781 8.93305 17.3781 8.9297 17.3781 8.92635C17.3781 8.92301 17.3781 8.91966 17.3781 8.91632C17.3781 8.91297 17.3781 8.90963 17.3781 8.90628C17.3781 8.90294 17.3781 8.8996 17.3781 8.89626C17.3781 8.89291 17.3781 8.88957 17.3781 8.88623C17.3781 8.88289 17.3781 8.87955 17.3781 8.87622C17.3781 8.87288 17.3781 8.86954 17.3781 8.8662C17.3781 8.86287 17.3781 8.85953 17.3781 8.85619C17.3781 8.85286 17.3781 8.84953 17.3781 8.84619C17.3781 8.84286 17.3781 8.83953 17.3781 8.83619C17.3781 8.83286 17.3781 8.82953 17.3781 8.8262C17.3781 8.82287 17.3781 8.81954 17.3781 8.81621C17.3781 8.81289 17.3781 8.80956 17.3781 8.80623C17.3781 8.80291 17.3781 8.79958 17.3781 8.79626C17.3781 8.79293 17.3781 8.78961 17.3781 8.78628C17.3781 8.78296 17.3781 8.77964 17.3781 8.77632C17.3781 8.773 17.3781 8.76968 17.3781 8.76636C17.3781 8.76304 17.3781 8.75972 17.3781 8.7564C17.3781 8.75308 17.3781 8.74976 17.3781 8.74645C17.3781 8.74313 17.3781 8.73982 17.3781 8.7365C17.3781 8.73319 17.3781 8.72988 17.3781 8.72656C17.3781 8.72325 17.3781 8.71994 17.3781 8.71663C17.3781 8.71332 17.3781 8.71001 17.3781 8.7067C17.3781 8.70339 17.3781 8.70008 17.3781 8.69678C17.3781 8.69347 17.3781 8.69016 17.3781 8.68686C17.3781 8.68355 17.3781 8.68025 17.3781 8.67695C17.3781 8.67364 17.3781 8.67034 17.3781 8.66704C17.3781 8.66374 17.3781 8.66044 17.3781 8.65714C17.3781 8.65384 17.3781 8.65054 17.3781 8.64724C17.3781 8.64394 17.3781 8.64065 17.3781 8.63735C17.3781 8.63406 17.3781 8.63076 17.3781 8.62747C17.3781 8.62417 17.3781 8.62088 17.3781 8.61759C17.3781 8.6143 17.3781 8.61101 17.3781 8.60772C17.3781 8.60443 17.3781 8.60114 17.3781 8.59785C17.3781 8.59456 17.3781 8.59127 17.3781 8.58799C17.3781 8.5847 17.3781 8.58141 17.3781 8.57813C17.3781 8.57485 17.3781 8.57156 17.3781 8.56828C17.3781 8.565 17.3781 8.56172 17.3781 8.55844C17.3781 8.55516 17.3781 8.55188 17.3781 8.5486C17.3781 8.54532 17.3781 8.54204 17.3781 8.53876C17.3781 8.53549 17.3781 8.53221 17.3781 8.52894C17.3781 8.52566 17.3781 8.52239 17.3781 8.51912C17.3781 8.51584 17.3781 8.51257 17.3781 8.5093C17.3781 8.50603 17.3781 8.50276 17.3781 8.49949C17.3781 8.49623 17.3781 8.49296 17.3781 8.48969C17.3781 8.48642 17.3781 8.48316 17.3781 8.47989C17.3781 8.47663 17.3781 8.47337 17.3781 8.4701C17.3781 8.46684 17.3781 8.46358 17.3781 8.46032C17.3781 8.45706 17.3781 8.4538 17.3781 8.45054C17.3781 8.44728 17.3781 8.44402 17.3781 8.44077C17.3781 8.43751 17.3781 8.43426 17.3781 8.431C17.3781 8.42775 17.3781 8.42449 17.3781 8.42124C17.3781 8.41799 17.3781 8.41474 17.3781 8.41149C17.3781 8.40824 17.3781 8.40499 17.3781 8.40174C17.3781 8.39849 17.3781 8.39525 17.3781 8.392C17.3781 8.38875 17.3781 8.38551 17.3781 8.38226C17.3781 8.37902 17.3781 8.37578 17.3781 8.37254C17.3781 8.36929 17.3781 8.36605 17.3781 8.36281C17.3781 8.35957 17.3781 8.35634 17.3781 8.3531C17.3781 8.34986 17.3781 8.34662 17.3781 8.34339C17.3781 8.34015 17.3781 8.33692 17.3781 8.33368C17.3781 8.33045 17.3781 8.32722 17.3781 8.32399C17.3781 8.32076 17.3781 8.31753 17.3781 8.3143C17.3781 8.31107 17.3781 8.30784 17.3781 8.30461C17.3781 8.30139 17.3781 8.29816 17.3781 8.29494C17.3781 8.29171 17.3781 8.28849 17.3781 8.28527C17.3781 8.28204 17.3781 8.27882 17.3781 8.2756C17.3781 8.27238 17.3781 8.26916 17.3781 8.26595C17.3781 8.26273 17.3781 8.25951 17.3781 8.25629C17.3781 8.25308 17.3781 8.24986 17.3781 8.24665C17.3781 8.24344 17.3781 8.24022 17.3781 8.23701C17.3781 8.2338 17.3781 8.23059 17.3781 8.22738C17.3781 8.22417 17.3781 8.22096 17.3781 8.21776C17.3781 8.21455 17.3781 8.21135 17.3781 8.20814C17.3781 8.20494 17.3781 8.20173 17.3781 8.19853C17.3781 8.19533 17.3781 8.19213 17.3781 8.18893C17.3781 8.18573 17.3781 8.18253 17.3781 8.17933C17.3781 8.17613 17.3781 8.17294 17.3781 8.16974C17.3781 8.16654 17.3781 8.16335 17.3781 8.16016C17.3781 8.15696 17.3781 8.15377 17.3781 8.15058C17.3781 8.14739 17.3781 8.1442 17.3781 8.14101C17.3781 8.13782 17.3781 8.13464 17.3781 8.13145C17.3781 8.12826 17.3781 8.12508 17.3781 8.12189C17.3781 8.11871 17.3781 8.11553 17.3781 8.11235C17.3781 8.10916 17.3781 8.10598 17.3781 8.1028C17.3781 8.09963 17.3781 8.09645 17.3781 8.09327C17.3781 8.09009 17.3781 8.08692 17.3781 8.08374C17.3781 8.08057 17.3781 8.0774 17.3781 8.07422C17.3781 8.07105 17.3781 8.06788 17.3781 8.06471C17.3781 8.06154 17.3781 8.05837 17.3781 8.05521C17.3781 8.05204 17.3781 8.04887 17.3781 8.04571C17.3781 8.04254 17.3781 8.03938 17.3781 8.03622C17.3781 8.03305 17.3781 8.02989 17.3781 8.02673C17.3781 8.02357 17.3781 8.02041 17.3781 8.01726C17.3781 8.0141 17.3781 8.01094 17.3781 8.00779C17.3781 8.00463 17.3781 8.00148 17.3781 7.99832C17.3781 7.99517 17.3781 7.99202 17.3781 7.98887C17.3781 7.98572 17.3781 7.98257 17.3781 7.97942C17.3781 7.97627 17.3781 7.97313 17.3781 7.96998C17.3781 7.96684 17.3781 7.96369 17.3781 7.96055C17.3781 7.95741 17.3781 7.95427 17.3781 7.95113C17.3781 7.94798 17.3781 7.94485 17.3781 7.94171C17.3781 7.93857 17.3781 7.93543 17.3781 7.9323C17.3781 7.92916 17.3781 7.92603 17.3781 7.9229C17.3781 7.91976 17.3781 7.91663 17.3781 7.9135C17.3781 7.91037 17.3781 7.90724 17.3781 7.90411C17.3781 7.90099 17.3781 7.89786 17.3781 7.89473C17.3781 7.89161 17.3781 7.88848 17.3781 7.88536C17.3781 7.88224 17.3781 7.87912 17.3781 7.876C17.3781 7.87288 17.3781 7.86976 17.3781 7.86664C17.3781 7.86352 17.3781 7.86041 17.3781 7.85729C17.3781 7.85418 17.3781 7.85106 17.3781 7.84795C17.3781 7.84484 17.3781 7.84173 17.3781 7.83862C17.3781 7.83551 17.3781 7.8324 17.3781 7.82929C17.3781 7.82618 17.3781 7.82308 17.3781 7.81997C17.3781 7.81687 17.3781 7.81377 17.3781 7.81066C17.3781 7.80756 17.3781 7.80446 17.3781 7.80136C17.3781 7.79826 17.3781 7.79516 17.3781 7.79207C17.3781 7.78897 17.3781 7.78588 17.3781 7.78278C17.3781 7.77969 17.3781 7.7766 17.3781 7.7735C17.3781 7.77041 17.3781 7.76732 17.3781 7.76423C17.3781 7.76114 17.3781 7.75806 17.3781 7.75497C17.3781 7.75189 17.3781 7.7488 17.3781 7.74572C17.3781 7.74263 17.3781 7.73955 17.3781 7.73647C17.3781 7.73339 17.3781 7.73031 17.3781 7.72723C17.3781 7.72415 17.3781 7.72108 17.3781 7.718C17.3781 7.71493 17.3781 7.71185 17.3781 7.70878C17.3781 7.70571 17.3781 7.70264 17.3781 7.69957C17.3781 7.6965 17.3781 7.69343 17.3781 7.69036C17.3781 7.68729 17.3781 7.68423 17.3781 7.68116C17.3781 7.6781 17.3781 7.67504 17.3781 7.67198C17.3781 7.66891 17.3781 7.66585 17.3781 7.66279C17.3781 7.65974 17.3781 7.65668 17.3781 7.65362C17.3781 7.65057 17.3781 7.64751 17.3781 7.64446C17.3781 7.6414 17.3781 7.63835 17.3781 7.6353C17.3781 7.63225 17.3781 7.6292 17.3781 7.62615C17.3781 7.62311 17.3781 7.62006 17.3781 7.61702C17.3781 7.61397 17.3781 7.61093 17.3781 7.60788C17.3781 7.60484 17.3781 7.6018 17.3781 7.59876C17.3781 7.59572 17.3781 7.59269 17.3781 7.58965C17.3781 7.58661 17.3781 7.58358 17.3781 7.58054C17.3781 7.57751 17.3781 7.57448 17.3781 7.57145C17.3781 7.56842 17.3781 7.56539 17.3781 7.56236C17.3781 7.55933 17.3781 7.5563 17.3781 7.55328C17.3781 7.55025 17.3781 7.54723 17.3781 7.54421C17.3781 7.54119 17.3781 7.53817 17.3781 7.53515C17.3781 7.53213 17.3781 7.52911 17.3781 7.52609C17.3781 7.52308 17.3781 7.52006 17.3781 7.51705C17.3781 7.51403 17.3781 7.51102 17.3781 7.50801C17.3781 7.505 17.3781 7.50199 17.3781 7.49898C17.3781 7.49598 17.3781 7.49297 17.3781 7.48996C17.3781 7.48696 17.3781 7.48396 17.3781 7.48095C17.3781 7.47795 17.3781 7.47495 17.3781 7.47195C17.3781 7.46895 17.3781 7.46596 17.3781 7.46296C17.3781 7.45996 17.3781 7.45697 17.3781 7.45398C17.3781 7.45098 17.3781 7.44799 17.3781 7.445C17.3781 7.44201 17.3781 7.43902 17.3781 7.43604C17.3781 7.43305 17.3781 7.43006 17.3781 7.42708C17.3781 7.4241 17.3781 7.42111 17.3781 7.41813C17.3781 7.41515 17.3781 7.41217 17.3781 7.40919C17.3781 7.40621 17.3781 7.40324 17.3781 7.40026C17.3781 7.39729 17.3781 7.39431 17.3781 7.39134H15.8781ZM11.2937 8.43804C11.8716 8.35487 12.389 8.02176 12.8662 7.71317C13.381 7.38029 13.9849 6.97467 14.8493 6.53954L14.1748 5.19972C13.2255 5.67762 12.553 6.12944 12.0517 6.45355C11.5129 6.80194 11.2746 6.92534 11.08 6.95333L11.2937 8.43804ZM13.8867 6.28371C14.6315 7.40837 15.7957 7.81198 16.2909 8.06125L16.9653 6.72144C16.2518 6.36225 15.6018 6.15694 15.1374 5.45555L13.8867 6.28371Z" fill="white"/>
<path d="M6.04706 11.9562C5.37925 11.9562 4.83789 11.4112 4.83789 10.7389C4.83789 10.0665 5.37925 9.52148 6.04706 9.52148" stroke="white" stroke-width="1.5"/>
<path d="M16.9305 9.52205C17.5983 9.52205 18.1396 10.0671 18.1396 10.7394C18.1396 11.4118 17.5983 11.9568 16.9305 11.9568" stroke="white" stroke-width="1.5"/>
<path d="M18.0594 10.1303C18.0594 7.48487 18.6589 4.34777 16.5608 3.1304C15.3618 1.30434 13.1966 1 11.4653 1C10.0076 1 8.06095 1.41283 6.96931 2.52171M4.87118 10.1303C4.87118 7.95165 4.57151 6.17383 5.77038 4.04343" stroke="white" stroke-width="1.5" stroke-linecap="round" stroke-linejoin="round"/>
<path d="M9.04166 18.7418C9.42737 18.5908 9.61762 18.1557 9.46661 17.77C9.31559 17.3843 8.8805 17.1941 8.49479 17.3451L9.04166 18.7418ZM11.5267 29.7498C11.9409 29.7498 12.2767 29.414 12.2767 28.9998C12.2767 28.5856 11.9409 28.2498 11.5267 28.2498V29.7498ZM4.29926 19.7932L4.02583 19.0948L4.29926 19.7932ZM4.5727 20.4916L9.04166 18.7418L8.49479 17.3451L4.02583 19.0948L4.5727 20.4916ZM11.5267 28.2498H3.74712V29.7498H11.5267V28.2498ZM2.53157 26.7084L3.81287 21.3641L2.35421 21.0144L1.07291 26.3586L2.53157 26.7084ZM3.74712 28.2498C2.93889 28.2498 2.34313 27.4943 2.53157 26.7084L1.07291 26.3586C0.658347 28.0878 1.96901 29.7498 3.74712 29.7498V28.2498ZM4.02583 19.0948C3.18821 19.4228 2.56393 20.1396 2.35421 21.0144L3.81287 21.3641C3.9082 20.9665 4.19196 20.6406 4.5727 20.4916L4.02583 19.0948Z" fill="white"/>
<path d="M14.21 18.0435L15.7646 18.6521" stroke="white" stroke-width="1.5" stroke-linecap="round"/>
<line x1="5.58789" y1="24.8799" x2="5.58789" y2="28.2494" stroke="white" stroke-width="1.5" stroke-linecap="round"/>
<path d="M4.89551 25.7153L2.18388 25.7153" stroke="white" stroke-width="1.5" stroke-linecap="round"/>
<path d="M9.82129 16.2175C9.82129 15.8033 9.4855 15.4675 9.07129 15.4675C8.65708 15.4675 8.32129 15.8033 8.32129 16.2175H9.82129ZM14.658 16.2175C14.658 15.8033 14.3222 15.4675 13.908 15.4675C13.4937 15.4675 13.158 15.8033 13.158 16.2175H14.658ZM12.0942 20.6196C12.5084 20.6196 12.8442 20.2839 12.8442 19.8696C12.8442 19.4554 12.5084 19.1196 12.0942 19.1196V20.6196ZM13.158 18.6523C13.158 19.0665 13.4937 19.4023 13.908 19.4023C14.3222 19.4023 14.658 19.0665 14.658 18.6523H13.158ZM9.82129 17.8696V16.2175H8.32129V17.8696H9.82129ZM12.0942 19.1196H11.0713V20.6196H12.0942V19.1196ZM13.158 16.2175V18.6523H14.658V16.2175H13.158ZM8.32129 17.8696C8.32129 19.3884 9.55251 20.6196 11.0713 20.6196V19.1196C10.3809 19.1196 9.82129 18.56 9.82129 17.8696H8.32129Z" fill="white"/>
</svg>
