<svg width="18" height="20" viewBox="0 0 18 20" fill="none" xmlns="http://www.w3.org/2000/svg">
<path d="M8.64746 10.6672C10.0619 10.6672 11.4187 10.1052 12.4189 9.10496C13.4192 8.10473 13.981 6.74823 13.981 5.3335C13.981 3.91904 13.4191 2.56249 12.4189 1.56226C11.4187 0.561801 10.062 0 8.64746 0C7.23295 0 5.87624 0.561856 4.876 1.56226C3.87577 2.56249 3.31396 3.91899 3.31396 5.3335C3.31547 6.74757 3.87797 8.10324 4.87793 9.1032C5.87772 10.103 7.23339 10.6655 8.64746 10.6672V10.6672ZM8.64746 1.23566V1.23545C9.73428 1.23545 10.7767 1.66737 11.5454 2.43582C12.314 3.20448 12.7457 4.24691 12.7457 5.33372C12.7457 6.42076 12.314 7.46319 11.5454 8.23163C10.7767 9.00029 9.73428 9.432 8.64746 9.432C7.56065 9.432 6.51822 9.00029 5.74956 8.23163C4.98089 7.46319 4.54919 6.42076 4.54919 5.33372C4.55005 4.24713 4.98198 3.20509 5.75038 2.43692C6.51883 1.66848 7.56081 1.23633 8.64741 1.2355L8.64746 1.23566Z" fill="black"/>
<path d="M8.64734 11.9487C3.87586 11.9487 0 15.2841 0 19.3822C0 19.7233 0.276605 19.9999 0.617612 19.9999C0.958845 19.9999 1.23544 19.7232 1.23544 19.3822C1.23544 15.9635 4.56461 13.1841 8.64745 13.1841C12.7303 13.1841 16.0595 15.9635 16.0595 19.3822C16.0595 19.7233 16.3361 19.9999 16.6773 19.9999C17.0183 19.9999 17.2949 19.7232 17.2949 19.3822C17.2949 15.284 13.419 11.9487 8.64756 11.9487H8.64734Z" fill="black"/>
</svg>
