<svg width="17" height="10" viewBox="0 0 17 10" fill="none" xmlns="http://www.w3.org/2000/svg">
<path d="M1.36477 0.658029C1.1759 0.456573 0.859486 0.446366 0.658029 0.635231C0.456573 0.824097 0.446366 1.14051 0.635231 1.34197L1.36477 0.658029ZM16.3648 1.34197C16.5536 1.14051 16.5434 0.824097 16.342 0.635231C16.1405 0.446366 15.8241 0.456573 15.6352 0.658029L16.3648 1.34197ZM7.77046 8.22183L7.40569 8.5638L7.77046 8.22183ZM9.22954 8.22183L9.59431 8.5638L9.22954 8.22183ZM0.635231 1.34197L7.40569 8.5638L8.13523 7.87986L1.36477 0.658029L0.635231 1.34197ZM9.59431 8.5638L16.3648 1.34197L15.6352 0.658029L8.86477 7.87986L9.59431 8.5638ZM7.40569 8.5638C7.9983 9.19592 9.0017 9.19592 9.59431 8.5638L8.86477 7.87986C8.66723 8.09056 8.33277 8.09056 8.13523 7.87986L7.40569 8.5638Z" fill="#273C83"/>
</svg>
