<svg width="22" height="25" viewBox="0 0 22 25" fill="none" xmlns="http://www.w3.org/2000/svg">
<path d="M21.0007 22.7009V23.2009H21.5007V22.7009H21.0007ZM10.2314 22.7009H9.73145V23.2009H10.2314V22.7009ZM20.5007 17.0216C20.5007 17.2977 20.7246 17.5216 21.0007 17.5216C21.2768 17.5216 21.5007 17.2977 21.5007 17.0216H20.5007ZM21.5007 18.8286C21.5007 18.5525 21.2768 18.3286 21.0007 18.3286C20.7246 18.3286 20.5007 18.5525 20.5007 18.8286H21.5007ZM11.2314 15.9727H20.0007V14.9727H11.2314V15.9727ZM21.0007 22.2009H10.2314V23.2009H21.0007V22.2009ZM10.7314 22.7009V16.4727H9.73145V22.7009H10.7314ZM20.5007 16.4727V17.0216H21.5007V16.4727H20.5007ZM20.5007 18.8286V22.7009H21.5007V18.8286H20.5007ZM20.0007 15.9727C20.2768 15.9727 20.5007 16.1965 20.5007 16.4727H21.5007C21.5007 15.6442 20.8291 14.9727 20.0007 14.9727V15.9727ZM11.2314 14.9727C10.403 14.9727 9.73145 15.6442 9.73145 16.4727H10.7314C10.7314 16.1965 10.9553 15.9727 11.2314 15.9727V14.9727Z" fill="#7D94DF"/>
<path d="M11.0001 24.7501C11.2762 24.7501 11.5001 24.5262 11.5001 24.2501C11.5001 23.9739 11.2762 23.7501 11.0001 23.7501V24.7501ZM12.5385 23.7501C12.2624 23.7501 12.0385 23.9739 12.0385 24.2501C12.0385 24.5262 12.2624 24.7501 12.5385 24.7501V23.7501ZM9.46683 23.2012H20.2256V22.2012H9.46683V23.2012ZM11.0001 23.7501H9.46683V24.7501H11.0001V23.7501ZM20.2257 23.7501H12.5385V24.7501H20.2257V23.7501ZM8.19238 23.4756C8.19238 24.1795 8.76297 24.7501 9.46683 24.7501V23.7501C9.31526 23.7501 9.19238 23.6272 9.19238 23.4756H8.19238ZM20.5001 23.4756C20.5001 23.6272 20.3772 23.7501 20.2257 23.7501V24.7501C20.9295 24.7501 21.5001 24.1795 21.5001 23.4756H20.5001ZM20.2256 23.2012C20.3772 23.2012 20.5001 23.324 20.5001 23.4756H21.5001C21.5001 22.7718 20.9295 22.2012 20.2256 22.2012V23.2012ZM9.46683 22.2012C8.76297 22.2012 8.19238 22.7718 8.19238 23.4756H9.19238C9.19238 23.324 9.31526 23.2012 9.46683 23.2012V22.2012Z" fill="#7D94DF"/>
<path d="M9.46147 6.17976L9.53269 6.67466L9.46147 6.17976ZM5.3584 7.21225L4.89839 7.01631C4.87199 7.07829 4.85839 7.14497 4.8584 7.21233L5.3584 7.21225ZM14.0769 5.92161H14.5769C14.5769 5.73272 14.4704 5.55994 14.3017 5.47501L14.0769 5.92161ZM12.282 4.63086L12.6989 4.35481C12.559 4.14364 12.2834 4.07037 12.0572 4.18425L12.282 4.63086ZM13.5769 10.3102C13.5769 10.415 13.4992 10.6657 13.2564 11.0361C13.0282 11.3841 12.6973 11.7724 12.3023 12.1355C11.491 12.8813 10.5195 13.4226 9.71754 13.4226V14.4226C10.8982 14.4226 12.1063 13.674 12.979 12.8717C13.4261 12.4608 13.8132 12.0106 14.0927 11.5844C14.3574 11.1806 14.5769 10.7217 14.5769 10.3102H13.5769ZM9.71754 13.4226C8.88283 13.4226 7.90335 12.9777 7.11685 12.3147C6.72937 11.9881 6.40785 11.624 6.18643 11.2649C5.96239 10.9016 5.85856 10.573 5.85856 10.3085H4.85856C4.85856 10.8193 5.05178 11.3301 5.33527 11.7898C5.62138 12.2538 6.01788 12.6962 6.47233 13.0793C7.36968 13.8357 8.56969 14.4226 9.71754 14.4226V13.4226ZM5.85856 10.3085C5.85856 9.33033 5.8589 10.31 5.8584 7.21217L4.8584 7.21233C4.8589 10.3101 4.85856 9.32993 4.85856 10.3085H5.85856ZM5.8184 7.4082C5.9794 7.03024 6.15674 6.85286 6.32111 6.75834C6.49345 6.65923 6.71346 6.6152 7.02553 6.61521C7.35212 6.61523 7.68989 6.65945 8.1321 6.69438C8.55313 6.72763 9.02919 6.74712 9.53269 6.67466L9.39025 5.68486C8.99639 5.74154 8.6071 5.72878 8.21083 5.69748C7.83572 5.66786 7.40422 5.61524 7.02559 5.61521C6.63246 5.61519 6.21131 5.66791 5.82259 5.89145C5.4259 6.11958 5.12226 6.49074 4.89839 7.01631L5.8184 7.4082ZM13.5769 5.92161C13.5769 5.92413 13.5769 5.92666 13.5769 5.92918C13.5769 5.9317 13.5769 5.93423 13.5769 5.93675C13.5769 5.93928 13.5769 5.94181 13.5769 5.94434C13.5769 5.94686 13.5769 5.94939 13.5769 5.95193C13.5769 5.95446 13.5769 5.95699 13.5769 5.95952C13.5769 5.96206 13.5769 5.96459 13.5769 5.96713C13.5769 5.96966 13.5769 5.9722 13.5769 5.97474C13.5769 5.97728 13.5769 5.97982 13.5769 5.98236C13.5769 5.9849 13.5769 5.98744 13.5769 5.98999C13.5769 5.99253 13.5769 5.99508 13.5769 5.99762C13.5769 6.00017 13.5769 6.00272 13.5769 6.00527C13.5769 6.00781 13.5769 6.01036 13.5769 6.01292C13.5769 6.01547 13.5769 6.01802 13.5769 6.02057C13.5769 6.02313 13.5769 6.02568 13.5769 6.02824C13.5769 6.03079 13.5769 6.03335 13.5769 6.03591C13.5769 6.03847 13.5769 6.04103 13.5769 6.04359C13.5769 6.04615 13.5769 6.04871 13.5769 6.05128C13.5769 6.05384 13.5769 6.05641 13.5769 6.05897C13.5769 6.06154 13.5769 6.0641 13.5769 6.06667C13.5769 6.06924 13.5769 6.07181 13.5769 6.07438C13.5769 6.07695 13.5769 6.07952 13.5769 6.0821C13.5769 6.08467 13.5769 6.08725 13.5769 6.08982C13.5769 6.0924 13.5769 6.09497 13.5769 6.09755C13.5769 6.10013 13.5769 6.10271 13.5769 6.10529C13.5769 6.10787 13.5769 6.11045 13.5769 6.11303C13.5769 6.11562 13.5769 6.1182 13.5769 6.12079C13.5769 6.12337 13.5769 6.12596 13.5769 6.12854C13.5769 6.13113 13.5769 6.13372 13.5769 6.13631C13.5769 6.1389 13.5769 6.14149 13.5769 6.14408C13.5769 6.14668 13.5769 6.14927 13.5769 6.15186C13.5769 6.15446 13.5769 6.15706 13.5769 6.15965C13.5769 6.16225 13.5769 6.16485 13.5769 6.16745C13.5769 6.17005 13.5769 6.17265 13.5769 6.17525C13.5769 6.17785 13.5769 6.18045 13.5769 6.18306C13.5769 6.18566 13.5769 6.18827 13.5769 6.19087C13.5769 6.19348 13.5769 6.19608 13.5769 6.19869C13.5769 6.2013 13.5769 6.20391 13.5769 6.20652C13.5769 6.20913 13.5769 6.21175 13.5769 6.21436C13.5769 6.21697 13.5769 6.21959 13.5769 6.2222C13.5769 6.22482 13.5769 6.22743 13.5769 6.23005C13.5769 6.23267 13.5769 6.23529 13.5769 6.23791C13.5769 6.24053 13.5769 6.24315 13.5769 6.24577C13.5769 6.24839 13.5769 6.25102 13.5769 6.25364C13.5769 6.25627 13.5769 6.25889 13.5769 6.26152C13.5769 6.26414 13.5769 6.26677 13.5769 6.2694C13.5769 6.27203 13.5769 6.27466 13.5769 6.27729C13.5769 6.27992 13.5769 6.28255 13.5769 6.28519C13.5769 6.28782 13.5769 6.29046 13.5769 6.29309C13.5769 6.29573 13.5769 6.29836 13.5769 6.301C13.5769 6.30364 13.5769 6.30628 13.5769 6.30892C13.5769 6.31156 13.5769 6.3142 13.5769 6.31684C13.5769 6.31948 13.5769 6.32213 13.5769 6.32477C13.5769 6.32742 13.5769 6.33006 13.5769 6.33271C13.5769 6.33536 13.5769 6.338 13.5769 6.34065C13.5769 6.3433 13.5769 6.34595 13.5769 6.3486C13.5769 6.35125 13.5769 6.3539 13.5769 6.35656C13.5769 6.35921 13.5769 6.36186 13.5769 6.36452C13.5769 6.36717 13.5769 6.36983 13.5769 6.37249C13.5769 6.37515 13.5769 6.3778 13.5769 6.38046C13.5769 6.38312 13.5769 6.38578 13.5769 6.38845C13.5769 6.39111 13.5769 6.39377 13.5769 6.39643C13.5769 6.3991 13.5769 6.40176 13.5769 6.40443C13.5769 6.40709 13.5769 6.40976 13.5769 6.41243C13.5769 6.4151 13.5769 6.41777 13.5769 6.42044C13.5769 6.42311 13.5769 6.42578 13.5769 6.42845C13.5769 6.43112 13.5769 6.43379 13.5769 6.43647C13.5769 6.43914 13.5769 6.44182 13.5769 6.44449C13.5769 6.44717 13.5769 6.44985 13.5769 6.45253C13.5769 6.45521 13.5769 6.45788 13.5769 6.46056C13.5769 6.46325 13.5769 6.46593 13.5769 6.46861C13.5769 6.47129 13.5769 6.47398 13.5769 6.47666C13.5769 6.47934 13.5769 6.48203 13.5769 6.48472C13.5769 6.4874 13.5769 6.49009 13.5769 6.49278C13.5769 6.49547 13.5769 6.49816 13.5769 6.50085C13.5769 6.50354 13.5769 6.50623 13.5769 6.50892C13.5769 6.51162 13.5769 6.51431 13.5769 6.517C13.5769 6.5197 13.5769 6.52239 13.5769 6.52509C13.5769 6.52779 13.5769 6.53049 13.5769 6.53318C13.5769 6.53588 13.5769 6.53858 13.5769 6.54128C13.5769 6.54398 13.5769 6.54669 13.5769 6.54939C13.5769 6.55209 13.5769 6.55479 13.5769 6.5575C13.5769 6.5602 13.5769 6.56291 13.5769 6.56562C13.5769 6.56832 13.5769 6.57103 13.5769 6.57374C13.5769 6.57645 13.5769 6.57916 13.5769 6.58187C13.5769 6.58458 13.5769 6.58729 13.5769 6.59C13.5769 6.59271 13.5769 6.59543 13.5769 6.59814C13.5769 6.60086 13.5769 6.60357 13.5769 6.60629C13.5769 6.609 13.5769 6.61172 13.5769 6.61444C13.5769 6.61716 13.5769 6.61988 13.5769 6.6226C13.5769 6.62532 13.5769 6.62804 13.5769 6.63076C13.5769 6.63348 13.5769 6.63621 13.5769 6.63893C13.5769 6.64165 13.5769 6.64438 13.5769 6.6471C13.5769 6.64983 13.5769 6.65256 13.5769 6.65529C13.5769 6.65801 13.5769 6.66074 13.5769 6.66347C13.5769 6.6662 13.5769 6.66893 13.5769 6.67166C13.5769 6.67439 13.5769 6.67713 13.5769 6.67986C13.5769 6.68259 13.5769 6.68533 13.5769 6.68806C13.5769 6.6908 13.5769 6.69353 13.5769 6.69627C13.5769 6.69901 13.5769 6.70175 13.5769 6.70449C13.5769 6.70722 13.5769 6.70996 13.5769 6.7127C13.5769 6.71545 13.5769 6.71819 13.5769 6.72093C13.5769 6.72367 13.5769 6.72642 13.5769 6.72916C13.5769 6.7319 13.5769 6.73465 13.5769 6.7374C13.5769 6.74014 13.5769 6.74289 13.5769 6.74564C13.5769 6.74839 13.5769 6.75113 13.5769 6.75388C13.5769 6.75663 13.5769 6.75938 13.5769 6.76214C13.5769 6.76489 13.5769 6.76764 13.5769 6.77039C13.5769 6.77315 13.5769 6.7759 13.5769 6.77866C13.5769 6.78141 13.5769 6.78417 13.5769 6.78692C13.5769 6.78968 13.5769 6.79244 13.5769 6.7952C13.5769 6.79796 13.5769 6.80072 13.5769 6.80348C13.5769 6.80624 13.5769 6.809 13.5769 6.81176C13.5769 6.81452 13.5769 6.81729 13.5769 6.82005C13.5769 6.82281 13.5769 6.82558 13.5769 6.82834C13.5769 6.83111 13.5769 6.83388 13.5769 6.83664C13.5769 6.83941 13.5769 6.84218 13.5769 6.84495C13.5769 6.84772 13.5769 6.85049 13.5769 6.85326C13.5769 6.85603 13.5769 6.8588 13.5769 6.86157C13.5769 6.86435 13.5769 6.86712 13.5769 6.86989C13.5769 6.87267 13.5769 6.87544 13.5769 6.87822C13.5769 6.88099 13.5769 6.88377 13.5769 6.88655C13.5769 6.88933 13.5769 6.8921 13.5769 6.89488C13.5769 6.89766 13.5769 6.90044 13.5769 6.90322C13.5769 6.906 13.5769 6.90879 13.5769 6.91157C13.5769 6.91435 13.5769 6.91713 13.5769 6.91992C13.5769 6.9227 13.5769 6.92549 13.5769 6.92827C13.5769 6.93106 13.5769 6.93385 13.5769 6.93663C13.5769 6.93942 13.5769 6.94221 13.5769 6.945C13.5769 6.94779 13.5769 6.95058 13.5769 6.95337C13.5769 6.95616 13.5769 6.95895 13.5769 6.96174C13.5769 6.96454 13.5769 6.96733 13.5769 6.97012C13.5769 6.97292 13.5769 6.97571 13.5769 6.97851C13.5769 6.9813 13.5769 6.9841 13.5769 6.9869C13.5769 6.98969 13.5769 6.99249 13.5769 6.99529C13.5769 6.99809 13.5769 7.00089 13.5769 7.00369C13.5769 7.00649 13.5769 7.00929 13.5769 7.01209C13.5769 7.01489 13.5769 7.0177 13.5769 7.0205C13.5769 7.0233 13.5769 7.02611 13.5769 7.02891C13.5769 7.03172 13.5769 7.03452 13.5769 7.03733C13.5769 7.04014 13.5769 7.04294 13.5769 7.04575C13.5769 7.04856 13.5769 7.05137 13.5769 7.05418C13.5769 7.05699 13.5769 7.0598 13.5769 7.06261C13.5769 7.06542 13.5769 7.06823 13.5769 7.07105C13.5769 7.07386 13.5769 7.07667 13.5769 7.07949C13.5769 7.0823 13.5769 7.08512 13.5769 7.08793C13.5769 7.09075 13.5769 7.09356 13.5769 7.09638C13.5769 7.0992 13.5769 7.10202 13.5769 7.10483C13.5769 7.10765 13.5769 7.11047 13.5769 7.11329C13.5769 7.11611 13.5769 7.11893 13.5769 7.12176C13.5769 7.12458 13.5769 7.1274 13.5769 7.13022C13.5769 7.13305 13.5769 7.13587 13.5769 7.13869C13.5769 7.14152 13.5769 7.14434 13.5769 7.14717C13.5769 7.15 13.5769 7.15282 13.5769 7.15565C13.5769 7.15848 13.5769 7.16131 13.5769 7.16413C13.5769 7.16696 13.5769 7.16979 13.5769 7.17262C13.5769 7.17545 13.5769 7.17829 13.5769 7.18112C13.5769 7.18395 13.5769 7.18678 13.5769 7.18961C13.5769 7.19245 13.5769 7.19528 13.5769 7.19812C13.5769 7.20095 13.5769 7.20379 13.5769 7.20662C13.5769 7.20946 13.5769 7.21229 13.5769 7.21513C13.5769 7.21797 13.5769 7.22081 13.5769 7.22365C13.5769 7.22649 13.5769 7.22932 13.5769 7.23216C13.5769 7.235 13.5769 7.23785 13.5769 7.24069C13.5769 7.24353 13.5769 7.24637 13.5769 7.24921C13.5769 7.25206 13.5769 7.2549 13.5769 7.25774C13.5769 7.26059 13.5769 7.26343 13.5769 7.26628C13.5769 7.26912 13.5769 7.27197 13.5769 7.27482C13.5769 7.27767 13.5769 7.28051 13.5769 7.28336C13.5769 7.28621 13.5769 7.28906 13.5769 7.29191C13.5769 7.29476 13.5769 7.29761 13.5769 7.30046C13.5769 7.30331 13.5769 7.30616 13.5769 7.30901C13.5769 7.31187 13.5769 7.31472 13.5769 7.31757C13.5769 7.32043 13.5769 7.32328 13.5769 7.32613C13.5769 7.32899 13.5769 7.33185 13.5769 7.3347C13.5769 7.33756 13.5769 7.34041 13.5769 7.34327C13.5769 7.34613 13.5769 7.34899 13.5769 7.35185C13.5769 7.3547 13.5769 7.35756 13.5769 7.36042C13.5769 7.36328 13.5769 7.36614 13.5769 7.36901C13.5769 7.37187 13.5769 7.37473 13.5769 7.37759C13.5769 7.38045 13.5769 7.38332 13.5769 7.38618C13.5769 7.38904 13.5769 7.39191 13.5769 7.39477C13.5769 7.39764 13.5769 7.4005 13.5769 7.40337C13.5769 7.40624 13.5769 7.4091 13.5769 7.41197C13.5769 7.41484 13.5769 7.41771 13.5769 7.42058C13.5769 7.42344 13.5769 7.42631 13.5769 7.42918C13.5769 7.43205 13.5769 7.43492 13.5769 7.4378C13.5769 7.44067 13.5769 7.44354 13.5769 7.44641C13.5769 7.44928 13.5769 7.45216 13.5769 7.45503C13.5769 7.4579 13.5769 7.46078 13.5769 7.46365C13.5769 7.46653 13.5769 7.4694 13.5769 7.47228C13.5769 7.47515 13.5769 7.47803 13.5769 7.48091C13.5769 7.48378 13.5769 7.48666 13.5769 7.48954C13.5769 7.49242 13.5769 7.4953 13.5769 7.49817C13.5769 7.50105 13.5769 7.50393 13.5769 7.50681C13.5769 7.5097 13.5769 7.51258 13.5769 7.51546C13.5769 7.51834 13.5769 7.52122 13.5769 7.5241C13.5769 7.52699 13.5769 7.52987 13.5769 7.53275C13.5769 7.53564 13.5769 7.53852 13.5769 7.54141C13.5769 7.54429 13.5769 7.54718 13.5769 7.55006C13.5769 7.55295 13.5769 7.55584 13.5769 7.55872C13.5769 7.56161 13.5769 7.5645 13.5769 7.56739C13.5769 7.57028 13.5769 7.57316 13.5769 7.57605C13.5769 7.57894 13.5769 7.58183 13.5769 7.58472C13.5769 7.58761 13.5769 7.5905 13.5769 7.5934C13.5769 7.59629 13.5769 7.59918 13.5769 7.60207C13.5769 7.60496 13.5769 7.60786 13.5769 7.61075C13.5769 7.61365 13.5769 7.61654 13.5769 7.61943C13.5769 7.62233 13.5769 7.62522 13.5769 7.62812C13.5769 7.63102 13.5769 7.63391 13.5769 7.63681C13.5769 7.63971 13.5769 7.6426 13.5769 7.6455C13.5769 7.6484 13.5769 7.6513 13.5769 7.6542C13.5769 7.65709 13.5769 7.65999 13.5769 7.66289C13.5769 7.66579 13.5769 7.66869 13.5769 7.67159C13.5769 7.67449 13.5769 7.6774 13.5769 7.6803C13.5769 7.6832 13.5769 7.6861 13.5769 7.68901C13.5769 7.69191 13.5769 7.69481 13.5769 7.69772C13.5769 7.70062 13.5769 7.70352 13.5769 7.70643C13.5769 7.70933 13.5769 7.71224 13.5769 7.71514C13.5769 7.71805 13.5769 7.72096 13.5769 7.72386C13.5769 7.72677 13.5769 7.72968 13.5769 7.73258C13.5769 7.73549 13.5769 7.7384 13.5769 7.74131C13.5769 7.74422 13.5769 7.74713 13.5769 7.75004C13.5769 7.75295 13.5769 7.75586 13.5769 7.75877C13.5769 7.76168 13.5769 7.76459 13.5769 7.7675C13.5769 7.77041 13.5769 7.77332 13.5769 7.77623C13.5769 7.77915 13.5769 7.78206 13.5769 7.78497C13.5769 7.78789 13.5769 7.7908 13.5769 7.79371C13.5769 7.79663 13.5769 7.79954 13.5769 7.80246C13.5769 7.80537 13.5769 7.80829 13.5769 7.8112C13.5769 7.81412 13.5769 7.81704 13.5769 7.81995C13.5769 7.82287 13.5769 7.82579 13.5769 7.82871C13.5769 7.83162 13.5769 7.83454 13.5769 7.83746C13.5769 7.84038 13.5769 7.8433 13.5769 7.84622C13.5769 7.84914 13.5769 7.85206 13.5769 7.85498C13.5769 7.8579 13.5769 7.86082 13.5769 7.86374C13.5769 7.86666 13.5769 7.86958 13.5769 7.8725C13.5769 7.87542 13.5769 7.87835 13.5769 7.88127C13.5769 7.88419 13.5769 7.88712 13.5769 7.89004C13.5769 7.89296 13.5769 7.89589 13.5769 7.89881C13.5769 7.90174 13.5769 7.90466 13.5769 7.90759C13.5769 7.91051 13.5769 7.91344 13.5769 7.91636C13.5769 7.91929 13.5769 7.92222 13.5769 7.92514C13.5769 7.92807 13.5769 7.931 13.5769 7.93392C13.5769 7.93685 13.5769 7.93978 13.5769 7.94271C13.5769 7.94564 13.5769 7.94857 13.5769 7.95149C13.5769 7.95442 13.5769 7.95735 13.5769 7.96028C13.5769 7.96321 13.5769 7.96614 13.5769 7.96907C13.5769 7.972 13.5769 7.97494 13.5769 7.97787C13.5769 7.9808 13.5769 7.98373 13.5769 7.98666C13.5769 7.98959 13.5769 7.99253 13.5769 7.99546C13.5769 7.99839 13.5769 8.00133 13.5769 8.00426C13.5769 8.00719 13.5769 8.01013 13.5769 8.01306C13.5769 8.016 13.5769 8.01893 13.5769 8.02187C13.5769 8.0248 13.5769 8.02774 13.5769 8.03067C13.5769 8.03361 13.5769 8.03654 13.5769 8.03948C13.5769 8.04242 13.5769 8.04535 13.5769 8.04829C13.5769 8.05123 13.5769 8.05417 13.5769 8.0571C13.5769 8.06004 13.5769 8.06298 13.5769 8.06592C13.5769 8.06886 13.5769 8.0718 13.5769 8.07474C13.5769 8.07767 13.5769 8.08061 13.5769 8.08355C13.5769 8.08649 13.5769 8.08943 13.5769 8.09237C13.5769 8.09532 13.5769 8.09826 13.5769 8.1012C13.5769 8.10414 13.5769 8.10708 13.5769 8.11002C13.5769 8.11296 13.5769 8.11591 13.5769 8.11885C13.5769 8.12179 13.5769 8.12473 13.5769 8.12768C13.5769 8.13062 13.5769 8.13356 13.5769 8.13651C13.5769 8.13945 13.5769 8.14239 13.5769 8.14534C13.5769 8.14828 13.5769 8.15123 13.5769 8.15417C13.5769 8.15712 13.5769 8.16006 13.5769 8.16301C13.5769 8.16595 13.5769 8.1689 13.5769 8.17185C13.5769 8.17479 13.5769 8.17774 13.5769 8.18068C13.5769 8.18363 13.5769 8.18658 13.5769 8.18953C13.5769 8.19247 13.5769 8.19542 13.5769 8.19837C13.5769 8.20132 13.5769 8.20426 13.5769 8.20721C13.5769 8.21016 13.5769 8.21311 13.5769 8.21606C13.5769 8.21901 13.5769 8.22196 13.5769 8.22491C13.5769 8.22786 13.5769 8.23081 13.5769 8.23376C13.5769 8.23671 13.5769 8.23966 13.5769 8.24261C13.5769 8.24556 13.5769 8.24851 13.5769 8.25146C13.5769 8.25441 13.5769 8.25736 13.5769 8.26031C13.5769 8.26326 13.5769 8.26622 13.5769 8.26917C13.5769 8.27212 13.5769 8.27507 13.5769 8.27802C13.5769 8.28098 13.5769 8.28393 13.5769 8.28688C13.5769 8.28984 13.5769 8.29279 13.5769 8.29574C13.5769 8.2987 13.5769 8.30165 13.5769 8.3046C13.5769 8.30756 13.5769 8.31051 13.5769 8.31347C13.5769 8.31642 13.5769 8.31938 13.5769 8.32233C13.5769 8.32529 13.5769 8.32824 13.5769 8.3312C13.5769 8.33415 13.5769 8.33711 13.5769 8.34006C13.5769 8.34302 13.5769 8.34598 13.5769 8.34893C13.5769 8.35189 13.5769 8.35485 13.5769 8.3578C13.5769 8.36076 13.5769 8.36372 13.5769 8.36667C13.5769 8.36963 13.5769 8.37259 13.5769 8.37555C13.5769 8.3785 13.5769 8.38146 13.5769 8.38442C13.5769 8.38738 13.5769 8.39034 13.5769 8.39329C13.5769 8.39625 13.5769 8.39921 13.5769 8.40217C13.5769 8.40513 13.5769 8.40809 13.5769 8.41105C13.5769 8.41401 13.5769 8.41697 13.5769 8.41992C13.5769 8.42288 13.5769 8.42584 13.5769 8.4288C13.5769 8.43176 13.5769 8.43472 13.5769 8.43768C13.5769 8.44064 13.5769 8.44361 13.5769 8.44657C13.5769 8.44953 13.5769 8.45249 13.5769 8.45545C13.5769 8.45841 13.5769 8.46137 13.5769 8.46433C13.5769 8.46729 13.5769 8.47026 13.5769 8.47322C13.5769 8.47618 13.5769 8.47914 13.5769 8.4821C13.5769 8.48506 13.5769 8.48803 13.5769 8.49099C13.5769 8.49395 13.5769 8.49691 13.5769 8.49988C13.5769 8.50284 13.5769 8.5058 13.5769 8.50877C13.5769 8.51173 13.5769 8.51469 13.5769 8.51766C13.5769 8.52062 13.5769 8.52358 13.5769 8.52655C13.5769 8.52951 13.5769 8.53247 13.5769 8.53544C13.5769 8.5384 13.5769 8.54137 13.5769 8.54433C13.5769 8.54729 13.5769 8.55026 13.5769 8.55322C13.5769 8.55619 13.5769 8.55915 13.5769 8.56212C13.5769 8.56508 13.5769 8.56805 13.5769 8.57101C13.5769 8.57398 13.5769 8.57694 13.5769 8.57991C13.5769 8.58287 13.5769 8.58584 13.5769 8.5888C13.5769 8.59177 13.5769 8.59473 13.5769 8.5977C13.5769 8.60066 13.5769 8.60363 13.5769 8.6066C13.5769 8.60956 13.5769 8.61253 13.5769 8.61549C13.5769 8.61846 13.5769 8.62143 13.5769 8.62439C13.5769 8.62736 13.5769 8.63033 13.5769 8.63329C13.5769 8.63626 13.5769 8.63923 13.5769 8.64219C13.5769 8.64516 13.5769 8.64813 13.5769 8.65109C13.5769 8.65406 13.5769 8.65703 13.5769 8.66C13.5769 8.66296 13.5769 8.66593 13.5769 8.6689C13.5769 8.67186 13.5769 8.67483 13.5769 8.6778C13.5769 8.68077 13.5769 8.68373 13.5769 8.6867C13.5769 8.68967 13.5769 8.69264 13.5769 8.69561C13.5769 8.69857 13.5769 8.70154 13.5769 8.70451C13.5769 8.70748 13.5769 8.71045 13.5769 8.71341C13.5769 8.71638 13.5769 8.71935 13.5769 8.72232C13.5769 8.72529 13.5769 8.72826 13.5769 8.73122C13.5769 8.73419 13.5769 8.73716 13.5769 8.74013C13.5769 8.7431 13.5769 8.74607 13.5769 8.74903C13.5769 8.752 13.5769 8.75497 13.5769 8.75794C13.5769 8.76091 13.5769 8.76388 13.5769 8.76685C13.5769 8.76982 13.5769 8.77278 13.5769 8.77575C13.5769 8.77872 13.5769 8.78169 13.5769 8.78466C13.5769 8.78763 13.5769 8.7906 13.5769 8.79357C13.5769 8.79654 13.5769 8.79951 13.5769 8.80247C13.5769 8.80544 13.5769 8.80841 13.5769 8.81138C13.5769 8.81435 13.5769 8.81732 13.5769 8.82029C13.5769 8.82326 13.5769 8.82623 13.5769 8.8292C13.5769 8.83217 13.5769 8.83514 13.5769 8.83811C13.5769 8.84108 13.5769 8.84405 13.5769 8.84701C13.5769 8.84998 13.5769 8.85295 13.5769 8.85592C13.5769 8.85889 13.5769 8.86186 13.5769 8.86483C13.5769 8.8678 13.5769 8.87077 13.5769 8.87374C13.5769 8.87671 13.5769 8.87968 13.5769 8.88265C13.5769 8.88562 13.5769 8.88859 13.5769 8.89156C13.5769 8.89453 13.5769 8.89749 13.5769 8.90046C13.5769 8.90343 13.5769 8.9064 13.5769 8.90937C13.5769 8.91234 13.5769 8.91531 13.5769 8.91828C13.5769 8.92125 13.5769 8.92422 13.5769 8.92719C13.5769 8.93016 13.5769 8.93313 13.5769 8.9361C13.5769 8.93907 13.5769 8.94204 13.5769 8.945C13.5769 8.94797 13.5769 8.95094 13.5769 8.95391C13.5769 8.95688 13.5769 8.95985 13.5769 8.96282C13.5769 8.96579 13.5769 8.96876 13.5769 8.97173C13.5769 8.9747 13.5769 8.97767 13.5769 8.98063C13.5769 8.9836 13.5769 8.98657 13.5769 8.98954C13.5769 8.99251 13.5769 8.99548 13.5769 8.99845C13.5769 9.00142 13.5769 9.00439 13.5769 9.00735C13.5769 9.01032 13.5769 9.01329 13.5769 9.01626C13.5769 9.01923 13.5769 9.0222 13.5769 9.02517C13.5769 9.02813 13.5769 9.0311 13.5769 9.03407C13.5769 9.03704 13.5769 9.04001 13.5769 9.04298C13.5769 9.04594 13.5769 9.04891 13.5769 9.05188C13.5769 9.05485 13.5769 9.05782 13.5769 9.06078C13.5769 9.06375 13.5769 9.06672 13.5769 9.06969C13.5769 9.07266 13.5769 9.07562 13.5769 9.07859C13.5769 9.08156 13.5769 9.08453 13.5769 9.08749C13.5769 9.09046 13.5769 9.09343 13.5769 9.0964C13.5769 9.09936 13.5769 9.10233 13.5769 9.1053C13.5769 9.10826 13.5769 9.11123 13.5769 9.1142C13.5769 9.11717 13.5769 9.12013 13.5769 9.1231C13.5769 9.12607 13.5769 9.12903 13.5769 9.132C13.5769 9.13497 13.5769 9.13793 13.5769 9.1409C13.5769 9.14387 13.5769 9.14683 13.5769 9.1498C13.5769 9.15276 13.5769 9.15573 13.5769 9.1587C13.5769 9.16166 13.5769 9.16463 13.5769 9.16759C13.5769 9.17056 13.5769 9.17352 13.5769 9.17649C13.5769 9.17945 13.5769 9.18242 13.5769 9.18539C13.5769 9.18835 13.5769 9.19132 13.5769 9.19428C13.5769 9.19725 13.5769 9.20021 13.5769 9.20317C13.5769 9.20614 13.5769 9.2091 13.5769 9.21207C13.5769 9.21503 13.5769 9.218 13.5769 9.22096C13.5769 9.22393 13.5769 9.22689 13.5769 9.22985C13.5769 9.23282 13.5769 9.23578 13.5769 9.23874C13.5769 9.24171 13.5769 9.24467 13.5769 9.24763C13.5769 9.2506 13.5769 9.25356 13.5769 9.25652C13.5769 9.25949 13.5769 9.26245 13.5769 9.26541C13.5769 9.26837 13.5769 9.27134 13.5769 9.2743C13.5769 9.27726 13.5769 9.28022 13.5769 9.28319C13.5769 9.28615 13.5769 9.28911 13.5769 9.29207C13.5769 9.29503 13.5769 9.29799 13.5769 9.30096C13.5769 9.30392 13.5769 9.30688 13.5769 9.30984C13.5769 9.3128 13.5769 9.31576 13.5769 9.31872C13.5769 9.32168 13.5769 9.32464 13.5769 9.3276C13.5769 9.33056 13.5769 9.33352 13.5769 9.33648C13.5769 9.33944 13.5769 9.3424 13.5769 9.34536C13.5769 9.34832 13.5769 9.35128 13.5769 9.35424C13.5769 9.3572 13.5769 9.36016 13.5769 9.36312C13.5769 9.36607 13.5769 9.36903 13.5769 9.37199C13.5769 9.37495 13.5769 9.37791 13.5769 9.38087C13.5769 9.38382 13.5769 9.38678 13.5769 9.38974C13.5769 9.3927 13.5769 9.39565 13.5769 9.39861C13.5769 9.40157 13.5769 9.40452 13.5769 9.40748C13.5769 9.41044 13.5769 9.41339 13.5769 9.41635C13.5769 9.41931 13.5769 9.42226 13.5769 9.42522C13.5769 9.42817 13.5769 9.43113 13.5769 9.43408C13.5769 9.43704 13.5769 9.43999 13.5769 9.44295C13.5769 9.4459 13.5769 9.44886 13.5769 9.45181C13.5769 9.45477 13.5769 9.45772 13.5769 9.46068C13.5769 9.46363 13.5769 9.46658 13.5769 9.46954C13.5769 9.47249 13.5769 9.47544 13.5769 9.4784C13.5769 9.48135 13.5769 9.4843 13.5769 9.48725C13.5769 9.49021 13.5769 9.49316 13.5769 9.49611C13.5769 9.49906 13.5769 9.50201 13.5769 9.50497C13.5769 9.50792 13.5769 9.51087 13.5769 9.51382C13.5769 9.51677 13.5769 9.51972 13.5769 9.52267C13.5769 9.52562 13.5769 9.52857 13.5769 9.53152C13.5769 9.53447 13.5769 9.53742 13.5769 9.54037C13.5769 9.54332 13.5769 9.54627 13.5769 9.54922C13.5769 9.55217 13.5769 9.55511 13.5769 9.55806C13.5769 9.56101 13.5769 9.56396 13.5769 9.56691C13.5769 9.56985 13.5769 9.5728 13.5769 9.57575C13.5769 9.5787 13.5769 9.58164 13.5769 9.58459C13.5769 9.58753 13.5769 9.59048 13.5769 9.59343C13.5769 9.59637 13.5769 9.59932 13.5769 9.60226C13.5769 9.60521 13.5769 9.60815 13.5769 9.6111C13.5769 9.61404 13.5769 9.61699 13.5769 9.61993C13.5769 9.62288 13.5769 9.62582 13.5769 9.62876C13.5769 9.63171 13.5769 9.63465 13.5769 9.63759C13.5769 9.64054 13.5769 9.64348 13.5769 9.64642C13.5769 9.64936 13.5769 9.6523 13.5769 9.65525C13.5769 9.65819 13.5769 9.66113 13.5769 9.66407C13.5769 9.66701 13.5769 9.66995 13.5769 9.67289C13.5769 9.67583 13.5769 9.67877 13.5769 9.68171C13.5769 9.68465 13.5769 9.68759 13.5769 9.69053C13.5769 9.69347 13.5769 9.69641 13.5769 9.69935C13.5769 9.70228 13.5769 9.70522 13.5769 9.70816C13.5769 9.7111 13.5769 9.71404 13.5769 9.71697C13.5769 9.71991 13.5769 9.72285 13.5769 9.72578C13.5769 9.72872 13.5769 9.73165 13.5769 9.73459C13.5769 9.73752 13.5769 9.74046 13.5769 9.7434C13.5769 9.74633 13.5769 9.74926 13.5769 9.7522C13.5769 9.75513 13.5769 9.75807 13.5769 9.761C13.5769 9.76393 13.5769 9.76687 13.5769 9.7698C13.5769 9.77273 13.5769 9.77566 13.5769 9.7786C13.5769 9.78153 13.5769 9.78446 13.5769 9.78739C13.5769 9.79032 13.5769 9.79325 13.5769 9.79618C13.5769 9.79911 13.5769 9.80204 13.5769 9.80497C13.5769 9.8079 13.5769 9.81083 13.5769 9.81376C13.5769 9.81669 13.5769 9.81962 13.5769 9.82255C13.5769 9.82548 13.5769 9.8284 13.5769 9.83133C13.5769 9.83426 13.5769 9.83718 13.5769 9.84011C13.5769 9.84304 13.5769 9.84596 13.5769 9.84889C13.5769 9.85182 13.5769 9.85474 13.5769 9.85767C13.5769 9.86059 13.5769 9.86352 13.5769 9.86644C13.5769 9.86936 13.5769 9.87229 13.5769 9.87521C13.5769 9.87813 13.5769 9.88106 13.5769 9.88398C13.5769 9.8869 13.5769 9.88982 13.5769 9.89275C13.5769 9.89567 13.5769 9.89859 13.5769 9.90151C13.5769 9.90443 13.5769 9.90735 13.5769 9.91027C13.5769 9.91319 13.5769 9.91611 13.5769 9.91903C13.5769 9.92195 13.5769 9.92487 13.5769 9.92779C13.5769 9.9307 13.5769 9.93362 13.5769 9.93654C13.5769 9.93946 13.5769 9.94237 13.5769 9.94529C13.5769 9.94821 13.5769 9.95112 13.5769 9.95404C13.5769 9.95695 13.5769 9.95987 13.5769 9.96278C13.5769 9.9657 13.5769 9.96861 13.5769 9.97153C13.5769 9.97444 13.5769 9.97735 13.5769 9.98027C13.5769 9.98318 13.5769 9.98609 13.5769 9.98901C13.5769 9.99192 13.5769 9.99483 13.5769 9.99774C13.5769 10.0007 13.5769 10.0036 13.5769 10.0065C13.5769 10.0094 13.5769 10.0123 13.5769 10.0152C13.5769 10.0181 13.5769 10.021 13.5769 10.0239C13.5769 10.0268 13.5769 10.0297 13.5769 10.0327C13.5769 10.0356 13.5769 10.0385 13.5769 10.0414C13.5769 10.0443 13.5769 10.0472 13.5769 10.0501C13.5769 10.053 13.5769 10.0559 13.5769 10.0588C13.5769 10.0617 13.5769 10.0646 13.5769 10.0675C13.5769 10.0704 13.5769 10.0733 13.5769 10.0762C13.5769 10.0791 13.5769 10.082 13.5769 10.0849C13.5769 10.0878 13.5769 10.0907 13.5769 10.0936C13.5769 10.0965 13.5769 10.0994 13.5769 10.1023C13.5769 10.1052 13.5769 10.1081 13.5769 10.111C13.5769 10.1139 13.5769 10.1168 13.5769 10.1197C13.5769 10.1226 13.5769 10.1255 13.5769 10.1284C13.5769 10.1313 13.5769 10.1342 13.5769 10.1371C13.5769 10.14 13.5769 10.1429 13.5769 10.1458C13.5769 10.1487 13.5769 10.1516 13.5769 10.1545C13.5769 10.1574 13.5769 10.1603 13.5769 10.1631C13.5769 10.166 13.5769 10.1689 13.5769 10.1718C13.5769 10.1747 13.5769 10.1776 13.5769 10.1805C13.5769 10.1834 13.5769 10.1863 13.5769 10.1892C13.5769 10.1921 13.5769 10.1949 13.5769 10.1978C13.5769 10.2007 13.5769 10.2036 13.5769 10.2065C13.5769 10.2094 13.5769 10.2123 13.5769 10.2151C13.5769 10.218 13.5769 10.2209 13.5769 10.2238C13.5769 10.2267 13.5769 10.2296 13.5769 10.2325C13.5769 10.2353 13.5769 10.2382 13.5769 10.2411C13.5769 10.244 13.5769 10.2469 13.5769 10.2498C13.5769 10.2526 13.5769 10.2555 13.5769 10.2584C13.5769 10.2613 13.5769 10.2642 13.5769 10.267C13.5769 10.2699 13.5769 10.2728 13.5769 10.2757C13.5769 10.2785 13.5769 10.2814 13.5769 10.2843C13.5769 10.2872 13.5769 10.2901 13.5769 10.2929C13.5769 10.2958 13.5769 10.2987 13.5769 10.3016C13.5769 10.3044 13.5769 10.3073 13.5769 10.3102H14.5769C14.5769 10.3073 14.5769 10.3044 14.5769 10.3016C14.5769 10.2987 14.5769 10.2958 14.5769 10.2929C14.5769 10.2901 14.5769 10.2872 14.5769 10.2843C14.5769 10.2814 14.5769 10.2785 14.5769 10.2757C14.5769 10.2728 14.5769 10.2699 14.5769 10.267C14.5769 10.2642 14.5769 10.2613 14.5769 10.2584C14.5769 10.2555 14.5769 10.2526 14.5769 10.2498C14.5769 10.2469 14.5769 10.244 14.5769 10.2411C14.5769 10.2382 14.5769 10.2353 14.5769 10.2325C14.5769 10.2296 14.5769 10.2267 14.5769 10.2238C14.5769 10.2209 14.5769 10.218 14.5769 10.2151C14.5769 10.2123 14.5769 10.2094 14.5769 10.2065C14.5769 10.2036 14.5769 10.2007 14.5769 10.1978C14.5769 10.1949 14.5769 10.1921 14.5769 10.1892C14.5769 10.1863 14.5769 10.1834 14.5769 10.1805C14.5769 10.1776 14.5769 10.1747 14.5769 10.1718C14.5769 10.1689 14.5769 10.166 14.5769 10.1631C14.5769 10.1603 14.5769 10.1574 14.5769 10.1545C14.5769 10.1516 14.5769 10.1487 14.5769 10.1458C14.5769 10.1429 14.5769 10.14 14.5769 10.1371C14.5769 10.1342 14.5769 10.1313 14.5769 10.1284C14.5769 10.1255 14.5769 10.1226 14.5769 10.1197C14.5769 10.1168 14.5769 10.1139 14.5769 10.111C14.5769 10.1081 14.5769 10.1052 14.5769 10.1023C14.5769 10.0994 14.5769 10.0965 14.5769 10.0936C14.5769 10.0907 14.5769 10.0878 14.5769 10.0849C14.5769 10.082 14.5769 10.0791 14.5769 10.0762C14.5769 10.0733 14.5769 10.0704 14.5769 10.0675C14.5769 10.0646 14.5769 10.0617 14.5769 10.0588C14.5769 10.0559 14.5769 10.053 14.5769 10.0501C14.5769 10.0472 14.5769 10.0443 14.5769 10.0414C14.5769 10.0385 14.5769 10.0356 14.5769 10.0327C14.5769 10.0297 14.5769 10.0268 14.5769 10.0239C14.5769 10.021 14.5769 10.0181 14.5769 10.0152C14.5769 10.0123 14.5769 10.0094 14.5769 10.0065C14.5769 10.0036 14.5769 10.0007 14.5769 9.99774C14.5769 9.99483 14.5769 9.99192 14.5769 9.98901C14.5769 9.98609 14.5769 9.98318 14.5769 9.98027C14.5769 9.97735 14.5769 9.97444 14.5769 9.97153C14.5769 9.96861 14.5769 9.9657 14.5769 9.96278C14.5769 9.95987 14.5769 9.95695 14.5769 9.95404C14.5769 9.95112 14.5769 9.94821 14.5769 9.94529C14.5769 9.94237 14.5769 9.93946 14.5769 9.93654C14.5769 9.93362 14.5769 9.9307 14.5769 9.92779C14.5769 9.92487 14.5769 9.92195 14.5769 9.91903C14.5769 9.91611 14.5769 9.91319 14.5769 9.91027C14.5769 9.90735 14.5769 9.90443 14.5769 9.90151C14.5769 9.89859 14.5769 9.89567 14.5769 9.89275C14.5769 9.88982 14.5769 9.8869 14.5769 9.88398C14.5769 9.88106 14.5769 9.87813 14.5769 9.87521C14.5769 9.87229 14.5769 9.86936 14.5769 9.86644C14.5769 9.86352 14.5769 9.86059 14.5769 9.85767C14.5769 9.85474 14.5769 9.85182 14.5769 9.84889C14.5769 9.84596 14.5769 9.84304 14.5769 9.84011C14.5769 9.83718 14.5769 9.83426 14.5769 9.83133C14.5769 9.8284 14.5769 9.82548 14.5769 9.82255C14.5769 9.81962 14.5769 9.81669 14.5769 9.81376C14.5769 9.81083 14.5769 9.8079 14.5769 9.80497C14.5769 9.80204 14.5769 9.79911 14.5769 9.79618C14.5769 9.79325 14.5769 9.79032 14.5769 9.78739C14.5769 9.78446 14.5769 9.78153 14.5769 9.7786C14.5769 9.77566 14.5769 9.77273 14.5769 9.7698C14.5769 9.76687 14.5769 9.76393 14.5769 9.761C14.5769 9.75807 14.5769 9.75513 14.5769 9.7522C14.5769 9.74926 14.5769 9.74633 14.5769 9.7434C14.5769 9.74046 14.5769 9.73752 14.5769 9.73459C14.5769 9.73165 14.5769 9.72872 14.5769 9.72578C14.5769 9.72285 14.5769 9.71991 14.5769 9.71697C14.5769 9.71404 14.5769 9.7111 14.5769 9.70816C14.5769 9.70522 14.5769 9.70228 14.5769 9.69935C14.5769 9.69641 14.5769 9.69347 14.5769 9.69053C14.5769 9.68759 14.5769 9.68465 14.5769 9.68171C14.5769 9.67877 14.5769 9.67583 14.5769 9.67289C14.5769 9.66995 14.5769 9.66701 14.5769 9.66407C14.5769 9.66113 14.5769 9.65819 14.5769 9.65525C14.5769 9.6523 14.5769 9.64936 14.5769 9.64642C14.5769 9.64348 14.5769 9.64054 14.5769 9.63759C14.5769 9.63465 14.5769 9.63171 14.5769 9.62876C14.5769 9.62582 14.5769 9.62288 14.5769 9.61993C14.5769 9.61699 14.5769 9.61404 14.5769 9.6111C14.5769 9.60815 14.5769 9.60521 14.5769 9.60226C14.5769 9.59932 14.5769 9.59637 14.5769 9.59343C14.5769 9.59048 14.5769 9.58753 14.5769 9.58459C14.5769 9.58164 14.5769 9.5787 14.5769 9.57575C14.5769 9.5728 14.5769 9.56985 14.5769 9.56691C14.5769 9.56396 14.5769 9.56101 14.5769 9.55806C14.5769 9.55511 14.5769 9.55217 14.5769 9.54922C14.5769 9.54627 14.5769 9.54332 14.5769 9.54037C14.5769 9.53742 14.5769 9.53447 14.5769 9.53152C14.5769 9.52857 14.5769 9.52562 14.5769 9.52267C14.5769 9.51972 14.5769 9.51677 14.5769 9.51382C14.5769 9.51087 14.5769 9.50792 14.5769 9.50497C14.5769 9.50201 14.5769 9.49906 14.5769 9.49611C14.5769 9.49316 14.5769 9.49021 14.5769 9.48725C14.5769 9.4843 14.5769 9.48135 14.5769 9.4784C14.5769 9.47544 14.5769 9.47249 14.5769 9.46954C14.5769 9.46658 14.5769 9.46363 14.5769 9.46068C14.5769 9.45772 14.5769 9.45477 14.5769 9.45181C14.5769 9.44886 14.5769 9.4459 14.5769 9.44295C14.5769 9.43999 14.5769 9.43704 14.5769 9.43408C14.5769 9.43113 14.5769 9.42817 14.5769 9.42522C14.5769 9.42226 14.5769 9.41931 14.5769 9.41635C14.5769 9.41339 14.5769 9.41044 14.5769 9.40748C14.5769 9.40452 14.5769 9.40157 14.5769 9.39861C14.5769 9.39565 14.5769 9.3927 14.5769 9.38974C14.5769 9.38678 14.5769 9.38382 14.5769 9.38087C14.5769 9.37791 14.5769 9.37495 14.5769 9.37199C14.5769 9.36903 14.5769 9.36607 14.5769 9.36312C14.5769 9.36016 14.5769 9.3572 14.5769 9.35424C14.5769 9.35128 14.5769 9.34832 14.5769 9.34536C14.5769 9.3424 14.5769 9.33944 14.5769 9.33648C14.5769 9.33352 14.5769 9.33056 14.5769 9.3276C14.5769 9.32464 14.5769 9.32168 14.5769 9.31872C14.5769 9.31576 14.5769 9.3128 14.5769 9.30984C14.5769 9.30688 14.5769 9.30392 14.5769 9.30096C14.5769 9.29799 14.5769 9.29503 14.5769 9.29207C14.5769 9.28911 14.5769 9.28615 14.5769 9.28319C14.5769 9.28022 14.5769 9.27726 14.5769 9.2743C14.5769 9.27134 14.5769 9.26837 14.5769 9.26541C14.5769 9.26245 14.5769 9.25949 14.5769 9.25652C14.5769 9.25356 14.5769 9.2506 14.5769 9.24763C14.5769 9.24467 14.5769 9.24171 14.5769 9.23874C14.5769 9.23578 14.5769 9.23282 14.5769 9.22985C14.5769 9.22689 14.5769 9.22393 14.5769 9.22096C14.5769 9.218 14.5769 9.21503 14.5769 9.21207C14.5769 9.2091 14.5769 9.20614 14.5769 9.20317C14.5769 9.20021 14.5769 9.19725 14.5769 9.19428C14.5769 9.19132 14.5769 9.18835 14.5769 9.18539C14.5769 9.18242 14.5769 9.17945 14.5769 9.17649C14.5769 9.17352 14.5769 9.17056 14.5769 9.16759C14.5769 9.16463 14.5769 9.16166 14.5769 9.1587C14.5769 9.15573 14.5769 9.15276 14.5769 9.1498C14.5769 9.14683 14.5769 9.14387 14.5769 9.1409C14.5769 9.13793 14.5769 9.13497 14.5769 9.132C14.5769 9.12903 14.5769 9.12607 14.5769 9.1231C14.5769 9.12013 14.5769 9.11717 14.5769 9.1142C14.5769 9.11123 14.5769 9.10826 14.5769 9.1053C14.5769 9.10233 14.5769 9.09936 14.5769 9.0964C14.5769 9.09343 14.5769 9.09046 14.5769 9.08749C14.5769 9.08453 14.5769 9.08156 14.5769 9.07859C14.5769 9.07562 14.5769 9.07266 14.5769 9.06969C14.5769 9.06672 14.5769 9.06375 14.5769 9.06078C14.5769 9.05782 14.5769 9.05485 14.5769 9.05188C14.5769 9.04891 14.5769 9.04594 14.5769 9.04298C14.5769 9.04001 14.5769 9.03704 14.5769 9.03407C14.5769 9.0311 14.5769 9.02813 14.5769 9.02517C14.5769 9.0222 14.5769 9.01923 14.5769 9.01626C14.5769 9.01329 14.5769 9.01032 14.5769 9.00735C14.5769 9.00439 14.5769 9.00142 14.5769 8.99845C14.5769 8.99548 14.5769 8.99251 14.5769 8.98954C14.5769 8.98657 14.5769 8.9836 14.5769 8.98063C14.5769 8.97767 14.5769 8.9747 14.5769 8.97173C14.5769 8.96876 14.5769 8.96579 14.5769 8.96282C14.5769 8.95985 14.5769 8.95688 14.5769 8.95391C14.5769 8.95094 14.5769 8.94797 14.5769 8.945C14.5769 8.94204 14.5769 8.93907 14.5769 8.9361C14.5769 8.93313 14.5769 8.93016 14.5769 8.92719C14.5769 8.92422 14.5769 8.92125 14.5769 8.91828C14.5769 8.91531 14.5769 8.91234 14.5769 8.90937C14.5769 8.9064 14.5769 8.90343 14.5769 8.90046C14.5769 8.89749 14.5769 8.89453 14.5769 8.89156C14.5769 8.88859 14.5769 8.88562 14.5769 8.88265C14.5769 8.87968 14.5769 8.87671 14.5769 8.87374C14.5769 8.87077 14.5769 8.8678 14.5769 8.86483C14.5769 8.86186 14.5769 8.85889 14.5769 8.85592C14.5769 8.85295 14.5769 8.84998 14.5769 8.84701C14.5769 8.84405 14.5769 8.84108 14.5769 8.83811C14.5769 8.83514 14.5769 8.83217 14.5769 8.8292C14.5769 8.82623 14.5769 8.82326 14.5769 8.82029C14.5769 8.81732 14.5769 8.81435 14.5769 8.81138C14.5769 8.80841 14.5769 8.80544 14.5769 8.80247C14.5769 8.79951 14.5769 8.79654 14.5769 8.79357C14.5769 8.7906 14.5769 8.78763 14.5769 8.78466C14.5769 8.78169 14.5769 8.77872 14.5769 8.77575C14.5769 8.77278 14.5769 8.76982 14.5769 8.76685C14.5769 8.76388 14.5769 8.76091 14.5769 8.75794C14.5769 8.75497 14.5769 8.752 14.5769 8.74903C14.5769 8.74607 14.5769 8.7431 14.5769 8.74013C14.5769 8.73716 14.5769 8.73419 14.5769 8.73122C14.5769 8.72826 14.5769 8.72529 14.5769 8.72232C14.5769 8.71935 14.5769 8.71638 14.5769 8.71341C14.5769 8.71045 14.5769 8.70748 14.5769 8.70451C14.5769 8.70154 14.5769 8.69857 14.5769 8.69561C14.5769 8.69264 14.5769 8.68967 14.5769 8.6867C14.5769 8.68373 14.5769 8.68077 14.5769 8.6778C14.5769 8.67483 14.5769 8.67186 14.5769 8.6689C14.5769 8.66593 14.5769 8.66296 14.5769 8.66C14.5769 8.65703 14.5769 8.65406 14.5769 8.65109C14.5769 8.64813 14.5769 8.64516 14.5769 8.64219C14.5769 8.63923 14.5769 8.63626 14.5769 8.63329C14.5769 8.63033 14.5769 8.62736 14.5769 8.62439C14.5769 8.62143 14.5769 8.61846 14.5769 8.61549C14.5769 8.61253 14.5769 8.60956 14.5769 8.6066C14.5769 8.60363 14.5769 8.60066 14.5769 8.5977C14.5769 8.59473 14.5769 8.59177 14.5769 8.5888C14.5769 8.58584 14.5769 8.58287 14.5769 8.57991C14.5769 8.57694 14.5769 8.57398 14.5769 8.57101C14.5769 8.56805 14.5769 8.56508 14.5769 8.56212C14.5769 8.55915 14.5769 8.55619 14.5769 8.55322C14.5769 8.55026 14.5769 8.54729 14.5769 8.54433C14.5769 8.54137 14.5769 8.5384 14.5769 8.53544C14.5769 8.53247 14.5769 8.52951 14.5769 8.52655C14.5769 8.52358 14.5769 8.52062 14.5769 8.51766C14.5769 8.51469 14.5769 8.51173 14.5769 8.50877C14.5769 8.5058 14.5769 8.50284 14.5769 8.49988C14.5769 8.49691 14.5769 8.49395 14.5769 8.49099C14.5769 8.48803 14.5769 8.48506 14.5769 8.4821C14.5769 8.47914 14.5769 8.47618 14.5769 8.47322C14.5769 8.47026 14.5769 8.46729 14.5769 8.46433C14.5769 8.46137 14.5769 8.45841 14.5769 8.45545C14.5769 8.45249 14.5769 8.44953 14.5769 8.44657C14.5769 8.44361 14.5769 8.44064 14.5769 8.43768C14.5769 8.43472 14.5769 8.43176 14.5769 8.4288C14.5769 8.42584 14.5769 8.42288 14.5769 8.41992C14.5769 8.41697 14.5769 8.41401 14.5769 8.41105C14.5769 8.40809 14.5769 8.40513 14.5769 8.40217C14.5769 8.39921 14.5769 8.39625 14.5769 8.39329C14.5769 8.39034 14.5769 8.38738 14.5769 8.38442C14.5769 8.38146 14.5769 8.3785 14.5769 8.37555C14.5769 8.37259 14.5769 8.36963 14.5769 8.36667C14.5769 8.36372 14.5769 8.36076 14.5769 8.3578C14.5769 8.35485 14.5769 8.35189 14.5769 8.34893C14.5769 8.34598 14.5769 8.34302 14.5769 8.34006C14.5769 8.33711 14.5769 8.33415 14.5769 8.3312C14.5769 8.32824 14.5769 8.32529 14.5769 8.32233C14.5769 8.31938 14.5769 8.31642 14.5769 8.31347C14.5769 8.31051 14.5769 8.30756 14.5769 8.3046C14.5769 8.30165 14.5769 8.2987 14.5769 8.29574C14.5769 8.29279 14.5769 8.28984 14.5769 8.28688C14.5769 8.28393 14.5769 8.28098 14.5769 8.27802C14.5769 8.27507 14.5769 8.27212 14.5769 8.26917C14.5769 8.26622 14.5769 8.26326 14.5769 8.26031C14.5769 8.25736 14.5769 8.25441 14.5769 8.25146C14.5769 8.24851 14.5769 8.24556 14.5769 8.24261C14.5769 8.23966 14.5769 8.23671 14.5769 8.23376C14.5769 8.23081 14.5769 8.22786 14.5769 8.22491C14.5769 8.22196 14.5769 8.21901 14.5769 8.21606C14.5769 8.21311 14.5769 8.21016 14.5769 8.20721C14.5769 8.20426 14.5769 8.20132 14.5769 8.19837C14.5769 8.19542 14.5769 8.19247 14.5769 8.18953C14.5769 8.18658 14.5769 8.18363 14.5769 8.18068C14.5769 8.17774 14.5769 8.17479 14.5769 8.17185C14.5769 8.1689 14.5769 8.16595 14.5769 8.16301C14.5769 8.16006 14.5769 8.15712 14.5769 8.15417C14.5769 8.15123 14.5769 8.14828 14.5769 8.14534C14.5769 8.14239 14.5769 8.13945 14.5769 8.13651C14.5769 8.13356 14.5769 8.13062 14.5769 8.12768C14.5769 8.12473 14.5769 8.12179 14.5769 8.11885C14.5769 8.11591 14.5769 8.11296 14.5769 8.11002C14.5769 8.10708 14.5769 8.10414 14.5769 8.1012C14.5769 8.09826 14.5769 8.09532 14.5769 8.09237C14.5769 8.08943 14.5769 8.08649 14.5769 8.08355C14.5769 8.08061 14.5769 8.07767 14.5769 8.07474C14.5769 8.0718 14.5769 8.06886 14.5769 8.06592C14.5769 8.06298 14.5769 8.06004 14.5769 8.0571C14.5769 8.05417 14.5769 8.05123 14.5769 8.04829C14.5769 8.04535 14.5769 8.04242 14.5769 8.03948C14.5769 8.03654 14.5769 8.03361 14.5769 8.03067C14.5769 8.02774 14.5769 8.0248 14.5769 8.02187C14.5769 8.01893 14.5769 8.016 14.5769 8.01306C14.5769 8.01013 14.5769 8.00719 14.5769 8.00426C14.5769 8.00133 14.5769 7.99839 14.5769 7.99546C14.5769 7.99253 14.5769 7.98959 14.5769 7.98666C14.5769 7.98373 14.5769 7.9808 14.5769 7.97787C14.5769 7.97494 14.5769 7.972 14.5769 7.96907C14.5769 7.96614 14.5769 7.96321 14.5769 7.96028C14.5769 7.95735 14.5769 7.95442 14.5769 7.95149C14.5769 7.94857 14.5769 7.94564 14.5769 7.94271C14.5769 7.93978 14.5769 7.93685 14.5769 7.93392C14.5769 7.931 14.5769 7.92807 14.5769 7.92514C14.5769 7.92222 14.5769 7.91929 14.5769 7.91636C14.5769 7.91344 14.5769 7.91051 14.5769 7.90759C14.5769 7.90466 14.5769 7.90174 14.5769 7.89881C14.5769 7.89589 14.5769 7.89296 14.5769 7.89004C14.5769 7.88712 14.5769 7.88419 14.5769 7.88127C14.5769 7.87835 14.5769 7.87542 14.5769 7.8725C14.5769 7.86958 14.5769 7.86666 14.5769 7.86374C14.5769 7.86082 14.5769 7.8579 14.5769 7.85498C14.5769 7.85206 14.5769 7.84914 14.5769 7.84622C14.5769 7.8433 14.5769 7.84038 14.5769 7.83746C14.5769 7.83454 14.5769 7.83162 14.5769 7.82871C14.5769 7.82579 14.5769 7.82287 14.5769 7.81995C14.5769 7.81704 14.5769 7.81412 14.5769 7.8112C14.5769 7.80829 14.5769 7.80537 14.5769 7.80246C14.5769 7.79954 14.5769 7.79663 14.5769 7.79371C14.5769 7.7908 14.5769 7.78789 14.5769 7.78497C14.5769 7.78206 14.5769 7.77915 14.5769 7.77623C14.5769 7.77332 14.5769 7.77041 14.5769 7.7675C14.5769 7.76459 14.5769 7.76168 14.5769 7.75877C14.5769 7.75586 14.5769 7.75295 14.5769 7.75004C14.5769 7.74713 14.5769 7.74422 14.5769 7.74131C14.5769 7.7384 14.5769 7.73549 14.5769 7.73258C14.5769 7.72968 14.5769 7.72677 14.5769 7.72386C14.5769 7.72096 14.5769 7.71805 14.5769 7.71514C14.5769 7.71224 14.5769 7.70933 14.5769 7.70643C14.5769 7.70352 14.5769 7.70062 14.5769 7.69772C14.5769 7.69481 14.5769 7.69191 14.5769 7.68901C14.5769 7.6861 14.5769 7.6832 14.5769 7.6803C14.5769 7.6774 14.5769 7.67449 14.5769 7.67159C14.5769 7.66869 14.5769 7.66579 14.5769 7.66289C14.5769 7.65999 14.5769 7.65709 14.5769 7.6542C14.5769 7.6513 14.5769 7.6484 14.5769 7.6455C14.5769 7.6426 14.5769 7.63971 14.5769 7.63681C14.5769 7.63391 14.5769 7.63102 14.5769 7.62812C14.5769 7.62522 14.5769 7.62233 14.5769 7.61943C14.5769 7.61654 14.5769 7.61365 14.5769 7.61075C14.5769 7.60786 14.5769 7.60496 14.5769 7.60207C14.5769 7.59918 14.5769 7.59629 14.5769 7.5934C14.5769 7.5905 14.5769 7.58761 14.5769 7.58472C14.5769 7.58183 14.5769 7.57894 14.5769 7.57605C14.5769 7.57316 14.5769 7.57028 14.5769 7.56739C14.5769 7.5645 14.5769 7.56161 14.5769 7.55872C14.5769 7.55584 14.5769 7.55295 14.5769 7.55006C14.5769 7.54718 14.5769 7.54429 14.5769 7.54141C14.5769 7.53852 14.5769 7.53564 14.5769 7.53275C14.5769 7.52987 14.5769 7.52699 14.5769 7.5241C14.5769 7.52122 14.5769 7.51834 14.5769 7.51546C14.5769 7.51258 14.5769 7.5097 14.5769 7.50681C14.5769 7.50393 14.5769 7.50105 14.5769 7.49817C14.5769 7.4953 14.5769 7.49242 14.5769 7.48954C14.5769 7.48666 14.5769 7.48378 14.5769 7.48091C14.5769 7.47803 14.5769 7.47515 14.5769 7.47228C14.5769 7.4694 14.5769 7.46653 14.5769 7.46365C14.5769 7.46078 14.5769 7.4579 14.5769 7.45503C14.5769 7.45216 14.5769 7.44928 14.5769 7.44641C14.5769 7.44354 14.5769 7.44067 14.5769 7.4378C14.5769 7.43492 14.5769 7.43205 14.5769 7.42918C14.5769 7.42631 14.5769 7.42344 14.5769 7.42058C14.5769 7.41771 14.5769 7.41484 14.5769 7.41197C14.5769 7.4091 14.5769 7.40624 14.5769 7.40337C14.5769 7.4005 14.5769 7.39764 14.5769 7.39477C14.5769 7.39191 14.5769 7.38904 14.5769 7.38618C14.5769 7.38332 14.5769 7.38045 14.5769 7.37759C14.5769 7.37473 14.5769 7.37187 14.5769 7.36901C14.5769 7.36614 14.5769 7.36328 14.5769 7.36042C14.5769 7.35756 14.5769 7.3547 14.5769 7.35185C14.5769 7.34899 14.5769 7.34613 14.5769 7.34327C14.5769 7.34041 14.5769 7.33756 14.5769 7.3347C14.5769 7.33185 14.5769 7.32899 14.5769 7.32613C14.5769 7.32328 14.5769 7.32043 14.5769 7.31757C14.5769 7.31472 14.5769 7.31187 14.5769 7.30901C14.5769 7.30616 14.5769 7.30331 14.5769 7.30046C14.5769 7.29761 14.5769 7.29476 14.5769 7.29191C14.5769 7.28906 14.5769 7.28621 14.5769 7.28336C14.5769 7.28051 14.5769 7.27767 14.5769 7.27482C14.5769 7.27197 14.5769 7.26912 14.5769 7.26628C14.5769 7.26343 14.5769 7.26059 14.5769 7.25774C14.5769 7.2549 14.5769 7.25206 14.5769 7.24921C14.5769 7.24637 14.5769 7.24353 14.5769 7.24069C14.5769 7.23785 14.5769 7.235 14.5769 7.23216C14.5769 7.22932 14.5769 7.22649 14.5769 7.22365C14.5769 7.22081 14.5769 7.21797 14.5769 7.21513C14.5769 7.21229 14.5769 7.20946 14.5769 7.20662C14.5769 7.20379 14.5769 7.20095 14.5769 7.19812C14.5769 7.19528 14.5769 7.19245 14.5769 7.18961C14.5769 7.18678 14.5769 7.18395 14.5769 7.18112C14.5769 7.17829 14.5769 7.17545 14.5769 7.17262C14.5769 7.16979 14.5769 7.16696 14.5769 7.16413C14.5769 7.16131 14.5769 7.15848 14.5769 7.15565C14.5769 7.15282 14.5769 7.15 14.5769 7.14717C14.5769 7.14434 14.5769 7.14152 14.5769 7.13869C14.5769 7.13587 14.5769 7.13305 14.5769 7.13022C14.5769 7.1274 14.5769 7.12458 14.5769 7.12176C14.5769 7.11893 14.5769 7.11611 14.5769 7.11329C14.5769 7.11047 14.5769 7.10765 14.5769 7.10483C14.5769 7.10202 14.5769 7.0992 14.5769 7.09638C14.5769 7.09356 14.5769 7.09075 14.5769 7.08793C14.5769 7.08512 14.5769 7.0823 14.5769 7.07949C14.5769 7.07667 14.5769 7.07386 14.5769 7.07105C14.5769 7.06823 14.5769 7.06542 14.5769 7.06261C14.5769 7.0598 14.5769 7.05699 14.5769 7.05418C14.5769 7.05137 14.5769 7.04856 14.5769 7.04575C14.5769 7.04294 14.5769 7.04014 14.5769 7.03733C14.5769 7.03452 14.5769 7.03172 14.5769 7.02891C14.5769 7.02611 14.5769 7.0233 14.5769 7.0205C14.5769 7.0177 14.5769 7.01489 14.5769 7.01209C14.5769 7.00929 14.5769 7.00649 14.5769 7.00369C14.5769 7.00089 14.5769 6.99809 14.5769 6.99529C14.5769 6.99249 14.5769 6.98969 14.5769 6.9869C14.5769 6.9841 14.5769 6.9813 14.5769 6.97851C14.5769 6.97571 14.5769 6.97292 14.5769 6.97012C14.5769 6.96733 14.5769 6.96454 14.5769 6.96174C14.5769 6.95895 14.5769 6.95616 14.5769 6.95337C14.5769 6.95058 14.5769 6.94779 14.5769 6.945C14.5769 6.94221 14.5769 6.93942 14.5769 6.93663C14.5769 6.93385 14.5769 6.93106 14.5769 6.92827C14.5769 6.92549 14.5769 6.9227 14.5769 6.91992C14.5769 6.91713 14.5769 6.91435 14.5769 6.91157C14.5769 6.90879 14.5769 6.906 14.5769 6.90322C14.5769 6.90044 14.5769 6.89766 14.5769 6.89488C14.5769 6.8921 14.5769 6.88933 14.5769 6.88655C14.5769 6.88377 14.5769 6.88099 14.5769 6.87822C14.5769 6.87544 14.5769 6.87267 14.5769 6.86989C14.5769 6.86712 14.5769 6.86435 14.5769 6.86157C14.5769 6.8588 14.5769 6.85603 14.5769 6.85326C14.5769 6.85049 14.5769 6.84772 14.5769 6.84495C14.5769 6.84218 14.5769 6.83941 14.5769 6.83664C14.5769 6.83388 14.5769 6.83111 14.5769 6.82834C14.5769 6.82558 14.5769 6.82281 14.5769 6.82005C14.5769 6.81729 14.5769 6.81452 14.5769 6.81176C14.5769 6.809 14.5769 6.80624 14.5769 6.80348C14.5769 6.80072 14.5769 6.79796 14.5769 6.7952C14.5769 6.79244 14.5769 6.78968 14.5769 6.78692C14.5769 6.78417 14.5769 6.78141 14.5769 6.77866C14.5769 6.7759 14.5769 6.77315 14.5769 6.77039C14.5769 6.76764 14.5769 6.76489 14.5769 6.76214C14.5769 6.75938 14.5769 6.75663 14.5769 6.75388C14.5769 6.75113 14.5769 6.74839 14.5769 6.74564C14.5769 6.74289 14.5769 6.74014 14.5769 6.7374C14.5769 6.73465 14.5769 6.7319 14.5769 6.72916C14.5769 6.72642 14.5769 6.72367 14.5769 6.72093C14.5769 6.71819 14.5769 6.71545 14.5769 6.7127C14.5769 6.70996 14.5769 6.70722 14.5769 6.70449C14.5769 6.70175 14.5769 6.69901 14.5769 6.69627C14.5769 6.69353 14.5769 6.6908 14.5769 6.68806C14.5769 6.68533 14.5769 6.68259 14.5769 6.67986C14.5769 6.67713 14.5769 6.67439 14.5769 6.67166C14.5769 6.66893 14.5769 6.6662 14.5769 6.66347C14.5769 6.66074 14.5769 6.65801 14.5769 6.65529C14.5769 6.65256 14.5769 6.64983 14.5769 6.6471C14.5769 6.64438 14.5769 6.64165 14.5769 6.63893C14.5769 6.63621 14.5769 6.63348 14.5769 6.63076C14.5769 6.62804 14.5769 6.62532 14.5769 6.6226C14.5769 6.61988 14.5769 6.61716 14.5769 6.61444C14.5769 6.61172 14.5769 6.609 14.5769 6.60629C14.5769 6.60357 14.5769 6.60086 14.5769 6.59814C14.5769 6.59543 14.5769 6.59271 14.5769 6.59C14.5769 6.58729 14.5769 6.58458 14.5769 6.58187C14.5769 6.57916 14.5769 6.57645 14.5769 6.57374C14.5769 6.57103 14.5769 6.56832 14.5769 6.56562C14.5769 6.56291 14.5769 6.5602 14.5769 6.5575C14.5769 6.55479 14.5769 6.55209 14.5769 6.54939C14.5769 6.54669 14.5769 6.54398 14.5769 6.54128C14.5769 6.53858 14.5769 6.53588 14.5769 6.53318C14.5769 6.53049 14.5769 6.52779 14.5769 6.52509C14.5769 6.52239 14.5769 6.5197 14.5769 6.517C14.5769 6.51431 14.5769 6.51162 14.5769 6.50892C14.5769 6.50623 14.5769 6.50354 14.5769 6.50085C14.5769 6.49816 14.5769 6.49547 14.5769 6.49278C14.5769 6.49009 14.5769 6.4874 14.5769 6.48472C14.5769 6.48203 14.5769 6.47934 14.5769 6.47666C14.5769 6.47398 14.5769 6.47129 14.5769 6.46861C14.5769 6.46593 14.5769 6.46325 14.5769 6.46056C14.5769 6.45788 14.5769 6.45521 14.5769 6.45253C14.5769 6.44985 14.5769 6.44717 14.5769 6.44449C14.5769 6.44182 14.5769 6.43914 14.5769 6.43647C14.5769 6.43379 14.5769 6.43112 14.5769 6.42845C14.5769 6.42578 14.5769 6.42311 14.5769 6.42044C14.5769 6.41777 14.5769 6.4151 14.5769 6.41243C14.5769 6.40976 14.5769 6.40709 14.5769 6.40443C14.5769 6.40176 14.5769 6.3991 14.5769 6.39643C14.5769 6.39377 14.5769 6.39111 14.5769 6.38845C14.5769 6.38578 14.5769 6.38312 14.5769 6.38046C14.5769 6.3778 14.5769 6.37515 14.5769 6.37249C14.5769 6.36983 14.5769 6.36717 14.5769 6.36452C14.5769 6.36186 14.5769 6.35921 14.5769 6.35656C14.5769 6.3539 14.5769 6.35125 14.5769 6.3486C14.5769 6.34595 14.5769 6.3433 14.5769 6.34065C14.5769 6.338 14.5769 6.33536 14.5769 6.33271C14.5769 6.33006 14.5769 6.32742 14.5769 6.32477C14.5769 6.32213 14.5769 6.31948 14.5769 6.31684C14.5769 6.3142 14.5769 6.31156 14.5769 6.30892C14.5769 6.30628 14.5769 6.30364 14.5769 6.301C14.5769 6.29836 14.5769 6.29573 14.5769 6.29309C14.5769 6.29046 14.5769 6.28782 14.5769 6.28519C14.5769 6.28255 14.5769 6.27992 14.5769 6.27729C14.5769 6.27466 14.5769 6.27203 14.5769 6.2694C14.5769 6.26677 14.5769 6.26414 14.5769 6.26152C14.5769 6.25889 14.5769 6.25627 14.5769 6.25364C14.5769 6.25102 14.5769 6.24839 14.5769 6.24577C14.5769 6.24315 14.5769 6.24053 14.5769 6.23791C14.5769 6.23529 14.5769 6.23267 14.5769 6.23005C14.5769 6.22743 14.5769 6.22482 14.5769 6.2222C14.5769 6.21959 14.5769 6.21697 14.5769 6.21436C14.5769 6.21175 14.5769 6.20913 14.5769 6.20652C14.5769 6.20391 14.5769 6.2013 14.5769 6.19869C14.5769 6.19608 14.5769 6.19348 14.5769 6.19087C14.5769 6.18827 14.5769 6.18566 14.5769 6.18306C14.5769 6.18045 14.5769 6.17785 14.5769 6.17525C14.5769 6.17265 14.5769 6.17005 14.5769 6.16745C14.5769 6.16485 14.5769 6.16225 14.5769 6.15965C14.5769 6.15706 14.5769 6.15446 14.5769 6.15186C14.5769 6.14927 14.5769 6.14668 14.5769 6.14408C14.5769 6.14149 14.5769 6.1389 14.5769 6.13631C14.5769 6.13372 14.5769 6.13113 14.5769 6.12854C14.5769 6.12596 14.5769 6.12337 14.5769 6.12079C14.5769 6.1182 14.5769 6.11562 14.5769 6.11303C14.5769 6.11045 14.5769 6.10787 14.5769 6.10529C14.5769 6.10271 14.5769 6.10013 14.5769 6.09755C14.5769 6.09497 14.5769 6.0924 14.5769 6.08982C14.5769 6.08725 14.5769 6.08467 14.5769 6.0821C14.5769 6.07952 14.5769 6.07695 14.5769 6.07438C14.5769 6.07181 14.5769 6.06924 14.5769 6.06667C14.5769 6.0641 14.5769 6.06154 14.5769 6.05897C14.5769 6.05641 14.5769 6.05384 14.5769 6.05128C14.5769 6.04871 14.5769 6.04615 14.5769 6.04359C14.5769 6.04103 14.5769 6.03847 14.5769 6.03591C14.5769 6.03335 14.5769 6.03079 14.5769 6.02824C14.5769 6.02568 14.5769 6.02313 14.5769 6.02057C14.5769 6.01802 14.5769 6.01547 14.5769 6.01292C14.5769 6.01036 14.5769 6.00781 14.5769 6.00527C14.5769 6.00272 14.5769 6.00017 14.5769 5.99762C14.5769 5.99508 14.5769 5.99253 14.5769 5.98999C14.5769 5.98744 14.5769 5.9849 14.5769 5.98236C14.5769 5.97982 14.5769 5.97728 14.5769 5.97474C14.5769 5.9722 14.5769 5.96966 14.5769 5.96713C14.5769 5.96459 14.5769 5.96206 14.5769 5.95952C14.5769 5.95699 14.5769 5.95446 14.5769 5.95193C14.5769 5.94939 14.5769 5.94686 14.5769 5.94434C14.5769 5.94181 14.5769 5.93928 14.5769 5.93675C14.5769 5.93423 14.5769 5.9317 14.5769 5.92918C14.5769 5.92666 14.5769 5.92413 14.5769 5.92161H13.5769ZM9.53269 6.67466C9.98809 6.60913 10.4016 6.34561 10.812 6.08025C11.2474 5.79869 11.7659 5.45044 12.5068 5.07747L12.0572 4.18425C11.2596 4.58573 10.6954 4.96479 10.269 5.2405C9.81758 5.5324 9.59007 5.65611 9.39025 5.68486L9.53269 6.67466ZM11.8651 4.90691C12.4714 5.82246 13.4122 6.1468 13.852 6.36822L14.3017 5.47501C13.7163 5.18031 13.1183 4.98817 12.6989 4.35481L11.8651 4.90691Z" fill="#7D94DF"/>
<path d="M5.10182 9.79372C4.53537 9.79372 4.07617 9.33141 4.07617 8.76112C4.07617 8.19083 4.53537 7.72852 5.10182 7.72852" stroke="#7D94DF"/>
<path d="M14.3337 7.72874C14.9002 7.72874 15.3594 8.19105 15.3594 8.76134C15.3594 9.33163 14.9002 9.79395 14.3337 9.79395" stroke="#7D94DF"/>
<path d="M15.291 8.24452C15.291 6.00062 15.7995 3.33966 14.0198 2.30705C13.0028 0.758151 11.1662 0.5 9.69771 0.5C8.46127 0.5 6.81005 0.850176 5.88409 1.79075M4.10441 8.24452C4.10441 6.39655 3.85022 4.88856 4.86713 3.08151" stroke="#7D94DF" stroke-linecap="round" stroke-linejoin="round"/>
<path d="M7.59256 15.4226C7.8497 15.3219 7.97653 15.0319 7.87586 14.7747C7.77518 14.5176 7.48512 14.3908 7.22798 14.4914L7.59256 15.4226ZM9.75007 24.7505C10.0262 24.7505 10.2501 24.5266 10.2501 24.2505C10.2501 23.9743 10.0262 23.7505 9.75007 23.7505V24.7505ZM1.29565 23.0173L0.809429 22.9007L1.29565 23.0173ZM3.46331 17.0393L7.59256 15.4226L7.22798 14.4914L3.09873 16.1082L3.46331 17.0393ZM9.75007 23.7505H2.26809V24.7505H9.75007V23.7505ZM1.78187 23.1339L3.15938 17.3883L2.18694 17.1552L0.809429 22.9007L1.78187 23.1339ZM2.26809 23.7505C1.9448 23.7505 1.7065 23.4483 1.78187 23.1339L0.809429 22.9007C0.583306 23.8439 1.29821 24.7505 2.26809 24.7505V23.7505ZM3.09873 16.1082C2.64184 16.287 2.30133 16.6781 2.18694 17.1552L3.15938 17.3883C3.19751 17.2293 3.31101 17.099 3.46331 17.0393L3.09873 16.1082Z" fill="#7D94DF"/>
<path d="M12.026 14.957L13.3447 15.4733" stroke="#7D94DF" stroke-linecap="round"/>
<line x1="4.2002" y1="21.5" x2="4.2002" y2="24" stroke="#7D94DF" stroke-linecap="round"/>
<path d="M4.125 21.4639L1.82493 21.4639" stroke="#7D94DF" stroke-linecap="round"/>
<path d="M8.16699 13.4072C8.16699 13.1311 7.94313 12.9072 7.66699 12.9072C7.39085 12.9072 7.16699 13.1311 7.16699 13.4072H8.16699ZM12.2696 13.4072C12.2696 13.1311 12.0457 12.9072 11.7696 12.9072C11.4934 12.9072 11.2696 13.1311 11.2696 13.4072H12.2696ZM10.2311 17.005C10.5072 17.005 10.7311 16.7812 10.7311 16.505C10.7311 16.2289 10.5072 16.005 10.2311 16.005V17.005ZM11.2696 15.4724C11.2696 15.7486 11.4934 15.9724 11.7696 15.9724C12.0457 15.9724 12.2696 15.7486 12.2696 15.4724H11.2696ZM8.16699 14.505V13.4072H7.16699V14.505H8.16699ZM10.2311 16.005H9.66699V17.005H10.2311V16.005ZM11.2696 13.4072V15.4724H12.2696V13.4072H11.2696ZM7.16699 14.505C7.16699 15.8857 8.28628 17.005 9.66699 17.005V16.005C8.83856 16.005 8.16699 15.3335 8.16699 14.505H7.16699Z" fill="#7D94DF"/>
<line x1="21" y1="22.7002" x2="21" y2="23.5752" stroke="#7D94DF" stroke-linecap="round"/>
</svg>
