<svg width="50" height="50" viewBox="0 0 50 50" fill="none" xmlns="http://www.w3.org/2000/svg">
<path fill-rule="evenodd" clip-rule="evenodd" d="M41 22.1384V35C41 40.5228 36.5228 45 31 45H16C10.4772 45 6 40.5228 6 35V20C6 14.4772 10.4772 10 16 10H27.1976L26.4566 12H16C11.5817 12 8 15.5817 8 20V35C8 39.4183 11.5817 43 16 43H31C35.4183 43 39 39.4183 39 35V22.4792L41 22.1384Z" fill="black"/>
<path d="M22.0254 24.2493L39.7207 6.33922C40.7711 5.27606 42.4845 5.26572 43.5477 6.31613C44.6108 7.36654 44.6212 9.07994 43.5708 10.1431L26.0483 27.8783C25.937 27.991 25.8004 28.0756 25.65 28.1252L20.1701 29.9314L22.0254 24.2493Z" stroke="black" stroke-width="2"/>
<line x1="36.8575" y1="9.29277" x2="40.8575" y2="13.2928" stroke="black" stroke-width="2"/>
<path d="M22.1586 23.7368L22.7742 23.932C24.5008 24.4797 25.7962 25.9184 26.1604 27.6927L26.2542 28.15" stroke="black" stroke-width="2"/>
</svg>
