<svg width="18" height="20" viewBox="0 0 18 20" fill="none" xmlns="http://www.w3.org/2000/svg">
<path d="M9.35733 18.6393H2.7123C1.96651 18.6393 1.3563 18.0271 1.3563 17.2789V2.72113C1.3563 1.97292 1.96651 1.36071 2.7123 1.36071H9.35733C9.73023 1.36071 10.0355 1.05449 10.0355 0.680357C10.0355 0.306238 9.73025 0 9.35733 0H2.7123C1.22043 0 0 1.2244 0 2.72113V17.2789C0 18.7756 1.22043 20 2.7123 20H9.35733C9.73023 20 10.0355 19.6938 10.0355 19.3196C10.0355 18.9455 9.73025 18.6395 9.35733 18.6395V18.6393Z" fill="black"/>
<path d="M17.2565 9.8982C17.2565 9.86425 17.2565 9.86425 17.2227 9.83007C17.2227 9.79612 17.2227 9.76195 17.1888 9.76195C17.155 9.76195 17.1888 9.728 17.155 9.69382C17.155 9.65987 17.155 9.65987 17.1211 9.65987V9.59175L12.7812 4.86425C12.5101 4.59221 12.0693 4.59221 11.7981 4.8303C11.527 5.10234 11.527 5.51066 11.7643 5.78268L15.0527 9.31994H5.6613C5.2884 9.31994 4.98315 9.62616 4.98315 10.0003C4.98315 10.3744 5.28838 10.6807 5.6613 10.6807H15.0527L11.764 14.2182C11.5267 14.4902 11.5267 14.8985 11.7979 15.1705C11.9335 15.3066 12.1031 15.3747 12.2725 15.3747C12.476 15.3747 12.6454 15.2726 12.781 15.1366L17.0866 10.4768V10.4086C17.1205 10.4086 17.1205 10.4086 17.1205 10.3747C17.1884 10.3408 17.1884 10.3408 17.1884 10.3066C17.2222 10.3066 17.2222 10.2726 17.2222 10.2384C17.2561 10.2045 17.256 10.2045 17.256 10.1703C17.256 10.1364 17.2899 10.0683 17.2899 10.0343C17.2903 10.0004 17.2565 9.93223 17.2565 9.89828L17.2565 9.8982Z" fill="black"/>
</svg>
