<svg width="56" height="56" viewBox="0 0 56 56" fill="none" xmlns="http://www.w3.org/2000/svg">
<path d="M42 0H14C6.26801 0 0 6.26801 0 14V42C0 49.732 6.26801 56 14 56H42C49.732 56 56 49.732 56 42V14C56 6.26801 49.732 0 42 0Z" fill="url(#paint0_linear_585_4366)"/>
<g filter="url(#filter0_i_585_4366)">
<mask id="mask0_585_4366" style="mask-type:alpha" maskUnits="userSpaceOnUse" x="7" y="13" width="42" height="30">
<path fill-rule="evenodd" clip-rule="evenodd" d="M23.8001 16.072C23.8001 14.8349 24.803 13.832 26.0401 13.832H46.0881C47.3252 13.832 48.3281 14.8349 48.3281 16.072V18.928V25.592V39.872C48.3281 41.1091 47.3252 42.112 46.0881 42.112H9.91212C8.67502 42.112 7.67212 41.1091 7.67212 39.872V18.928C7.67212 17.963 8.2823 17.1406 9.13786 16.8255C9.46709 16.7042 9.74412 16.4229 9.74412 16.072C9.74412 14.8349 10.747 13.832 11.9841 13.832H17.1361C18.3732 13.832 19.3761 14.8349 19.3761 16.072C19.3761 16.4122 19.6519 16.688 19.9921 16.688H23.1841C23.5243 16.688 23.8001 16.4122 23.8001 16.072Z" fill="white"/>
</mask>
<g mask="url(#mask0_585_4366)">
<path fill-rule="evenodd" clip-rule="evenodd" d="M23.8001 16.072C23.8001 14.8349 24.803 13.832 26.0401 13.832H46.0881C47.3252 13.832 48.3281 14.8349 48.3281 16.072V18.928V25.592V39.872C48.3281 41.1091 47.3252 42.112 46.0881 42.112H9.91212C8.67502 42.112 7.67212 41.1091 7.67212 39.872V18.928C7.67212 17.963 8.2823 17.1406 9.13786 16.8255C9.46709 16.7042 9.74412 16.4229 9.74412 16.072C9.74412 14.8349 10.747 13.832 11.9841 13.832H17.1361C18.3732 13.832 19.3761 14.8349 19.3761 16.072C19.3761 16.4122 19.6519 16.688 19.9921 16.688H23.1841C23.5243 16.688 23.8001 16.4122 23.8001 16.072Z" fill="url(#paint1_linear_585_4366)"/>
<path d="M26.0401 13.72C24.7411 13.72 23.6881 14.773 23.6881 16.072H23.9121C23.9121 14.8967 24.8648 13.944 26.0401 13.944V13.72ZM46.0881 13.72H26.0401V13.944H46.0881V13.72ZM48.4401 16.072C48.4401 14.773 47.387 13.72 46.0881 13.72V13.944C47.2633 13.944 48.2161 14.8967 48.2161 16.072H48.4401ZM48.4401 18.928V16.072H48.2161V18.928H48.4401ZM48.4401 25.592V18.928H48.2161V25.592H48.4401ZM48.4401 39.872V25.592H48.2161V39.872H48.4401ZM46.0881 42.224C47.387 42.224 48.4401 41.171 48.4401 39.872H48.2161C48.2161 41.0473 47.2633 42 46.0881 42V42.224ZM9.91206 42.224H46.0881V42H9.91206V42.224ZM7.56006 39.872C7.56006 41.171 8.61308 42.224 9.91206 42.224V42C8.73679 42 7.78406 41.0473 7.78406 39.872H7.56006ZM7.56006 18.928V39.872H7.78406V18.928H7.56006ZM9.09911 16.7203C8.20092 17.0511 7.56006 17.9146 7.56006 18.928H7.78406C7.78406 18.0114 8.36355 17.2299 9.17655 16.9305L9.09911 16.7203ZM9.85606 16.072C9.85606 14.8967 10.8088 13.944 11.9841 13.944V13.72C10.6851 13.72 9.63206 14.773 9.63206 16.072H9.85606ZM11.9841 13.944H17.1361V13.72H11.9841V13.944ZM17.1361 13.944C18.3113 13.944 19.2641 14.8967 19.2641 16.072H19.4881C19.4881 14.773 18.435 13.72 17.1361 13.72V13.944ZM23.1841 16.576H19.9921V16.8H23.1841V16.576ZM23.1841 16.8C23.5861 16.8 23.9121 16.4741 23.9121 16.072H23.6881C23.6881 16.3503 23.4624 16.576 23.1841 16.576V16.8ZM19.2641 16.072C19.2641 16.4741 19.59 16.8 19.9921 16.8V16.576C19.7137 16.576 19.4881 16.3503 19.4881 16.072H19.2641ZM9.17655 16.9305C9.53193 16.7996 9.85606 16.4863 9.85606 16.072H9.63206C9.63206 16.3594 9.40212 16.6087 9.09911 16.7203L9.17655 16.9305Z" fill="url(#paint2_linear_585_4366)" fill-opacity="0.35"/>
</g>
</g>
<path d="M32.6759 38.0801C37.4543 38.0801 41.3279 34.2065 41.3279 29.4281C41.3279 24.6498 37.4543 20.7761 32.6759 20.7761C27.8976 20.7761 24.0239 24.6498 24.0239 29.4281C24.0239 34.2065 27.8976 38.0801 32.6759 38.0801Z" fill="url(#paint3_linear_585_4366)"/>
<path d="M32.676 38.0522C37.4389 38.0522 41.3 34.1911 41.3 29.4282C41.3 24.6653 37.4389 20.8042 32.676 20.8042C27.9131 20.8042 24.052 24.6653 24.052 29.4282C24.052 34.1911 27.9131 38.0522 32.676 38.0522Z" stroke="white" stroke-opacity="0.35"/>
<path d="M38.6401 29.456C38.6401 32.7344 35.9824 35.392 32.7041 35.392C29.4257 35.392 26.7681 32.7344 26.7681 29.456C26.7681 26.1777 29.4257 23.52 32.7041 23.52C35.9824 23.52 38.6401 26.1777 38.6401 29.456Z" fill="#273C83"/>
<path d="M38.6121 29.4561C38.6121 32.719 35.967 35.3641 32.7041 35.3641C29.4412 35.3641 26.7961 32.719 26.7961 29.4561C26.7961 26.1932 29.4412 23.5481 32.7041 23.5481C35.967 23.5481 38.6121 26.1932 38.6121 29.4561Z" stroke="white" stroke-opacity="0.35"/>
<defs>
<filter id="filter0_i_585_4366" x="7.67212" y="13.832" width="40.656" height="29.28" filterUnits="userSpaceOnUse" color-interpolation-filters="sRGB">
<feFlood flood-opacity="0" result="BackgroundImageFix"/>
<feBlend mode="normal" in="SourceGraphic" in2="BackgroundImageFix" result="shape"/>
<feColorMatrix in="SourceAlpha" type="matrix" values="0 0 0 0 0 0 0 0 0 0 0 0 0 0 0 0 0 0 127 0" result="hardAlpha"/>
<feOffset dy="1"/>
<feGaussianBlur stdDeviation="12"/>
<feComposite in2="hardAlpha" operator="arithmetic" k2="-1" k3="1"/>
<feColorMatrix type="matrix" values="0 0 0 0 0 0 0 0 0 0 0 0 0 0 0 0 0 0 0.1 0"/>
<feBlend mode="normal" in2="shape" result="effect1_innerShadow_585_4366"/>
</filter>
<linearGradient id="paint0_linear_585_4366" x1="-8.204" y1="-19.124" x2="88.368" y2="114.66" gradientUnits="userSpaceOnUse">
<stop stop-color="white"/>
<stop offset="1" stop-color="#7D94DF"/>
</linearGradient>
<linearGradient id="paint1_linear_585_4366" x1="12.4321" y1="15.764" x2="49.9801" y2="43.904" gradientUnits="userSpaceOnUse">
<stop stop-color="#273C83"/>
<stop offset="1" stop-color="#273C83" stop-opacity="0.23"/>
</linearGradient>
<linearGradient id="paint2_linear_585_4366" x1="48.0201" y1="41.86" x2="8.73605" y2="14.336" gradientUnits="userSpaceOnUse">
<stop stop-color="white"/>
<stop offset="0.208333" stop-color="white" stop-opacity="0"/>
<stop offset="0.645833" stop-color="white" stop-opacity="0"/>
<stop offset="1" stop-color="white"/>
</linearGradient>
<linearGradient id="paint3_linear_585_4366" x1="32.6759" y1="20.7761" x2="32.6759" y2="38.0801" gradientUnits="userSpaceOnUse">
<stop stop-color="white" stop-opacity="0.83"/>
<stop offset="1" stop-color="white" stop-opacity="0.18"/>
</linearGradient>
</defs>
</svg>
