<svg width="32" height="22" viewBox="0 0 32 22" fill="none" xmlns="http://www.w3.org/2000/svg">
<path d="M6.13158 1.39624C6.40772 1.39624 6.63158 1.17238 6.63158 0.89624C6.63158 0.620098 6.40772 0.39624 6.13158 0.39624V1.39624ZM11.6579 0.39624C11.3818 0.39624 11.1579 0.620098 11.1579 0.89624C11.1579 1.17238 11.3818 1.39624 11.6579 1.39624V0.39624ZM30.5 3.89624V18.5H31.5V3.89624H30.5ZM28 21H4V22H28V21ZM1.5 18.5V3.89624H0.5V18.5H1.5ZM4 1.39624H6.13158V0.39624H4V1.39624ZM11.6579 1.39624H28V0.39624H11.6579V1.39624ZM4 21C2.61929 21 1.5 19.8807 1.5 18.5H0.5C0.5 20.433 2.067 22 4 22V21ZM30.5 18.5C30.5 19.8807 29.3807 21 28 21V22C29.933 22 31.5 20.433 31.5 18.5H30.5ZM31.5 3.89624C31.5 1.96324 29.933 0.39624 28 0.39624V1.39624C29.3807 1.39624 30.5 2.51553 30.5 3.89624H31.5ZM1.5 3.89624C1.5 2.51553 2.61929 1.39624 4 1.39624V0.39624C2.067 0.39624 0.5 1.96325 0.5 3.89624H1.5Z" fill="#7D94DF"/>
<path d="M1.43533 2.04161L12.8121 13.4613L13.5206 12.7555L2.14377 1.33583L1.43533 2.04161ZM19.188 13.4613L30.5648 2.04161L29.8564 1.33583L18.4796 12.7555L19.188 13.4613ZM12.8121 13.4613C14.5708 15.2267 17.4293 15.2267 19.188 13.4613L18.4796 12.7555C17.1117 14.1286 14.8884 14.1286 13.5206 12.7555L12.8121 13.4613Z" fill="#7D94DF"/>
<path d="M1.43533 20.3546L10.909 10.8452L11.6175 11.551L2.14377 21.0604L1.43533 20.3546ZM21.0911 10.8452L30.5648 20.3546L29.8564 21.0604L20.3827 11.551L21.0911 10.8452Z" fill="#7D94DF"/>
<line x1="27.3418" y1="4.56592" x2="19.6576" y2="4.56592" stroke="#7D94DF" stroke-linecap="round"/>
<ellipse cx="17.1838" cy="4.46214" rx="0.394737" ry="0.396226" fill="#7D94DF"/>
<ellipse cx="8.89474" cy="0.896226" rx="0.394737" ry="0.396226" fill="#7D94DF"/>
</svg>
