<svg width="42" height="29" viewBox="0 0 42 29" fill="none" xmlns="http://www.w3.org/2000/svg">
<path d="M7.84211 1.02832C8.11825 1.02832 8.34211 0.804463 8.34211 0.52832C8.34211 0.252178 8.11825 0.0283203 7.84211 0.0283203V1.02832ZM15.2105 0.0283203C14.9344 0.0283203 14.7105 0.252178 14.7105 0.52832C14.7105 0.804463 14.9344 1.02832 15.2105 1.02832V0.0283203ZM40.5 3.52832V25H41.5V3.52832H40.5ZM38 27.5H4V28.5H38V27.5ZM1.5 25V3.52832H0.5V25H1.5ZM4 1.02832H7.84211V0.0283203H4V1.02832ZM15.2105 1.02832H38V0.0283203H15.2105V1.02832ZM4 27.5C2.61929 27.5 1.5 26.3807 1.5 25H0.5C0.5 26.933 2.067 28.5 4 28.5V27.5ZM40.5 25C40.5 26.3807 39.3807 27.5 38 27.5V28.5C39.933 28.5 41.5 26.933 41.5 25H40.5ZM41.5 3.52832C41.5 1.59532 39.933 0.0283203 38 0.0283203V1.02832C39.3807 1.02832 40.5 2.14761 40.5 3.52832H41.5ZM1.5 3.52832C1.5 2.14761 2.61929 1.02832 4 1.02832V0.0283203C2.067 0.0283203 0.5 1.59533 0.5 3.52832H1.5Z" fill="#273C83"/>
<path d="M1.69852 1.93785L17.8121 18.1123L18.5206 17.4065L2.40695 1.23207L1.69852 1.93785ZM24.1881 18.1123L40.3017 1.93785L39.5933 1.23207L23.4796 17.4065L24.1881 18.1123ZM17.8121 18.1123C19.5709 19.8776 22.4294 19.8776 24.1881 18.1123L23.4796 17.4065C22.1117 18.7796 19.8885 18.7796 18.5206 17.4065L17.8121 18.1123Z" fill="#273C83"/>
<path d="M1.69852 26.5905L14.3301 13.9112L15.0385 14.617L2.40695 27.2962L1.69852 26.5905ZM27.6701 13.9112L40.3017 26.5905L39.5933 27.2962L26.9617 14.617L27.6701 13.9112Z" fill="#273C83"/>
<line x1="36.2891" y1="5.25464" x2="25.7101" y2="5.25464" stroke="#273C83" stroke-linecap="round"/>
<ellipse cx="22.5786" cy="5.28294" rx="0.526316" ry="0.528302" fill="#273C83"/>
<ellipse cx="11.5263" cy="0.528302" rx="0.526316" ry="0.528302" fill="#273C83"/>
</svg>
