<svg width="32" height="23" viewBox="0 0 32 23" fill="none" xmlns="http://www.w3.org/2000/svg">
<path d="M6.13158 1.89624C6.40772 1.89624 6.63158 1.67238 6.63158 1.39624C6.63158 1.1201 6.40772 0.89624 6.13158 0.89624V1.89624ZM11.6579 0.89624C11.3818 0.89624 11.1579 1.1201 11.1579 1.39624C11.1579 1.67238 11.3818 1.89624 11.6579 1.89624V0.89624ZM30.5 4.39624V19H31.5V4.39624H30.5ZM28 21.5H4V22.5H28V21.5ZM1.5 19V4.39624H0.5V19H1.5ZM4 1.89624H6.13158V0.89624H4V1.89624ZM11.6579 1.89624H28V0.89624H11.6579V1.89624ZM4 21.5C2.61929 21.5 1.5 20.3807 1.5 19H0.5C0.5 20.933 2.067 22.5 4 22.5V21.5ZM30.5 19C30.5 20.3807 29.3807 21.5 28 21.5V22.5C29.933 22.5 31.5 20.933 31.5 19H30.5ZM31.5 4.39624C31.5 2.46324 29.933 0.89624 28 0.89624V1.89624C29.3807 1.89624 30.5 3.01553 30.5 4.39624H31.5ZM1.5 4.39624C1.5 3.01553 2.61929 1.89624 4 1.89624V0.89624C2.067 0.89624 0.5 2.46325 0.5 4.39624H1.5Z" fill="#273C83"/>
<path d="M1.43533 2.54161L12.8121 13.9613L13.5206 13.2555L2.14377 1.83583L1.43533 2.54161ZM19.188 13.9613L30.5648 2.54161L29.8564 1.83583L18.4796 13.2555L19.188 13.9613ZM12.8121 13.9613C14.5708 15.7267 17.4293 15.7267 19.188 13.9613L18.4796 13.2555C17.1117 14.6286 14.8884 14.6286 13.5206 13.2555L12.8121 13.9613Z" fill="#273C83"/>
<path d="M1.43533 20.8546L10.909 11.3452L11.6175 12.051L2.14377 21.5604L1.43533 20.8546ZM21.0911 11.3452L30.5648 20.8546L29.8564 21.5604L20.3827 12.051L21.0911 11.3452Z" fill="#273C83"/>
<line x1="27.3418" y1="5.06592" x2="19.6576" y2="5.06592" stroke="#273C83" stroke-linecap="round"/>
<ellipse cx="17.1838" cy="4.96214" rx="0.394737" ry="0.396226" fill="#273C83"/>
<ellipse cx="8.89474" cy="1.39623" rx="0.394737" ry="0.396226" fill="#273C83"/>
</svg>
