<svg width="27" height="21" viewBox="0 0 27 21" fill="none" xmlns="http://www.w3.org/2000/svg">
<rect x="-0.5" y="0.5" width="26" height="17" rx="3.5" transform="matrix(-1 0 0 1 26 2.5)" stroke="#7D94DF"/>
<path d="M11.9254 9.53929C12.042 9.28897 11.9336 8.99152 11.6833 8.87491C11.433 8.7583 11.1355 8.86669 11.0189 9.11701L11.9254 9.53929ZM13.8129 6.14337C13.5707 6.27598 13.4818 6.57983 13.6144 6.82205C13.747 7.06427 14.0509 7.15313 14.2931 7.02052L13.8129 6.14337ZM22.5689 11.8333C22.5689 14.865 20.0788 17.3333 16.9939 17.3333V18.3333C20.6193 18.3333 23.5689 15.4289 23.5689 11.8333H22.5689ZM16.9939 17.3333C13.9091 17.3333 11.4189 14.865 11.4189 11.8333H10.4189C10.4189 15.4289 13.3685 18.3333 16.9939 18.3333V17.3333ZM16.9939 6.33325C20.0788 6.33325 22.5689 8.80152 22.5689 11.8333H23.5689C23.5689 8.23756 20.6193 5.33325 16.9939 5.33325V6.33325ZM11.4189 11.8333C11.4189 11.0136 11.6003 10.237 11.9254 9.53929L11.0189 9.11701C10.6337 9.94401 10.4189 10.8645 10.4189 11.8333H11.4189ZM14.2931 7.02052C15.0925 6.58285 16.0128 6.33325 16.9939 6.33325V5.33325C15.8413 5.33325 14.7562 5.62691 13.8129 6.14337L14.2931 7.02052Z" fill="#7D94DF"/>
<path d="M21.0994 11.8822C21.0994 14.1776 19.2137 16.0489 16.8744 16.0489C14.5351 16.0489 12.6494 14.1776 12.6494 11.8822C12.6494 9.58689 14.5351 7.71558 16.8744 7.71558C19.2137 7.71558 21.0994 9.58689 21.0994 11.8822Z" stroke="#7D94DF"/>
<path d="M16.875 10.0488C16.5989 10.0488 16.375 10.2727 16.375 10.5488C16.375 10.825 16.5989 11.0488 16.875 11.0488V10.0488ZM17.725 11.8822C17.725 12.1583 17.9489 12.3822 18.225 12.3822C18.5011 12.3822 18.725 12.1583 18.725 11.8822H17.725ZM16.875 11.0488C17.3503 11.0488 17.725 11.4278 17.725 11.8822H18.725C18.725 10.8638 17.8909 10.0488 16.875 10.0488V11.0488Z" fill="#7D94DF"/>
<line x1="3.87402" y1="7.33325" x2="7.59902" y2="7.33325" stroke="#7D94DF" stroke-linecap="round"/>
<circle r="0.335423" transform="matrix(0.711485 -0.702701 0.711485 0.702701 12.698 7.59082)" fill="#7D94DF"/>
<path d="M4.5498 2.1875C4.5498 1.53166 5.08147 1 5.7373 1C6.39314 1 6.9248 1.53166 6.9248 2.1875V2.66667H4.5498V2.1875Z" stroke="#7D94DF"/>
<path d="M11.9746 2.5C11.9746 1.67157 12.6462 1 13.4746 1H20.2746C21.103 1 21.7746 1.67157 21.7746 2.5V2.66667H11.9746V2.5Z" stroke="#7D94DF"/>
</svg>
