<svg width="26" height="26" viewBox="0 0 26 26" fill="none" xmlns="http://www.w3.org/2000/svg">
<path d="M16.4504 12.9C16.4504 14.7778 14.9282 16.3 13.0504 16.3C11.1726 16.3 9.65039 14.7778 9.65039 12.9C9.65039 11.0222 11.1726 9.5 13.0504 9.5C14.9282 9.5 16.4504 11.0222 16.4504 12.9Z" stroke="black"/>
<path d="M8.1167 5.74433C9.42823 6.19444 10.8697 5.59738 11.4788 4.3517C12.1182 3.04399 13.982 3.04399 14.6215 4.3517C15.2306 5.59738 16.6721 6.19444 17.9836 5.74433C19.3604 5.2718 20.6783 6.5897 20.2058 7.96655C19.7557 9.27809 20.3528 10.7195 21.5984 11.3287C22.9062 11.9681 22.9062 13.8319 21.5984 14.4713C20.3528 15.0805 19.7557 16.5219 20.2058 17.8334C20.6783 19.2103 19.3604 20.5282 17.9836 20.0557C16.6721 19.6056 15.2306 20.2026 14.6215 21.4483C13.982 22.756 12.1182 22.756 11.4788 21.4483C10.8697 20.2026 9.42823 19.6056 8.1167 20.0557C6.73985 20.5282 5.42195 19.2103 5.89448 17.8334C6.34459 16.5219 5.74752 15.0805 4.50185 14.4713C3.19414 13.8319 3.19414 11.9681 4.50185 11.3287C5.74752 10.7195 6.34459 9.27809 5.89448 7.96655C5.42195 6.5897 6.73985 5.2718 8.1167 5.74433Z" stroke="black"/>
</svg>
