<svg width="16" height="17" viewBox="0 0 16 17" fill="none" xmlns="http://www.w3.org/2000/svg">
<mask id="path-1-inside-1_585_4334" fill="white">
<path d="M8.81104 9.86353L9.54949 9.19746L14.3929 14.4368C14.5793 14.6385 14.5651 14.9511 14.3612 15.135V15.135C14.1572 15.3189 13.8408 15.3046 13.6544 15.1029L8.81104 9.86353Z"/>
</mask>
<path d="M8.81104 9.86353L8.13222 9.12921L7.38966 9.79899L8.06847 10.5333L8.81104 9.86353ZM9.54949 9.19746L10.2921 8.52768L9.61324 7.79337L8.87068 8.46315L9.54949 9.19746ZM9.48985 10.5978L10.2283 9.93177L8.87068 8.46315L8.13222 9.12921L9.48985 10.5978ZM8.80693 9.86723L13.6503 15.1066L15.1354 13.7671L10.2921 8.52768L8.80693 9.86723ZM14.397 14.4331L9.5536 9.19375L8.06847 10.5333L12.9118 15.7727L14.397 14.4331ZM13.6823 14.4007C13.8885 14.2147 14.2085 14.2292 14.397 14.4331L12.9118 15.7727C13.4731 16.3799 14.4259 16.4231 15.04 15.8693L13.6823 14.4007ZM13.6503 15.1066C13.4618 14.9027 13.4762 14.5867 13.6823 14.4007L15.04 15.8693C15.654 15.3155 15.6967 14.3743 15.1354 13.7671L13.6503 15.1066Z" fill="#273C83" mask="url(#path-1-inside-1_585_4334)"/>
<path d="M10.9995 6.17367C10.9995 8.75584 8.87868 10.8596 6.24951 10.8596C3.62035 10.8596 1.49951 8.75584 1.49951 6.17367C1.49951 3.59151 3.62035 1.48779 6.24951 1.48779C8.87868 1.48779 10.9995 3.59151 10.9995 6.17367Z" stroke="#273C83"/>
</svg>
