<svg width="52" height="44" viewBox="0 0 52 44" fill="none" xmlns="http://www.w3.org/2000/svg">
<g clip-path="url(#clip0_2041_4089)" filter="url(#filter0_d_2041_4089)">
<g filter="url(#filter1_i_2041_4089)">
<mask id="mask0_2041_4089" style="mask-type:alpha" maskUnits="userSpaceOnUse" x="10" y="10" width="32" height="24">
<path fill-rule="evenodd" clip-rule="evenodd" d="M22.7223 12.692C22.7223 11.7266 23.5049 10.944 24.4703 10.944H40.1149C41.0803 10.944 41.8629 11.7266 41.8629 12.692V14.9207V20.121V31.2645C41.8629 32.2298 41.0803 33.0125 40.1149 33.0125H11.8847C10.9193 33.0125 10.1367 32.2298 10.1367 31.2645V14.9207C10.1367 14.1676 10.6129 13.5259 11.2805 13.2799C11.5374 13.1853 11.7536 12.9658 11.7536 12.692C11.7536 11.7266 12.5362 10.944 13.5016 10.944H17.522C18.4874 10.944 19.27 11.7266 19.27 12.692C19.27 12.9574 19.4852 13.1727 19.7507 13.1727H22.2416C22.5071 13.1727 22.7223 12.9574 22.7223 12.692Z" fill="white"/>
</mask>
<g mask="url(#mask0_2041_4089)">
<path fill-rule="evenodd" clip-rule="evenodd" d="M22.7223 12.692C22.7223 11.7266 23.5049 10.944 24.4703 10.944H40.1149C41.0803 10.944 41.8629 11.7266 41.8629 12.692V14.9207V20.121V31.2645C41.8629 32.2298 41.0803 33.0125 40.1149 33.0125H11.8847C10.9193 33.0125 10.1367 32.2298 10.1367 31.2645V14.9207C10.1367 14.1676 10.6129 13.5259 11.2805 13.2799C11.5374 13.1853 11.7536 12.9658 11.7536 12.692C11.7536 11.7266 12.5362 10.944 13.5016 10.944H17.522C18.4874 10.944 19.27 11.7266 19.27 12.692C19.27 12.9574 19.4852 13.1727 19.7507 13.1727H22.2416C22.5071 13.1727 22.7223 12.9574 22.7223 12.692Z" fill="url(#paint0_linear_2041_4089)"/>
<path d="M24.4703 10.8565C23.4567 10.8565 22.6349 11.6782 22.6349 12.6919H22.8097C22.8097 11.7748 23.5532 11.0313 24.4703 11.0313V10.8565ZM40.1149 10.8565H24.4703V11.0313H40.1149V10.8565ZM41.9503 12.6919C41.9503 11.6782 41.1286 10.8565 40.1149 10.8565V11.0313C41.032 11.0313 41.7755 11.7748 41.7755 12.6919H41.9503ZM41.9503 14.9206V12.6919H41.7755V14.9206H41.9503ZM41.9503 20.1209V14.9206H41.7755V20.1209H41.9503ZM41.9503 31.2644V20.1209H41.7755V31.2644H41.9503ZM40.1149 33.0998C41.1286 33.0998 41.9503 32.2781 41.9503 31.2644H41.7755C41.7755 32.1816 41.032 32.925 40.1149 32.925V33.0998ZM11.8847 33.0998H40.1149V32.925H11.8847V33.0998ZM10.0493 31.2644C10.0493 32.2781 10.8711 33.0998 11.8847 33.0998V32.925C10.9676 32.925 10.2241 32.1816 10.2241 31.2644H10.0493ZM10.0493 14.9206V31.2644H10.2241V14.9206H10.0493ZM11.2503 13.1978C10.5494 13.456 10.0493 14.1298 10.0493 14.9206H10.2241C10.2241 14.2054 10.6763 13.5955 11.3108 13.3619L11.2503 13.1978ZM11.841 12.6919C11.841 11.7748 12.5845 11.0313 13.5016 11.0313V10.8565C12.488 10.8565 11.6662 11.6782 11.6662 12.6919H11.841ZM13.5016 11.0313H17.522V10.8565H13.5016V11.0313ZM17.522 11.0313C18.4391 11.0313 19.1826 11.7748 19.1826 12.6919H19.3574C19.3574 11.6782 18.5357 10.8565 17.522 10.8565V11.0313ZM22.2416 13.0852H19.7507V13.26H22.2416V13.0852ZM22.2416 13.26C22.5554 13.26 22.8097 13.0057 22.8097 12.6919H22.6349C22.6349 12.9091 22.4588 13.0852 22.2416 13.0852V13.26ZM19.1826 12.6919C19.1826 13.0057 19.437 13.26 19.7507 13.26V13.0852C19.5335 13.0852 19.3574 12.9091 19.3574 12.6919H19.1826ZM11.3108 13.3619C11.5881 13.2597 11.841 13.0152 11.841 12.6919H11.6662C11.6662 12.9162 11.4868 13.1107 11.2503 13.1978L11.3108 13.3619Z" fill="url(#paint1_linear_2041_4089)" fill-opacity="0.35"/>
</g>
</g>
<path d="M29.6486 29.8661C33.3775 29.8661 36.4003 26.8433 36.4003 23.1144C36.4003 19.3856 33.3775 16.3628 29.6486 16.3628C25.9198 16.3628 22.897 19.3856 22.897 23.1144C22.897 26.8433 25.9198 29.8661 29.6486 29.8661Z" fill="url(#paint2_linear_2041_4089)"/>
<path d="M29.6483 29.8443C33.365 29.8443 36.3781 26.8313 36.3781 23.1145C36.3781 19.3977 33.365 16.3847 29.6483 16.3847C25.9315 16.3847 22.9185 19.3977 22.9185 23.1145C22.9185 26.8313 25.9315 29.8443 29.6483 29.8443Z" stroke="white" stroke-opacity="0.35"/>
<path d="M34.303 23.1362C34.303 25.6945 32.2291 27.7684 29.6708 27.7684C27.1125 27.7684 25.0386 25.6945 25.0386 23.1362C25.0386 20.5779 27.1125 18.504 29.6708 18.504C32.2291 18.504 34.303 20.5779 34.303 23.1362Z" fill="#273C83"/>
<path d="M34.2808 23.1362C34.2808 25.6825 32.2166 27.7466 29.6704 27.7466C27.1242 27.7466 25.0601 25.6825 25.0601 23.1362C25.0601 20.59 27.1242 18.5259 29.6704 18.5259C32.2166 18.5259 34.2808 20.59 34.2808 23.1362Z" stroke="white" stroke-opacity="0.35"/>
</g>
<defs>
<filter id="filter0_d_2041_4089" x="-0.100098" y="0.5" width="52.2002" height="43" filterUnits="userSpaceOnUse" color-interpolation-filters="sRGB">
<feFlood flood-opacity="0" result="BackgroundImageFix"/>
<feColorMatrix in="SourceAlpha" type="matrix" values="0 0 0 0 0 0 0 0 0 0 0 0 0 0 0 0 0 0 127 0" result="hardAlpha"/>
<feOffset/>
<feGaussianBlur stdDeviation="5"/>
<feComposite in2="hardAlpha" operator="out"/>
<feColorMatrix type="matrix" values="0 0 0 0 1 0 0 0 0 1 0 0 0 0 1 0 0 0 0.25 0"/>
<feBlend mode="normal" in2="BackgroundImageFix" result="effect1_dropShadow_2041_4089"/>
<feBlend mode="normal" in="SourceGraphic" in2="effect1_dropShadow_2041_4089" result="shape"/>
</filter>
<filter id="filter1_i_2041_4089" x="10.1367" y="10.944" width="31.7261" height="23.0685" filterUnits="userSpaceOnUse" color-interpolation-filters="sRGB">
<feFlood flood-opacity="0" result="BackgroundImageFix"/>
<feBlend mode="normal" in="SourceGraphic" in2="BackgroundImageFix" result="shape"/>
<feColorMatrix in="SourceAlpha" type="matrix" values="0 0 0 0 0 0 0 0 0 0 0 0 0 0 0 0 0 0 127 0" result="hardAlpha"/>
<feOffset dy="1"/>
<feGaussianBlur stdDeviation="12"/>
<feComposite in2="hardAlpha" operator="arithmetic" k2="-1" k3="1"/>
<feColorMatrix type="matrix" values="0 0 0 0 0 0 0 0 0 0 0 0 0 0 0 0 0 0 0.1 0"/>
<feBlend mode="normal" in2="shape" result="effect1_innerShadow_2041_4089"/>
</filter>
<linearGradient id="paint0_linear_2041_4089" x1="13.8512" y1="12.4516" x2="43.1521" y2="34.4109" gradientUnits="userSpaceOnUse">
<stop stop-color="#273C83"/>
<stop offset="1" stop-color="#273C83" stop-opacity="0.23"/>
</linearGradient>
<linearGradient id="paint1_linear_2041_4089" x1="41.6226" y1="32.8158" x2="10.967" y2="11.3372" gradientUnits="userSpaceOnUse">
<stop stop-color="white"/>
<stop offset="0.208333" stop-color="white" stop-opacity="0"/>
<stop offset="0.645833" stop-color="white" stop-opacity="0"/>
<stop offset="1" stop-color="white"/>
</linearGradient>
<linearGradient id="paint2_linear_2041_4089" x1="29.6486" y1="16.3628" x2="29.6486" y2="29.8661" gradientUnits="userSpaceOnUse">
<stop stop-color="white" stop-opacity="0.83"/>
<stop offset="1" stop-color="white" stop-opacity="0.18"/>
</linearGradient>
<clipPath id="clip0_2041_4089">
<rect width="32.2" height="23" fill="white" transform="translate(9.8999 10.5)"/>
</clipPath>
</defs>
</svg>
